<?xml version="1.0" encoding="UTF-8"?>
<svg version="1.1" xmlns="http://www.w3.org/2000/svg" width="512" height="512">
<path d="M0 0 C5.19239434 2.36017924 7.93685352 5.79352564 10 11 C10.54841379 13.36877887 10.80127957 15.56567479 11 18 C11.78375 17.67 12.5675 17.34 13.375 17 C19.33964472 15.35458077 25.32692307 14.73074885 30.9375 17.75 C34.77250608 20.56755549 36.50512703 22.51538109 38 27 C38.03954234 29.33299825 38.04401732 31.66708189 38 34 C38.61101562 33.81824219 39.22203125 33.63648438 39.8515625 33.44921875 C89.62658809 19.77861313 145.06026348 28.75461626 190 53 C190.59329102 53.31404785 191.18658203 53.6280957 191.79785156 53.95166016 C218.11650917 67.95202595 241.42259167 89.03890452 259 113 C259.61875 113.82371094 260.2375 114.64742188 260.875 115.49609375 C278.14258087 139.1990462 289.69864164 166.53936579 295.875 195.125 C296.16165527 196.42570435 296.16165527 196.42570435 296.45410156 197.75268555 C300.3287109 217.14155413 300.28548309 236.96776946 300.22705078 256.64990234 C300.22648524 259.35262448 300.22671847 262.05533581 300.22793579 264.75805664 C300.22897429 270.52863829 300.22280755 276.29917401 300.21146011 282.06974411 C300.19506538 290.41256526 300.18998299 298.75536465 300.18748413 307.09820016 C300.18312868 320.64051185 300.1698786 334.18279917 300.15087891 347.72509766 C300.13246398 360.86441935 300.11833511 374.00373438 300.10986328 387.14306641 C300.10933783 387.95572328 300.10881239 388.76838015 300.10827102 389.60566299 C300.10566056 393.68334451 300.10313324 397.76102608 300.10064721 401.83870769 C300.07998183 435.55915612 300.04481569 469.27957505 300 503 C301.60681641 502.98259766 301.60681641 502.98259766 303.24609375 502.96484375 C304.64322743 502.95546701 306.04036299 502.94636669 307.4375 502.9375 C308.14455078 502.92912109 308.85160156 502.92074219 309.58007812 502.91210938 C311.38693559 502.90346412 313.19387603 502.94779989 315 503 C316 504 316 504 316.125 507.5 C316 511 316 511 315 512 C313.53714472 512.09849458 312.06954609 512.12739143 310.60337925 512.12863445 C309.17056719 512.13347112 309.17056719 512.13347112 307.70880944 512.1384055 C306.64696668 512.1368569 305.58512393 512.1353083 304.49110413 512.13371277 C302.81359917 512.1371111 302.81359917 512.1371111 301.10220522 512.14057809 C297.32341627 512.1469506 293.54466289 512.14608666 289.76586914 512.14526367 C287.06949222 512.14825313 284.37311818 512.15162644 281.67674255 512.15544128 C275.09418018 512.16376429 268.51162676 512.16649687 261.92905957 512.16705366 C256.58108172 512.16752804 251.23310684 512.16957885 245.88512993 512.17275429 C230.73868512 512.18156532 215.59224741 512.18617296 200.44580001 512.18542381 C199.62845408 512.18538386 198.81110814 512.1853439 197.96899414 512.18530273 C197.15065582 512.18526185 196.33231749 512.18522097 195.48918103 512.18517885 C182.22127126 512.18477224 168.95338985 512.19434437 155.68548829 512.2084411 C142.07783562 512.22278528 128.4701968 512.22971237 114.86253637 512.22884732 C107.21653798 512.22851468 99.57056932 512.23129125 91.92457771 512.24202538 C85.41536085 512.25110468 78.90618719 512.25332691 72.39696676 512.24651595 C69.07321463 512.24323767 65.74956327 512.24431528 62.42581558 512.2518692 C58.82909462 512.25951715 55.23259526 512.25499242 51.63587952 512.24723816 C50.57626749 512.25238172 49.51665546 512.25752529 48.42493397 512.26282471 C47.46711818 512.25822592 46.5093024 512.25362712 45.52246189 512.24888897 C44.69141644 512.24910634 43.86037099 512.24932371 43.00414234 512.24954766 C41 512 41 512 39 510 C39.56818182 504.43181818 39.56818182 504.43181818 41 503 C42.96161604 502.90333063 44.92676645 502.87812903 46.89076233 502.87974548 C48.81125145 502.87768349 48.81125145 502.87768349 50.77053833 502.87557983 C52.20257591 502.87911945 53.63461326 502.88275427 55.06665039 502.88647461 C56.56431578 502.88675647 58.0619813 502.88659876 59.55964661 502.8860321 C63.63798172 502.88574409 67.71628767 502.89164136 71.79461598 502.89860606 C76.05207628 502.90483905 80.30953718 502.90544335 84.56700134 502.90663147 C92.63473187 502.90974495 100.70244891 502.91795856 108.77017349 502.92798096 C117.95260779 502.93914158 127.13504272 502.94465242 136.31748211 502.94967639 C155.2116624 502.96014116 174.10583012 502.97774093 193 503 C193.02407425 502.1843457 193.0481485 501.36869141 193.07295227 500.52832031 C193.16603488 497.44178337 193.26284627 494.35538992 193.36201477 491.26904297 C193.42418501 489.30054181 193.48222751 487.33191165 193.54016113 485.36328125 C194.8358475 445.51934538 205.05392874 407.36706867 221 371 C222.00433324 368.66849384 223.00232512 366.3343655 224 364 C223.443125 363.88897949 222.88625 363.77795898 222.3125 363.66357422 C217.00876239 362.55377608 212.03734201 361.11308202 207 359.125 C205.87416504 358.68305298 205.87416504 358.68305298 204.72558594 358.23217773 C176.2325442 346.75533633 149.709949 331.53035529 126 312 C125.19030762 311.34475342 125.19030762 311.34475342 124.36425781 310.67626953 C109.25384355 298.41764186 94.74659364 284.53931299 83 269 C82.00443909 267.74203524 81.00687162 266.48565708 80.0078125 265.23046875 C71.89252089 254.94811478 64.69198755 244.25687096 58 233 C57.53352051 232.21818359 57.06704102 231.43636719 56.58642578 230.63085938 C39.32743643 201.36850572 28.40796355 169.25284788 22 136 C21.83129395 135.12456543 21.66258789 134.24913086 21.48876953 133.34716797 C18.5901463 117.72455602 17.88390753 101.83733779 17 86 C5.23437804 91.65093376 -5.68585297 97.93191365 -16 106 C-14.80375 106.2475 -13.6075 106.495 -12.375 106.75 C-7.28043666 108.03942046 -3.58043233 110.15616228 -0.125 114.1875 C1.49424328 118.23560819 1.77324674 121.7041848 1 126 C-1.09156409 130.71431906 -4.14889918 134.57679927 -8 138 C-7.51789063 138.51949219 -7.03578125 139.03898438 -6.5390625 139.57421875 C-1.45725582 145.18494817 1.54065249 149.03298879 1.31640625 156.94140625 C0.61522678 161.50340106 -1.6682 164.82488235 -5.125 167.875 C-11.91357733 170.53139983 -18.22143014 170.50512364 -25 168 C-25.21914062 168.72445312 -25.43828125 169.44890625 -25.6640625 170.1953125 C-27.77925724 176.64407696 -29.69257967 180.7088942 -35 185 C-39.07047347 186.35682449 -42.74391717 186.52472254 -47 186 C-53.22901565 182.82672788 -56.54692456 178.72499828 -58.75 172.1875 C-59.17711618 170.79482862 -59.59739857 169.39995496 -60 168 C-62.64 168.33 -65.28 168.66 -68 169 C-68.17958252 169.53874756 -68.35916504 170.07749512 -68.54418945 170.63256836 C-71.36279297 179.08837891 -74.18139648 187.54418945 -77 196 C-76.24074219 196.26554688 -75.48148437 196.53109375 -74.69921875 196.8046875 C-70.64486036 198.60010525 -68.36857633 201.3004412 -66 205 C-65.00736962 207.69562657 -64.49960432 210.15225536 -64 213 C-62.865625 212.649375 -61.73125 212.29875 -60.5625 211.9375 C-54.41160094 210.42426997 -49.26223042 210.82699164 -43.625 213.75 C-40.18546125 216.69817607 -38.31594615 218.70646497 -37.68359375 223.296875 C-37.25742275 232.37019311 -41.19817269 237.39236334 -47 244 C-46.09507812 244.38865234 -46.09507812 244.38865234 -45.171875 244.78515625 C-41.39567726 246.89738197 -39.60502448 250.05113026 -38 254 C-37.26135993 258.89691008 -37.37347337 263.26783813 -39.0625 267.9375 C-42.55304808 271.65324473 -45.64680277 273.72335417 -50.69140625 274.31640625 C-55.82471685 274.42116769 -60.22439094 274.06512824 -65 272 C-65.0825 273.19625 -65.165 274.3925 -65.25 275.625 C-65.94425825 281.08264126 -68.44964543 284.36105375 -72.1875 288.3125 C-75 290 -75 290 -84 291 C-84 360.96 -84 430.92 -84 503 C-66.84 503 -49.68 503 -32 503 C-30 506 -30 506 -30.3125 508.625 C-31 511 -31 511 -32 512 C-33.94433413 512.10102596 -35.89238545 512.13077333 -37.83934021 512.13371277 C-39.74287262 512.14011024 -39.74287262 512.14011024 -41.68486023 512.14663696 C-43.1042786 512.1462874 -44.52369694 512.14582584 -45.94311523 512.14526367 C-47.42768438 512.14825354 -48.91225274 512.15165567 -50.39682007 512.15544128 C-54.44015875 512.164303 -58.4834763 512.1666203 -62.52682376 512.16725707 C-65.89679282 512.16820437 -69.2667569 512.17188058 -72.63672405 512.17542917 C-80.58439736 512.18358197 -88.53205933 512.18601265 -96.47973633 512.18530273 C-104.69072301 512.18470171 -112.90164404 512.19525653 -121.1126141 512.2110464 C-128.1512516 512.2241018 -135.18986759 512.22948748 -142.22851712 512.22884732 C-146.43720844 512.22859175 -150.64584148 512.23147564 -154.8545208 512.24202538 C-158.81153739 512.25167283 -162.76843954 512.25180875 -166.72546005 512.24450874 C-168.18076176 512.24345871 -169.63607046 512.24585045 -171.09136009 512.2518692 C-173.07211789 512.25953283 -175.0529143 512.25377064 -177.03367615 512.24723816 C-178.14405967 512.24778293 -179.25444319 512.24832769 -180.39847469 512.24888897 C-183 512 -183 512 -185 510 C-185.25 507.5 -185.25 507.5 -185 505 C-183 503 -183 503 -180.44369507 502.75949097 C-179.36447784 502.76393219 -178.28526062 502.76837341 -177.17333984 502.77294922 C-175.34166763 502.77317581 -175.34166763 502.77317581 -173.47299194 502.77340698 C-172.13563882 502.78362097 -170.79828735 502.79405298 -169.4609375 502.8046875 C-168.09616299 502.8084172 -166.73138581 502.81126437 -165.36660767 502.81326294 C-161.77279277 502.82090286 -158.17913927 502.84055428 -154.58538818 502.8626709 C-150.91892683 502.88312168 -147.25243943 502.892263 -143.5859375 502.90234375 C-136.39055138 502.92379997 -129.1952983 502.95794008 -122 503 C-122.10464872 472.96901615 -122.21434273 442.93805397 -122.33111694 412.90711487 C-122.34488713 409.36467178 -122.35861413 405.82222852 -122.37231445 402.27978516 C-122.37504276 401.57452469 -122.37777106 400.86926423 -122.38058204 400.14263223 C-122.42470163 388.71117368 -122.46531989 377.27970521 -122.50465261 365.8482293 C-122.54506523 354.12545579 -122.58922097 342.40270073 -122.63687855 330.67995441 C-122.66349535 324.09254147 -122.6883488 317.50513224 -122.70907402 310.91769791 C-122.7286146 304.72409502 -122.75275056 298.53052745 -122.78049088 292.33695602 C-122.78987501 290.05764658 -122.79754535 287.77832937 -122.80341911 285.49900818 C-122.81165719 282.39929359 -122.82592732 279.29966526 -122.84178162 276.19998169 C-122.84275972 275.28754357 -122.84373783 274.37510546 -122.84474558 273.4350177 C-122.73900651 269.08057078 -122.73900651 269.08057078 -124 265 C-125.00345599 257.56934486 -123.98319015 252.75445152 -119.60546875 246.6796875 C-118 245 -118 245 -115 244 C-115.56589844 243.30132812 -116.13179688 242.60265625 -116.71484375 241.8828125 C-117.44832031 240.97273437 -118.18179688 240.06265625 -118.9375 239.125 C-119.66839844 238.22007812 -120.39929688 237.31515625 -121.15234375 236.3828125 C-123.86867673 232.87971922 -124.15809375 231.01241307 -124.1875 226.625 C-124.20167969 225.66851562 -124.21585938 224.71203125 -124.23046875 223.7265625 C-123.98942617 220.87490619 -123.26743038 219.5161533 -122 217 C-121.55916776 214.59447101 -121.18939025 212.17529618 -120.875 209.75 C-120.70742187 208.48671875 -120.53984375 207.2234375 -120.3671875 205.921875 C-120.24601562 204.95765625 -120.12484375 203.9934375 -120 203 C-120.94875 203.804375 -121.8975 204.60875 -122.875 205.4375 C-126.84971098 208.80736366 -129.50414992 209.34775971 -134.68359375 209.28125 C-139.3066137 208.71993898 -142.01550315 205.98449685 -145.1875 202.8125 C-147.58621525 199.09035565 -148.78232834 195.23417645 -150 191 C-150.94875 191.350625 -151.8975 191.70125 -152.875 192.0625 C-158.98159573 193.78423795 -164.78444053 193.08763829 -170.4375 190.3125 C-174.35721704 186.77519437 -175.80336817 183.80245847 -176.375 178.5625 C-175.60022676 171.20215424 -172.12176603 166.12176603 -167 161 C-167.48210937 160.53851563 -167.96421875 160.07703125 -168.4609375 159.6015625 C-173.36554733 154.53680214 -175.93173159 150.16818253 -176 143 C-175.25257834 138.16667324 -173.80913931 135.65742569 -170 132.5625 C-164.58317317 129.74123603 -159.99933115 129.58921777 -154 130 C-150.875 131 -150.875 131 -149 132 C-148.93683594 131.443125 -148.87367188 130.88625 -148.80859375 130.3125 C-147.73507379 123.6227756 -145.13482442 119.42285297 -140 115 C-135.42275435 112.61601789 -131.96940874 112.75764781 -127 114 C-122.23219208 116.5241336 -119.48786668 119.20855305 -117 124 C-116.41974526 126.70135402 -116.19103134 129.23004555 -116 132 C-115.195625 131.67 -114.39125 131.34 -113.5625 131 C-105.95308218 128.86402307 -100.15380173 129.87834106 -93 133 C-92.773125 132.360625 -92.54625 131.72125 -92.3125 131.0625 C-90.85755316 127.66762404 -89.11438444 124.54250014 -87.28125 121.33984375 C-86.09827258 119.17946731 -85.11334418 117.00359514 -84.125 114.75 C-82.39234729 111.2225676 -80.30491732 109.63607033 -76.96875 107.515625 C-74.47885901 105.59880416 -72.7577393 103.40428896 -70.8125 100.9375 C-63.31037374 91.46718388 -54.83218468 83.05136477 -45 76 C-45.433125 75.25556641 -45.433125 75.25556641 -45.875 74.49609375 C-48.43401774 69.81344671 -49.69428458 66.45509314 -49 61 C-47.26505341 55.70384726 -44.9446592 52.83804679 -41 49 C-41 48.01 -41 47.02 -41 46 C-41.763125 45.2575 -42.52625 44.515 -43.3125 43.75 C-47.22008393 39.75154202 -48.74708264 36.02333891 -49.4375 30.5 C-48.68969107 24.51752855 -46.61746103 21.26161961 -41.875 17.5625 C-36.27579708 14.75687789 -30.24291136 15.38126583 -24.375 17 C-23.59125 17.33 -22.8075 17.66 -22 18 C-21.93683594 17.443125 -21.87367188 16.88625 -21.80859375 16.3125 C-20.73041022 9.59371421 -17.96862075 5.59363051 -13 1 C-9.04626902 -0.97686549 -4.30934862 -0.42666818 0 0 Z M-9.125 10.875 C-12.01441997 14.14967597 -12.26205793 16.35187987 -12.23828125 20.7109375 C-11.89612183 23.99791161 -10.74318977 26.86185192 -9.6015625 29.9453125 C-8.83502151 32.56349796 -9.09339544 34.44502353 -10 37 C-12.1875 37.8125 -12.1875 37.8125 -15 38 C-17.375 35.9375 -17.375 35.9375 -20 33 C-21.21246103 31.89800179 -22.44223609 30.81479088 -23.6875 29.75 C-24.26886719 29.24984375 -24.85023438 28.7496875 -25.44921875 28.234375 C-28.8643224 25.51605572 -31.71743469 25.6994691 -36 26 C-38.10938785 27.02421261 -38.10938785 27.02421261 -39 29 C-39 32.45918656 -38.0774798 33.90138934 -35.9375 36.625 C-30.42255799 41.08388928 -24.92539057 42.03044532 -18 43 C-17.34 43.66 -16.68 44.32 -16 45 C-16.375 48.125 -16.375 48.125 -17 51 C-18.08539063 51.20753906 -19.17078125 51.41507813 -20.2890625 51.62890625 C-30.66752644 53.50629293 -30.66752644 53.50629293 -38.28125 60.2578125 C-39.17183539 62.11940204 -39.17183539 62.11940204 -39.0625 64.8125 C-38.0746951 67.31570932 -38.0746951 67.31570932 -35 69 C-28.94938821 69.11863945 -25.97350644 66.75793019 -21.69921875 62.88671875 C-20.0095395 61.01059213 -19.00235853 59.30491581 -18 57 C-15.66705225 56.95758277 -13.33297433 56.95907063 -11 57 C-10.505 57.495 -10.505 57.495 -10 58 C-10.0859375 59.9609375 -10.0859375 59.9609375 -10.375 62.375 C-10.46523437 63.16648438 -10.55546875 63.95796875 -10.6484375 64.7734375 C-11 67 -11 67 -12 70 C-12.51976132 75.02719969 -12.77635718 78.78694191 -10 83.125 C-9.34 83.74375 -8.68 84.3625 -8 85 C-5.08961458 84.97474816 -5.08961458 84.97474816 -2 84 C0.71207265 80.50055142 1.20347281 77.78622046 0.8125 73.5 C0.25925157 69.83626593 -0.80472908 66.50612802 -2 63 C-2.1875 60.1875 -2.1875 60.1875 -2 58 C-1 57 -1 57 1.81640625 56.66796875 C5 57 5 57 7.08984375 58.86328125 C7.69957031 59.67152344 8.30929688 60.47976562 8.9375 61.3125 C12.4320732 65.53926949 14.67205757 67.61868159 20 69 C23.27299501 69.19253007 23.27299501 69.19253007 26 68 C27.84697563 65.8830712 27.84697563 65.8830712 28 63 C25.82666157 58.15938258 22.97516609 55.93011305 18.30078125 53.80859375 C14.92944412 52.6237605 11.52521819 51.96976847 8.00390625 51.39453125 C6 51 6 51 5 50 C4.95907063 47.66702567 4.95758277 45.33294775 5 43 C6.16015625 42.85304688 6.16015625 42.85304688 7.34375 42.703125 C14.95951206 41.60977302 21.88359892 40.57469535 27.125 34.5625 C28.27226062 31.98580812 28.27226062 31.98580812 27.25 29.25 C26.18887078 27.09729707 26.18887078 27.09729707 25 26 C19.93714498 25.61054961 17.03074182 25.87617509 13 29 C10.54437043 31.2239664 8.12704906 33.45612288 6 36 C6 36.66 6 37.32 6 38 C3.125 38.125 3.125 38.125 0 38 C-0.66 37.34 -1.32 36.68 -2 36 C-1.71168402 32.32397128 -1.04141788 29.12425365 0.125 25.625 C1.20299552 21.15901856 1.20018161 17.44067196 0 13 C-1.68916631 10.38893869 -1.68916631 10.38893869 -4 9 C-7.09740541 8.66918918 -7.09740541 8.66918918 -9.125 10.875 Z M47.67333984 41.47851562 C45.16871285 41.96708944 42.66113377 42.40633046 40.14453125 42.828125 C35.020969 43.69060294 35.020969 43.69060294 30 45 C29.34 45.99 28.68 46.98 28 48 C28.928125 48.680625 29.85625 49.36125 30.8125 50.0625 C35.80996352 54.23491058 37.23164612 59.69949816 38 66 C42.86459273 65.51354073 47.48835903 64.67692661 52.25 63.5625 C93.07952736 54.66375686 137.48034177 61.14012749 174.16357422 81.00585938 C175.93418645 81.96437214 177.71884865 82.8967906 179.50390625 83.828125 C219.15176164 105.29840847 249.20317227 144.03117307 262.3125 186.9375 C267.37773142 204.31479682 270.09589753 221.88654216 270.20532227 239.97924805 C270.21522186 241.01473282 270.22512146 242.05021759 270.23532104 243.11708069 C270.26660386 246.49860442 270.29156038 249.88014214 270.31640625 253.26171875 C270.33700456 255.62254679 270.35800173 257.98337139 270.37937927 260.3441925 C270.43430305 266.52706084 270.48384204 272.7099608 270.53222656 278.8928833 C270.58265979 285.21442444 270.63823142 291.53592024 270.69335938 297.85742188 C270.80057719 310.23824242 270.90210139 322.61910251 271 335 C273.60540782 333.71078784 276.20934373 332.41874404 278.8125 331.125 C279.55048828 330.76019531 280.28847656 330.39539063 281.04882812 330.01953125 C281.76103516 329.66503906 282.47324219 329.31054688 283.20703125 328.9453125 C283.8616333 328.62062988 284.51623535 328.29594727 285.19067383 327.96142578 C287.24652798 326.90744328 287.24652798 326.90744328 290 325 C290.30228269 321.99047956 290.4092135 319.18609158 290.38818359 316.17358398 C290.39344055 315.25759933 290.39869751 314.34161469 290.40411377 313.39787292 C290.41738737 310.34710947 290.40853317 307.29686327 290.3984375 304.24609375 C290.4004601 302.11165772 290.40337308 299.97722237 290.40713501 297.8427887 C290.41157151 293.3458912 290.40509938 288.84917176 290.39111328 284.35229492 C290.37425765 278.66221377 290.38370125 272.97256455 290.40183067 267.28250027 C290.41283765 262.8575993 290.40914219 258.43279511 290.4014473 254.0078907 C290.39947903 251.91570037 290.40178225 249.82350053 290.40888596 247.73132133 C290.52965461 202.04917312 279.26360322 158.22074527 252 121 C251.54657227 120.37834961 251.09314453 119.75669922 250.62597656 119.11621094 C240.63703656 105.58116075 229.33876587 93.27003139 216 83 C215.26265625 82.37351563 214.5253125 81.74703125 213.765625 81.1015625 C179.87597593 52.47065208 134.0450344 37.83056937 90.125 37.6875 C89.32953766 37.68454926 88.53407532 37.68159851 87.71450806 37.67855835 C74.10950082 37.66712944 61.04694732 38.85578854 47.67333984 41.47851562 Z M58 72 C58 78.6 58 85.2 58 92 C61.08021484 91.75443359 61.08021484 91.75443359 64.22265625 91.50390625 C73.95651469 90.80955686 83.68462174 90.88975801 93.4375 90.9375 C95.24804562 90.94253065 97.05859261 90.94709076 98.86914062 90.95117188 C103.24612846 90.96204063 107.62304848 90.97921675 112 91 C112.8525482 83.20667233 112.8525482 83.20667233 113.0625 75.375 C113.05347656 74.53710938 113.04445313 73.69921875 113.03515625 72.8359375 C113.02355469 72.23007813 113.01195312 71.62421875 113 71 C97.97845966 65.99281989 72.99204919 67.00265027 58 72 Z M123 73 C122.01 81.91 121.02 90.82 120 100 C112.21718263 101.11183105 112.21718263 101.11183105 108.9375 100.578125 C89.11694155 97.98337284 68.64130716 100.22710958 49 103 C48.67 93.43 48.34 83.86 48 74 C45.2775 74.78375 42.555 75.5675 39.75 76.375 C38.89889648 76.61782715 38.04779297 76.8606543 37.17089844 77.11083984 C36.4905957 77.30887207 35.81029297 77.5069043 35.109375 77.7109375 C34.41811523 77.90993652 33.72685547 78.10893555 33.01464844 78.31396484 C30.89514862 79.03570436 28.97843103 79.95647462 27 81 C28.57210747 149.09570489 49.68636471 213.60309573 94 266 C94.9246421 267.11184368 95.84911296 268.2238298 96.7734375 269.3359375 C106.0048438 280.35935874 115.89112364 290.84004932 127 300 C128.47339844 301.24910156 128.47339844 301.24910156 129.9765625 302.5234375 C156.91225598 324.99238852 188.0734514 342.14301755 221.125 353.75 C221.85299805 354.01474121 222.58099609 354.27948242 223.33105469 354.55224609 C230.16940926 356.82573047 233.98869968 354.06877313 240.140625 350.99609375 C241.29304687 350.42052734 242.44546875 349.84496094 243.6328125 349.25195312 C244.22610352 348.95426025 244.81939453 348.65656738 245.43066406 348.34985352 C247.25697531 347.43400205 249.08540077 346.52247573 250.9140625 345.61132812 C252.06132812 345.03705078 253.20859375 344.46277344 254.390625 343.87109375 C255.44282227 343.34443115 256.49501953 342.81776855 257.57910156 342.27514648 C259.88607874 341.21261912 259.88607874 341.21261912 261 340 C263.24774241 330.64854339 257.81634584 323.68522195 253.22705078 316.07910156 C224.15157233 266.81392558 214.60510844 205.76186191 219.28808594 149.47485352 C219.54883827 146.31775518 219.78229755 143.1603313 220 140 C220.06993164 139.13568359 220.13986328 138.27136719 220.21191406 137.38085938 C220.40955601 133.3781947 220.32829458 131.53172498 218.171875 128.0390625 C217.37265625 127.24242187 216.5734375 126.44578125 215.75 125.625 C214.56664062 124.40683594 214.56664062 124.40683594 213.359375 123.1640625 C211.31525038 121.28915349 209.25838061 119.60572934 207 118 C206.73445312 118.88042969 206.46890625 119.76085937 206.1953125 120.66796875 C205.84210938 121.82941406 205.48890625 122.99085937 205.125 124.1875 C204.77695312 125.33605469 204.42890625 126.48460937 204.0703125 127.66796875 C203.71710938 128.76753906 203.36390625 129.86710937 203 131 C202.72929687 131.94488281 202.45859375 132.88976562 202.1796875 133.86328125 C201 136 201 136 198.89453125 137.1484375 C194.27962183 136.91177548 191.35412153 134.27498516 187.6875 131.625 C186.06661649 130.50373309 184.4428655 129.38660107 182.81640625 128.2734375 C181.59848389 127.4376416 181.59848389 127.4376416 180.35595703 126.58496094 C168.8663191 118.85535167 156.63672651 113.53287207 143.69555664 108.70507812 C142 108 142 108 141 107 C140.98318911 104.852551 141.03748777 102.70448048 141.12109375 100.55859375 C141.16943359 99.25341797 141.21777344 97.94824219 141.26757812 96.60351562 C141.32410831 95.21483925 141.38075041 93.82616743 141.4375 92.4375 C141.49070547 91.04493979 141.54344596 89.65236174 141.59570312 88.25976562 C141.72588091 84.83964019 141.8608618 81.41977076 142 78 C135.47507348 75.29153993 130.24901069 74.31800194 123 73 Z M-45.2890625 89.25390625 C-45.85367188 89.83011719 -46.41828125 90.40632813 -47 91 C-46.34773437 91.02578125 -45.69546875 91.0515625 -45.0234375 91.078125 C-39.25879534 91.45223157 -35.5288079 92.11816466 -31 96 C-29.68 97.65 -28.36 99.3 -27 101 C-23.04 98.03 -19.08 95.06 -15 92 C-15.78375 90.845 -16.5675 89.69 -17.375 88.5 C-19.96390061 84.39296221 -21.06814952 80.74396609 -22 76 C-31.52280084 76 -38.957447 83.01953399 -45.2890625 89.25390625 Z M152 81 C151.13580777 83.59257669 150.82419068 85.34037707 150.68359375 88.01171875 C150.64169922 88.76904297 150.59980469 89.52636719 150.55664062 90.30664062 C150.51732422 91.09232422 150.47800781 91.87800781 150.4375 92.6875 C150.39431641 93.48478516 150.35113281 94.28207031 150.30664062 95.10351562 C150.20072632 97.06881447 150.09987449 99.03438496 150 101 C151.02996094 101.40089844 152.05992187 101.80179688 153.12109375 102.21484375 C167.89009504 108.06783502 181.80096318 115.13412429 195 124 C195.474375 122.824375 195.94875 121.64875 196.4375 120.4375 C196.70433594 119.77621094 196.97117187 119.11492187 197.24609375 118.43359375 C198.24623334 115.20516387 198.86320463 112.38948536 199 109 C189.39027019 95.64925615 166.87633305 86.90066842 152 81 Z M-46.75 102.3125 C-49.4823058 106.00111283 -49.28070824 109.57884523 -49 114 C-48.3121621 116.56339589 -47.52187405 119.06160575 -46.65625 121.5703125 C-45.95987192 124.14856945 -45.88649089 126.34199504 -46 129 C-48.84265644 129.53299808 -50.26926576 129.77431028 -53 129 C-55.26307648 126.88895361 -57.13418312 124.5996571 -59.08984375 122.203125 C-62.33063298 118.46528221 -65.35493136 117.19353749 -70.1875 116.625 C-72.96117239 116.81189158 -72.96117239 116.81189158 -74.9375 118.125 C-76.22848445 120.05788273 -76.22848445 120.05788273 -76.0625 122.875 C-74.63995115 127.05896721 -72.85990584 129.03722475 -69 131 C-64.05026486 132.589507 -59.06684504 133.84610018 -54 135 C-52.875 139.75 -52.875 139.75 -54 142 C-55.81824598 142.44250277 -57.63989278 142.8748654 -59.47485352 143.24194336 C-68.66380828 145.00833012 -68.66380828 145.00833012 -75.28125 151.2578125 C-76.17183539 153.11940204 -76.17183539 153.11940204 -76.0625 155.8125 C-75.0746951 158.31570932 -75.0746951 158.31570932 -72 160 C-65.5218357 160 -61.60230743 157.22805386 -57 153 C-56.29875 152.05125 -55.5975 151.1025 -54.875 150.125 C-53 148 -53 148 -49.75 147.6875 C-48.38875 147.8421875 -48.38875 147.8421875 -47 148 C-45.86495356 152.02425556 -46.02979919 154.59592394 -47.4375 158.4375 C-48.9036711 162.48304618 -49.57428376 165.65185155 -49 170 C-47.48658003 173.4800934 -47.48658003 173.4800934 -45 176 C-42.45587964 176.83356413 -42.45587964 176.83356413 -40 176 C-36.95067181 173.38629012 -36.30656506 170.20777935 -35.91796875 166.28515625 C-36.04417367 162.76944788 -37.12299139 159.68550821 -38.30859375 156.39453125 C-39.05748884 153.80090022 -39.19020881 151.68611947 -39 149 C-38 148 -38 148 -35.1875 147.66796875 C-32 148 -32 148 -29.875 149.86328125 C-28.946875 151.07564453 -28.946875 151.07564453 -28 152.3125 C-24.95252834 155.98450096 -22.71205627 158.59640877 -18 160 C-14.22623449 159.78384744 -14.22623449 159.78384744 -11 159 C-9.60264182 156.84575944 -9.60264182 156.84575944 -9 154 C-11.24980363 149.50039275 -13.58647215 147.26892629 -18 145 C-20.24994735 144.35904196 -22.5239568 143.79794856 -24.8125 143.3125 C-26.55466797 142.93544922 -26.55466797 142.93544922 -28.33203125 142.55078125 C-29.21246094 142.36902344 -30.09289062 142.18726563 -31 142 C-31.93423645 138.98968256 -32.04449911 138.13349732 -31 135 C-28.58423279 134.2433972 -26.2776505 133.65386991 -23.8125 133.125 C-18.0839309 131.73899069 -13.79645787 130.68974208 -10 126 C-8.77126231 122.97121534 -8.77126231 122.97121534 -9 120 C-10.1789752 118.23746182 -10.1789752 118.23746182 -12 117 C-15.92398182 116.44486304 -19.63463039 117.15629208 -23.00390625 119.23828125 C-25.80094188 121.57619224 -27.95304729 123.93647575 -30.125 126.875 C-32 129 -32 129 -34.75 129.3125 C-35.4925 129.209375 -36.235 129.10625 -37 129 C-38.1875 127.125 -38.1875 127.125 -39 124 C-38.40622121 121.43418218 -37.58149921 118.99430344 -36.75 116.49609375 C-35.36830443 111.89763819 -35.28737524 108.42524952 -37.4375 104.125 C-38.82878145 102.12095255 -38.82878145 102.12095255 -40 101 C-42.86264617 100.69866882 -44.4047729 100.55357968 -46.75 102.3125 Z M-59 103 C-60.35827971 104.64639965 -61.69254251 106.31295807 -63 108 C-61.68 108.33 -60.36 108.66 -59 109 C-58.67 107.02 -58.34 105.04 -58 103 C-58.33 103 -58.66 103 -59 103 Z M-136.125 124.8125 C-139.42215624 128.65918228 -139.31635915 132.09643317 -139 137 C-138.27608866 139.33571393 -137.44151988 141.61401107 -136.6015625 143.91015625 C-135.84312262 146.54499609 -136.08807 148.43001546 -137 151 C-139.1875 151.8125 -139.1875 151.8125 -142 152 C-144.375 149.9375 -144.375 149.9375 -147 147 C-148.21246103 145.89800179 -149.44223609 144.81479088 -150.6875 143.75 C-151.26886719 143.24984375 -151.85023438 142.7496875 -152.44921875 142.234375 C-155.8643224 139.51605572 -158.71743469 139.6994691 -163 140 C-165.10938785 141.02421261 -165.10938785 141.02421261 -166 143 C-166 146.45918656 -165.0774798 147.90138934 -162.9375 150.625 C-157.40560896 155.09759276 -150.82342808 156.41598991 -144 158 C-142.875 162.75 -142.875 162.75 -144 165 C-145.81824598 165.44250277 -147.63989278 165.8748654 -149.47485352 166.24194336 C-158.66380828 168.00833012 -158.66380828 168.00833012 -165.28125 174.2578125 C-166.17183539 176.11940204 -166.17183539 176.11940204 -166.0625 178.8125 C-165.0746951 181.31570932 -165.0746951 181.31570932 -162 183 C-155.47782004 183.11054542 -152.47039923 181.2897648 -147.76171875 176.88671875 C-145.93838325 175.02587545 -145.93838325 175.02587545 -144.46875 172.78515625 C-143.9840625 172.19605469 -143.499375 171.60695312 -143 171 C-139.8125 170.75 -139.8125 170.75 -137 171 C-135.71473849 174.62210061 -136.14792265 176.82943595 -137.4375 180.3125 C-139.07561547 184.84940045 -139.48174437 188.18255632 -139 193 C-137.84367254 195.36293002 -136.85016245 197.14983755 -135 199 C-132.62875402 199.58488562 -132.62875402 199.58488562 -130 199 C-127.25176053 195.95465356 -126.1109351 193.82408932 -125.5625 189.75 C-126.03055668 185.73808563 -127.03013726 182.23673182 -128.34375 178.4296875 C-129.04012808 175.85143055 -129.11350911 173.65800496 -129 171 C-126.15734356 170.46700192 -124.73073424 170.22568972 -122 171 C-119.73780364 173.11022539 -117.8652487 175.40072996 -115.90625 177.79296875 C-113.50407976 180.57416995 -111.52882086 181.94886187 -108 183 C-102.93674373 182.8295453 -102.93674373 182.8295453 -99 180 C-99 176.11336678 -99.69135114 174.37037863 -102.1875 171.375 C-106.49643082 168.08492967 -111.88747483 167.1133293 -117.05078125 165.796875 C-120 165 -120 165 -121 164 C-121.25 161.5625 -121.25 161.5625 -121 159 C-117.86094716 156.9072981 -115.83746906 156.43585844 -112.1875 155.6875 C-106.78500021 154.37938867 -103.64289175 153.23363096 -100 149 C-98.77126231 145.97121534 -98.77126231 145.97121534 -99 143 C-99.87129307 140.96117905 -99.87129307 140.96117905 -102 140 C-106.02654964 139.46819156 -108.35385336 139.67692668 -112 141.5 C-114.58713653 143.65594711 -116.40312683 145.65649898 -118.5 148.25 C-121.56550674 151.93680098 -121.56550674 151.93680098 -125.4375 152.5 C-126.283125 152.335 -127.12875 152.17 -128 152 C-129.13504644 147.97574444 -128.97020081 145.40407606 -127.5625 141.5625 C-126.09375754 137.53530293 -125.50030511 134.33068901 -126 130 C-127.40460697 127.12694028 -128.74510999 125.25489001 -131 123 C-134.085081 122.6755267 -134.085081 122.6755267 -136.125 124.8125 Z M-82 133 C-85.71057048 138.38866556 -89.02481193 143.49819959 -91.0625 149.75 C-92.77876357 154.97373671 -95.1711835 158.08416494 -99 162 C-98.2575 162.474375 -97.515 162.94875 -96.75 163.4375 C-92.60921506 167.2959587 -90.27909505 171.6727492 -89.80078125 177.375 C-90.06336127 181.81635353 -91.08469426 185.44210354 -94.19921875 188.8046875 C-96.59446241 190.39458893 -98.892581 190.8626266 -101.6875 191.5 C-105.90957703 192.33127887 -105.90957703 192.33127887 -108.625 195.4375 C-109.17111788 200.62561986 -109.6528887 205.79333052 -110 211 C-106.04 211.99 -102.08 212.98 -98 214 C-97.566875 212.5975 -97.13375 211.195 -96.6875 209.75 C-95.55398462 206.31167001 -94.34668966 203.79367817 -92 201 C-92 200.34 -92 199.68 -92 199 C-91.08190552 198.68373657 -91.08190552 198.68373657 -90.14526367 198.36108398 C-87.14215967 196.45573463 -86.78058333 194.57014803 -85.67578125 191.22265625 C-85.09280273 189.49305664 -85.09280273 189.49305664 -84.49804688 187.72851562 C-84.10681641 186.51873047 -83.71558594 185.30894531 -83.3125 184.0625 C-82.90966797 182.85658203 -82.50683594 181.65066406 -82.09179688 180.40820312 C-81.04783242 177.27630976 -80.02055508 174.13957888 -79 171 C-78.67 170.01 -78.34 169.02 -78 168 C-78.78375 167.2575 -79.5675 166.515 -80.375 165.75 C-83.94821014 162.006637 -84.85760369 160.42396307 -85.375 155.25 C-85.20516781 149.17000776 -82.47216046 144.27027625 -78.25 140 C-77.5075 139.34 -76.765 138.68 -76 138 C-77.98 136.35 -79.96 134.7 -82 133 Z M229 144 C222.20367535 200.5748106 234.53998475 257.48046412 260 308 C260.33 308 260.66 308 261 308 C261.07018653 297.93202597 261.12315381 287.86411221 261.15543652 277.79594135 C261.17094761 273.1185103 261.19191177 268.44124926 261.22631836 263.76391602 C261.6529756 235.22783725 261.6529756 235.22783725 258 207 C257.78077881 205.91243408 257.56155762 204.82486816 257.33569336 203.7043457 C256.76162849 201.1045654 256.10702026 198.55920534 255.375 196 C255.12411621 195.10539062 254.87323242 194.21078125 254.61474609 193.2890625 C250.13328976 178.00662754 243.45267827 163.48446534 235 150 C234.30519531 148.88496094 233.61039062 147.76992187 232.89453125 146.62109375 C232.26933594 145.75613281 231.64414062 144.89117187 231 144 C230.34 144 229.68 144 229 144 Z M-85.1875 206.5 C-87.641324 209.88458483 -88.20978784 212.90913708 -88 217 C-87.37331571 219.60589606 -86.59961493 222.08447694 -85.69140625 224.60546875 C-84.94251116 227.19909978 -84.80979119 229.31388053 -85 232 C-86 233 -86 233 -88.625 233.5625 C-93.22319813 232.79613364 -94.31559037 230.56957438 -97.140625 227.05078125 C-99.93623584 223.96738694 -103.01843228 222.17941397 -107 221 C-110.53279727 221.15359988 -111.49811382 221.49811382 -114 224 C-113.92619421 227.98551254 -113.68378693 230.23073971 -111 233.25 C-107.14430294 235.49915662 -103.27394545 236.76951145 -99 238 C-98.29488281 238.20753906 -97.58976562 238.41507813 -96.86328125 238.62890625 C-95.24566933 239.09811214 -93.62333449 239.55099259 -92 240 C-92 241.98 -92 243.96 -92 246 C-93.51980469 246.34611328 -93.51980469 246.34611328 -95.0703125 246.69921875 C-105.16801914 248.81038778 -105.16801914 248.81038778 -113 255 C-114.14449841 258.58355657 -114.14449841 258.58355657 -114 262 C-112.03572825 264.36684355 -112.03572825 264.36684355 -108.375 264.5 C-103.05358135 264.37422101 -99.73033843 261.57106555 -96 258 C-95.319375 257.071875 -94.63875 256.14375 -93.9375 255.1875 C-92 253 -92 253 -88.25 252.1875 C-86.64125 252.0946875 -86.64125 252.0946875 -85 252 C-84.69359485 256.59607723 -85.23207266 260.03167697 -86.625 264.4375 C-88.18207524 269.80239906 -88.12618066 272.8232123 -86 278 C-84.28964537 280.16141544 -84.28964537 280.16141544 -82 281 C-79.22164704 280.91580749 -78.27413824 280.27413824 -76.3125 278.3125 C-74.16134931 274.52237735 -73.60625497 271.68282111 -74.61328125 267.37890625 C-75.16228115 265.46130945 -75.72348105 263.54716313 -76.296875 261.63671875 C-77.08460471 258.68273235 -77.24692398 256.04539569 -77 253 C-74.8125 252.1875 -74.8125 252.1875 -72 252 C-69.625 254.0625 -69.625 254.0625 -67 257 C-65.78753897 258.10199821 -64.55776391 259.18520912 -63.3125 260.25 C-62.73113281 260.75015625 -62.14976562 261.2503125 -61.55078125 261.765625 C-58.97401538 263.81665275 -57.23039534 264.15780887 -54 264.1875 C-53.29875 264.20167969 -52.5975 264.21585937 -51.875 264.23046875 C-49.75475062 264.16512323 -49.75475062 264.16512323 -48 262 C-48 257.80897359 -48.51040533 255.61919326 -51.125 252.3125 C-56.35696663 248.40147544 -63.72855562 247.4282297 -70 246 C-70 244.02 -70 242.04 -70 240 C-67.19988948 239.04206746 -64.4089131 238.11021741 -61.55078125 237.33984375 C-54.53890718 235.48653248 -54.53890718 235.48653248 -49 231 C-48.10944264 227.35817665 -48.10944264 227.35817665 -48 224 C-50.42856865 221.57143135 -51.71769421 221.01660622 -55.1875 220.8125 C-61.57997829 222.8035998 -66.31846634 227.4776995 -70 233 C-73.0625 233.25 -73.0625 233.25 -76 233 C-77 232 -77 232 -77.25 229.5625 C-77.02298213 226.32749539 -76.44305542 224.04421572 -75.4375 221 C-74.15478421 216.92585033 -73.55006768 214.15647266 -75 210 C-76.67727338 207.0897153 -76.67727338 207.0897153 -79 205 C-82.89224525 204.6229811 -82.89224525 204.6229811 -85.1875 206.5 Z M-112 274 C-112 349.24 -112 424.48 -112 502 C-106.06 502 -100.12 502 -94 502 C-93.95374098 473.38465178 -93.91803071 444.76931254 -93.89637566 416.15393448 C-93.88605447 402.86790764 -93.87197806 389.58190987 -93.84912109 376.29589844 C-93.82921299 364.71846684 -93.81628969 353.14105235 -93.81182301 341.56360412 C-93.80921126 335.43105562 -93.80305502 329.29855609 -93.78853989 323.16602325 C-93.77499673 317.39757997 -93.77077074 311.62920596 -93.77378464 305.86074829 C-93.77323301 303.74029921 -93.76923619 301.6198479 -93.76158905 299.49941254 C-93.75167896 296.61054536 -93.75401674 293.72194178 -93.75949097 290.83306885 C-93.75366528 289.98871159 -93.7478396 289.14435433 -93.74183738 288.27441049 C-93.76218346 284.31815419 -93.89591688 281.392441 -96 278 C-96.38290462 276.00889599 -96.72604615 274.00899487 -97 272 C-102.04424865 272 -107.02438378 273.17073063 -112 274 Z M271 346 C271 397.48 271 448.96 271 502 C277.27 502 283.54 502 290 502 C290 447.55 290 393.1 290 337 C282.99206799 337 277.19352563 342.72107467 271 346 Z M236 364 C232.22459111 367.94841751 230.45694241 372.66050736 228.76269531 377.77685547 C227.95610046 380.1279607 227.01364431 382.38060784 226.0234375 384.66015625 C210.14558438 421.58695336 203 461.94124238 203 502 C222.14 502 241.28 502 261 502 C261 452.5 261 403 261 352 C252.96862655 352 242.31706146 359.45642263 236 364 Z " fill="rgb(202 138 4)" transform="translate(194,0)"/>
<path d="M0 0 C11.05974595 7.85224435 17.24423722 17.82497683 20 31 C21.01562598 39.07319022 19.38008985 45.26234447 16.7578125 52.86328125 C15.61684893 57.58592941 16.48310533 61.45956528 18 66 C18.66 65.319375 19.32 64.63875 20 63.9375 C20.996573 62.95484562 21.99699841 61.97609179 23 61 C23.56976563 60.43410156 24.13953125 59.86820313 24.7265625 59.28515625 C30.53582532 53.82253668 37.13956725 49.68142544 45.1484375 48.55859375 C48 49 48 49 49.84765625 50.9609375 C51.35835437 54.94508373 51.4934522 58.39554204 51.4375 62.625 C51.42920166 63.42679687 51.42090332 64.22859375 51.41235352 65.0546875 C51.07717865 76.88719536 46.37497855 86.14389099 38.34375 94.78125 C32.36025971 100.31315612 24.29744661 105 16 105 C13.86684111 103.64899937 13.25231235 102.61931214 12.3125 100.3125 C11.84611194 96.86122833 11.94197313 93.48161204 12 90 C11.34 90.165 10.68 90.33 10 90.5 C-2.20317687 92.53386281 -13.00732934 88.97872332 -23 82 C-24.051875 81.278125 -25.10375 80.55625 -26.1875 79.8125 C-32.11736555 73.88263445 -37.6711774 65.85013333 -38.25 57.3125 C-38 54 -38 54 -36 52 C-24.67963051 48.95372002 -12.35542268 50.85740942 -2.21875 56.56640625 C2.98041475 59.98041475 2.98041475 59.98041475 5 62 C5.33 61.01 5.66 60.02 6 59 C5.443125 58.7525 4.88625 58.505 4.3125 58.25 C-3.77395902 53.87894107 -8.71923947 46.03973907 -11.875 37.5625 C-15.1389679 26.05701314 -14.75862249 13.36685253 -8.9375 2.6875 C-6.05389603 -1.31233776 -4.58508306 -1.38820564 0 0 Z M-2 12 C-5.08750285 23.0786867 -3.95924305 31.10686439 1.234375 41.37109375 C3.16055311 44.23905364 5.20870294 45.99197508 8 48 C11.53094674 39.61400148 10.57462022 31.9054737 7.28125 23.625 C5.15443644 19.26762588 2.46656637 14.23328319 -2 12 Z M-26 61 C-24.03133613 67.99969375 -18.65874163 73.31661595 -12.5 76.875 C-6.33497555 79.97841061 -0.93270314 81.28296747 6 81 C1.92432212 71.99060679 -3.21821899 67.31715036 -12 63 C-16.61562424 61.29050954 -21.08055603 60.7540278 -26 61 Z M31.96484375 66.8828125 C25.74652984 73.36845579 21.81470211 80.53215112 21.75 89.6875 C21.8325 90.780625 21.915 91.87375 22 93 C29.82306227 89.87077509 35.25514918 84.11470164 39 76.625 C41.2117322 71.33607516 41.5529987 66.66516447 41 61 C37.74797045 61 34.20396184 64.81130593 31.96484375 66.8828125 Z " fill="rgb(202 138 4)" transform="translate(71,13)"/>
<path d="M0 0 C6.18331168 4.49798916 12.86310084 10.90347769 15.1875 18.3125 C16.63812907 30.59694108 13.06507394 41.1068335 5.5078125 50.76953125 C-2.31360542 59.34148927 -11.79541223 64.2271098 -23.34375 65.6171875 C-25.5 65.6875 -25.5 65.6875 -28.8125 65.3125 C-31.4087519 62.7162481 -31.14001805 61.55562493 -31.1875 57.9375 C-30.92684825 45.81719343 -26.12897668 37.65482034 -18.8125 28.3125 C-18.4825 27.6525 -18.1525 26.9925 -17.8125 26.3125 C-18.51375 26.14234375 -19.215 25.9721875 -19.9375 25.796875 C-31.82033835 22.76158477 -41.75911492 17.89257763 -48.8125 7.3125 C-49.25 4.375 -49.25 4.375 -48.8125 1.3125 C-35.92652412 -10.9654262 -14.14619245 -8.7109487 0 0 Z M-36.8125 5.3125 C-31.96463491 10.9683426 -25.19355267 14.93759803 -17.8125 16.3125 C-11.75831932 16.74856327 -6.54168166 16.30525884 -0.8125 14.3125 C-2.18509316 11.02107763 -3.51510309 9.51830047 -6.5625 7.6875 C-7.21734375 7.28273437 -7.8721875 6.87796875 -8.546875 6.4609375 C-13.66640706 3.86586435 -18.08615192 3.03738444 -23.8125 3.0625 C-24.988125 3.05734375 -26.16375 3.0521875 -27.375 3.046875 C-30.83187245 3.31399696 -33.58767473 4.07369517 -36.8125 5.3125 Z M-11.625 35.5 C-16.52681206 40.79581113 -19.62573236 47.21714451 -20.8125 54.3125 C-12.20863052 52.71986884 -6.4622189 48.98149809 -0.8125 42.3125 C3.63653145 35.28011604 3.63653145 35.28011604 5.1875 27.3125 C-1.07588745 27.3125 -7.12491692 31.32629657 -11.625 35.5 Z " fill="rgb(202 138 4)" transform="translate(50.8125,217.6875)"/>
<path d="M0 0 C3 0.25 3 0.25 5 2.25 C5.34716797 4.88183594 5.34716797 4.88183594 5.4921875 8.234375 C5.5550293 9.46873291 5.61787109 10.70309082 5.68261719 11.97485352 C5.71335327 12.6312381 5.74408936 13.28762268 5.77575684 13.96389771 C8.09087076 61.46146405 24.57102328 107.4137313 55 144.25 C55.474375 144.82588867 55.94875 145.40177734 56.4375 145.99511719 C64.00411526 155.12333208 71.78799778 164.11650737 81.0625 171.5625 C84 174.25 84 174.25 85.0625 176.9375 C85 179.25 85 179.25 83 182.25 C79.59606073 182.73494477 77.71789095 182.70660909 74.7890625 180.84375 C74.07492187 180.1528125 73.36078125 179.461875 72.625 178.75 C71.77035156 177.92886719 70.91570312 177.10773438 70.03515625 176.26171875 C69.55965332 175.78911621 69.08415039 175.31651367 68.59423828 174.82958984 C66.80905166 173.06080616 64.99650602 171.32237328 63.18359375 169.58203125 C54.67154128 161.32773452 47.00800498 152.81066783 40 143.25 C39.36964844 142.40308594 38.73929687 141.55617188 38.08984375 140.68359375 C32.90554804 133.51533066 28.4132975 125.90848296 24 118.25 C23.47937988 117.35087891 23.47937988 117.35087891 22.94824219 116.43359375 C4.74443996 84.66856973 -4.92870774 47.21462929 -5.25 10.6875 C-5.25942627 9.87112061 -5.26885254 9.05474121 -5.27856445 8.21362305 C-5.23442661 0.43620222 -5.23442661 0.43620222 0 0 Z " fill="rgb(202 138 4)" transform="translate(357,159.75)"/>
<path d="M0 0 C3.28969982 3.5544644 5.41572259 7.51724679 7.5625 11.8125 C15.53882772 27.23403939 26.22949624 40.90865828 37.91015625 53.6875 C39.68356841 55.64985514 41.38150245 57.64661409 43.0625 59.6875 C46.35855989 63.54936853 50.11603921 66.74480858 54 70 C54.89847656 70.77472656 55.79695313 71.54945313 56.72265625 72.34765625 C62.90476181 77.61751435 69.236832 82.38249556 75.9921875 86.89453125 C79.20279597 89.14195718 82.13476447 91.32321045 85 94 C84.90196078 99.09803922 84.90196078 99.09803922 83 101 C77.77316255 101.82444756 75.07088616 100.11565907 70.98706055 97.19116211 C70.26945557 96.65370361 69.55185059 96.11624512 68.8125 95.5625 C68.06073486 95.01408447 67.30896973 94.46566895 66.53442383 93.90063477 C56.10868607 86.23422363 46.40541654 77.87446561 37 69 C36.1440625 68.19820313 35.288125 67.39640625 34.40625 66.5703125 C27.52389865 59.92753667 21.71742494 52.63910923 16 45 C15.57187012 44.43265137 15.14374023 43.86530273 14.70263672 43.28076172 C6.74535066 32.67819087 -0.17139622 21.43214327 -6.296875 9.67578125 C-6.6278418 9.04067627 -6.95880859 8.40557129 -7.29980469 7.7512207 C-8.32071255 5.19788316 -8.05920124 3.49668863 -7 1 C-4.37869511 -0.31065245 -2.90828303 -0.415469 0 0 Z " fill="rgb(202 138 4)" transform="translate(337,243)"/>
<path d="M0 0 C2.89474757 1.74389458 5.43392139 3.80762216 8 6 C8.91845703 6.75796875 8.91845703 6.75796875 9.85546875 7.53125 C18.96730748 15.73793919 22.35635914 27.01885338 23.3125 38.875 C23.13387352 45.12692666 21.66276614 51.81171192 18.76953125 57.359375 C17 59 17 59 14.12109375 59.4375 C6.61098111 58.38476832 0.17165551 51.93092768 -4.46875 46.20703125 C-11.57804414 35.960217 -14.11730739 23.76525218 -12.3125 11.4375 C-11.44084702 7.26481281 -10.34392601 3.61355261 -8 0 C-4.93256346 -1.53371827 -3.29840304 -0.91622307 0 0 Z M-2 12 C-3.56874507 20.54304544 -3.00086373 28.66022777 1.328125 36.36328125 C4.35801699 40.59715664 7.8717362 43.85465615 12 47 C14.48232252 39.55303244 12.91830386 32.04530821 10 25 C7.14585448 19.75919832 4.0575328 15.32352156 -1 12 C-1.33 12 -1.66 12 -2 12 Z " fill="rgb(202 138 4)" transform="translate(141,283)"/>
<path d="M0 0 C1.03437447 -0.00525696 1.03437447 -0.00525696 2.08964539 -0.01062012 C4.37431843 -0.01943923 6.65868306 -0.01358781 8.94335938 -0.00683594 C10.52754781 -0.00818254 12.11173584 -0.01012303 13.69592285 -0.01263428 C17.01818776 -0.01558578 20.34034522 -0.01128711 23.66259766 -0.00195312 C27.92672528 0.00944149 32.19060116 0.00288214 36.45471954 -0.00909805 C39.72660223 -0.01631599 42.99842498 -0.01402904 46.27030945 -0.00884247 C47.84282969 -0.00750578 49.41535532 -0.00915435 50.98786926 -0.01380157 C53.1834663 -0.01886579 55.37865241 -0.01115843 57.57421875 0 C59.45046936 0.00238678 59.45046936 0.00238678 61.36462402 0.00482178 C64.28710938 0.25878906 64.28710938 0.25878906 66.28710938 2.25878906 C65.91210938 5.88378906 65.91210938 5.88378906 65.28710938 9.25878906 C61.90302159 10.38681832 59.31994942 10.39264583 55.75195312 10.40405273 C54.76366013 10.40909065 54.76366013 10.40909065 53.75540161 10.41423035 C51.57845167 10.42372604 49.40157873 10.42568259 47.22460938 10.42675781 C45.71150684 10.42997077 44.19840461 10.43333487 42.68530273 10.43684387 C39.51447835 10.44283126 36.3436812 10.44468411 33.17285156 10.4440918 C29.10728391 10.44399006 25.04189046 10.45765571 20.97636414 10.47486401 C17.8520019 10.48597339 14.72768197 10.48801135 11.603302 10.48748207 C10.10417072 10.48866327 8.60503838 10.4930929 7.10592651 10.50081444 C5.01124795 10.5105954 2.91695013 10.50774429 0.82226562 10.50170898 C-0.37003662 10.503134 -1.56233887 10.50455902 -2.79077148 10.50602722 C-5.71289062 10.25878906 -5.71289062 10.25878906 -8.71289062 8.25878906 C-9.02539062 5.25878906 -9.02539062 5.25878906 -8.71289062 2.25878906 C-5.87110997 -0.58299159 -3.98044296 0.00506352 0 0 Z " fill="rgb(202 138 4)" transform="translate(267.712890625,476.7412109375)"/>
<path d="M0 0 C3.4375 1 3.4375 1 5.4375 2.6875 C6.81444267 5.87167993 6.417724 7.70924801 5.4375 11 C4.3125 12.875 4.3125 12.875 2.4375 14 C-0.9718712 14.36528977 -3.44273824 14.6140629 -6.5 12.9375 C-8.20152633 9.8347167 -7.98769574 7.46230815 -7.5625 4 C-5.30132583 0.38212133 -4.292718 0 0 0 Z " fill="rgb(202 138 4)" transform="translate(189.5625,40)"/>
<path d="M0 0 C2.61321414 2.19172799 2.94109015 3.64654092 3.5 7 C3 10 3 10 0.875 12.4375 C-2 14 -2 14 -5.125 13.9375 C-9.42669173 12.53477444 -9.42669173 12.53477444 -11 10 C-11.53520313 6.40649325 -11.44814771 4.68118452 -9.4375 1.625 C-6.07941451 -0.61372366 -3.95254396 -0.57491549 0 0 Z " fill="rgb(202 138 4)" transform="translate(117,236)"/>
<path d="M0 0 C2 2 2 2 2.3125 5.9375 C2.23081662 8.43791894 2.12109418 9.77205801 0.9375 12 C-2.21863437 13.62897258 -4.52151049 13.48820905 -8 13 C-10.5 10.875 -10.5 10.875 -12 8 C-12 4.49267067 -11.6345092 2.7565302 -9.375 0.0625 C-5.95249533 -1.46862051 -3.58323398 -0.8626304 0 0 Z " fill="rgb(202 138 4)" transform="translate(156,132)"/>
<path d="M0 0 C2 2.125 2 2.125 3 5 C2.3125 8.75 2.3125 8.75 1 12 C-2.04983996 13.52491998 -4.6423369 13.23562548 -8 13 C-9.9375 11.9375 -9.9375 11.9375 -11 10 C-11.38991688 5.63293092 -11.46324069 3.69486103 -9 0 C-5.40997619 -1.1966746 -3.61734062 -1.05505768 0 0 Z " fill="rgb(202 138 4)" transform="translate(66,155)"/>
</svg>
