<?xml version="1.0" encoding="UTF-8"?>
<svg version="1.1" xmlns="http://www.w3.org/2000/svg" width="512" height="512">
<path d="M0 0 C1.9076564 -0.00845947 1.9076564 -0.00845947 3.85385132 -0.01708984 C5.26600704 -0.01320113 6.6781622 -0.00910479 8.09031677 -0.00482178 C9.5751818 -0.00753135 11.06004549 -0.01109209 12.54490662 -0.01544189 C16.57989197 -0.02457145 20.61477522 -0.02101954 24.64976239 -0.01468372 C28.86757515 -0.0096276 33.08537905 -0.01431401 37.30319214 -0.01745605 C44.38573276 -0.02109643 51.46823169 -0.01629431 58.55076599 -0.0067749 C66.74703197 0.00411399 74.94319848 0.00058122 83.13946205 -0.01042771 C90.1696529 -0.01949355 97.19981374 -0.02078945 104.23000854 -0.01555037 C108.43195632 -0.01242733 112.63385728 -0.01203055 116.83580208 -0.01862335 C120.78464813 -0.02438613 124.73336547 -0.02041966 128.68219757 -0.00883484 C130.13427199 -0.00618268 131.58635717 -0.00696277 133.03842735 -0.01136017 C135.01470944 -0.01679486 136.99101511 -0.00878321 138.96728516 0 C140.07507104 0.00075405 141.18285692 0.0015081 142.32421207 0.002285 C144.92015076 0.25396729 144.92015076 0.25396729 146.92015076 2.25396729 C147.48265076 4.94146729 147.48265076 4.94146729 146.92015076 8.25396729 C145.46554822 10.09158647 143.88933612 11.60094622 142.13499451 13.15240479 C140.177052 15.01020561 138.46160388 16.90487581 136.70530701 18.94927979 C132.15447052 24.20961295 127.19603517 29.02774092 122.23655701 33.89849854 C118.85133366 37.24699251 115.55569817 40.61057398 112.45140076 44.22271729 C107.80068877 49.62817339 102.6732558 54.54705528 97.59202576 59.54302979 C93.49054119 63.60266247 89.54329635 67.69785191 85.85482788 72.13850403 C83.92015076 74.25396729 83.92015076 74.25396729 81.64819336 76.09025574 C77.89045834 79.2247917 75.31502567 81.69600891 74.0905304 86.52719116 C73.78621672 90.41117315 73.74916504 94.24274275 73.82249451 98.13287354 C73.81683158 99.55492705 73.80720763 100.97696976 73.79382324 102.39897156 C73.7693583 106.11346362 73.7981405 109.82564065 73.83860779 113.53991699 C73.87040457 117.34116133 73.85103288 121.14212286 73.83616638 124.94342041 C73.81452024 132.38091722 73.84920939 139.81671552 73.92015076 147.25396729 C74.94954773 147.23825684 74.94954773 147.23825684 75.9997406 147.222229 C79.09817365 147.18074854 82.19654836 147.15466659 85.29515076 147.12896729 C86.37538513 147.11220947 87.45561951 147.09545166 88.56858826 147.07818604 C89.59983826 147.07174072 90.63108826 147.06529541 91.69358826 147.05865479 C93.12323914 147.04294434 93.12323914 147.04294434 94.58177185 147.0269165 C96.92015076 147.25396729 96.92015076 147.25396729 98.92015076 149.25396729 C99.23265076 152.25396729 99.23265076 152.25396729 98.92015076 155.25396729 C95.59836962 157.46848804 94.54128722 157.50972345 90.67015076 157.52862549 C89.59893982 157.5381575 88.52772888 157.54768951 87.42405701 157.55751038 C85.68962341 157.55614326 85.68962341 157.55614326 83.92015076 157.55474854 C82.73292419 157.55903366 81.54569763 157.56331879 80.32249451 157.56773376 C77.81078225 157.57348028 75.29905335 157.57397498 72.78733826 157.56964111 C68.93548852 157.56647987 65.08440555 157.58994196 61.23265076 157.61529541 C58.79515173 157.61756815 56.35765063 157.61827202 53.92015076 157.61724854 C52.76386169 157.62645828 51.60757263 157.63566803 50.41624451 157.64515686 C49.34503357 157.63892807 48.27382263 157.63269928 47.17015076 157.62628174 C46.22655701 157.62691116 45.28296326 157.62754059 44.31077576 157.62818909 C41.92015076 157.25396729 41.92015076 157.25396729 40.08030701 155.92601013 C38.92015076 154.25396729 38.92015076 154.25396729 39.10765076 151.12896729 C39.37577576 150.18021729 39.64390076 149.23146729 39.92015076 148.25396729 C42.42512079 147.00148227 44.1286835 147.14022322 46.92796326 147.15631104 C47.91409607 147.15953369 48.90022888 147.16275635 49.91624451 147.16607666 C50.94878357 147.17445557 51.98132263 147.18283447 53.04515076 147.19146729 C54.60556091 147.19823486 54.60556091 147.19823486 56.19749451 147.20513916 C58.77177038 147.21694777 61.34593222 147.23341654 63.92015076 147.25396729 C63.97496748 139.04706062 63.98638785 130.84169477 63.9434967 122.63477325 C63.92491681 118.82318485 63.92088502 115.0127729 63.95091248 111.20123291 C63.97938286 107.51768114 63.96857761 103.83608654 63.93135071 100.15263367 C63.923945 98.75254202 63.93032671 97.35230263 63.95118713 95.9523468 C64.18632487 87.9163604 64.18632487 87.9163604 61.19334412 80.6987915 C59.19888228 78.70272253 57.13412752 76.99754977 54.92015076 75.25396729 C53.74619804 73.96655698 52.59600023 72.65663266 51.48265076 71.31646729 C47.52740178 66.72443219 43.2395742 62.50091718 38.92015076 58.25396729 C33.98081249 53.39750382 29.20863935 48.50374952 24.69358826 43.25006104 C21.43824955 39.5860124 17.91563128 36.18691685 14.42015076 32.75396729 C9.56412779 27.98481414 4.89664026 23.15882612 0.4606781 17.99517822 C-1.40368297 15.88794793 -3.42786222 14.01072753 -5.51734924 12.12896729 C-8.20311647 9.48483986 -8.99523277 8.66935726 -9.76734924 4.87896729 C-8.39959178 -0.34337939 -4.65169469 0.00316525 0 0 Z M7.92015076 10.25396729 C9.90015076 12.56396729 11.88015076 14.87396729 13.92015076 17.25396729 C14.53761169 18.02224854 15.15507263 18.79052979 15.79124451 19.58209229 C20.00155619 24.74786123 23.51893662 27.5575272 30.31468201 28.63287354 C37.63320976 29.13649111 43.20581068 26.77639129 49.65843201 23.66412354 C60.30599792 19.06080462 70.43773796 21.32141844 80.92015076 25.25396729 C81.94753357 25.78248291 82.97491638 26.31099854 84.03343201 26.85552979 C88.48797573 29.01348195 92.07061701 29.08289163 96.92015076 28.25396729 C100.52053232 26.88974391 103.97138901 25.32549425 107.45530701 23.68756104 C110.72601835 22.33429039 113.30299601 21.7950419 116.79515076 21.44146729 C122.54539411 20.65773041 125.03660791 17.65920632 128.55686951 13.25006104 C130.01414884 11.51920593 130.01414884 11.51920593 129.92015076 10.25396729 C89.66015076 10.25396729 49.40015076 10.25396729 7.92015076 10.25396729 Z M46.43968201 34.78521729 C42.60419438 36.38582033 38.97898899 37.42563295 34.92015076 38.25396729 C38.7848561 43.66457667 42.89061782 48.50389818 47.63108826 53.16021729 C48.24408783 53.77038696 48.8570874 54.38055664 49.48866272 55.00921631 C51.419454 56.92894385 53.35712958 58.8415417 55.29515076 60.75396729 C56.61723019 62.06599904 57.93884898 63.37849514 59.25999451 64.69146729 C62.47475518 67.88435113 65.69570352 71.07086727 68.92015076 74.25396729 C71.99672024 71.88375304 74.69031081 69.55354722 77.17015076 66.56646729 C81.88613576 61.05427702 87.07909492 56.0473544 92.24827576 50.96490479 C97.02727402 46.23467181 101.5725587 41.3844055 105.92015076 36.25396729 C103.80732282 34.90853595 103.80732282 34.90853595 100.92015076 36.19146729 C91.03640547 39.15250668 82.92670499 36.33788342 73.79905701 32.32037354 C63.75131086 28.09506379 56.04528279 30.64334141 46.43968201 34.78521729 Z " fill="rgb(202 138 4)" transform="translate(107.07984924316406,191.74603271484375)"/>
<path d="M0 0 C1.26895111 -0.00563965 2.53790222 -0.0112793 3.8453064 -0.01708984 C5.25950679 -0.01320085 6.67370663 -0.00910449 8.08790588 -0.00482178 C9.5710009 -0.00753059 11.05409456 -0.0110909 12.53718567 -0.01544189 C16.57229732 -0.02458207 20.60730703 -0.02101476 24.64242053 -0.01468372 C28.85977125 -0.00963119 33.07711306 -0.01431318 37.29446411 -0.01745605 C44.37878491 -0.02109828 51.46306406 -0.0162903 58.54737854 -0.0067749 C66.74303574 0.00410595 74.93859342 0.0005878 83.1342482 -0.01042771 C90.16358526 -0.01949829 97.19289233 -0.02078686 104.22223336 -0.01555037 C108.42366897 -0.01242887 112.62505778 -0.01202618 116.8264904 -0.01862335 C120.77696779 -0.02439272 124.72731667 -0.02040747 128.67778015 -0.00883484 C130.12943368 -0.00618587 131.581098 -0.00695737 133.03274727 -0.01136017 C135.01092269 -0.01680755 136.98912169 -0.00877214 138.96728516 0 C140.62952952 0.00113108 140.62952952 0.00113108 142.32535458 0.002285 C145.0471344 0.25396729 145.0471344 0.25396729 148.0471344 2.25396729 C148.64479065 4.94927979 148.64479065 4.94927979 148.0471344 8.25396729 C146.15560009 10.86292754 143.85749316 12.96045806 141.4846344 15.12896729 C140.25156307 16.29027256 139.02109917 17.45435248 137.79322815 18.62115479 C137.1698053 19.21186768 136.54638245 19.80258057 135.90406799 20.41119385 C133.41302437 22.88324187 131.16068439 25.53088671 128.87550354 28.19195557 C124.92996322 32.64168631 120.60450446 36.7334017 116.36354065 40.89849854 C112.9783173 44.24699251 109.68268182 47.61057398 106.5783844 51.22271729 C101.92767241 56.62817339 96.80023944 61.54705528 91.7190094 66.54302979 C87.45224485 70.76625592 83.3581347 75.06024352 79.45729065 79.62506104 C78.37084342 80.88004302 77.22087785 82.08022384 76.0471344 83.25396729 C75.71459193 86.04567817 75.71459193 86.04567817 75.72828674 89.35601807 C75.70841705 90.63719513 75.68854736 91.91837219 75.66807556 93.2383728 C75.65619823 94.64200671 75.64453542 96.04564244 75.6330719 97.44927979 C75.61436748 98.88132859 75.59479462 100.3133663 75.5743866 101.74539185 C75.52298234 105.51661646 75.48340129 109.28787683 75.44624329 113.05926514 C75.4062554 116.90680854 75.35513936 120.75420211 75.3049469 124.60162354 C75.20808953 132.15230212 75.12371645 139.70305297 75.0471344 147.25396729 C76.02323669 147.23040161 76.02323669 147.23040161 77.01905823 147.20635986 C79.96582864 147.14402079 82.91246038 147.10498045 85.8596344 147.06646729 C86.88379456 147.04133057 87.90795471 147.01619385 88.96315002 146.99029541 C90.43751526 146.97579346 90.43751526 146.97579346 91.94166565 146.96099854 C93.30061951 146.93743286 93.30061951 146.93743286 94.68702698 146.91339111 C97.0471344 147.25396729 97.0471344 147.25396729 98.87794495 148.57696533 C100.0471344 150.25396729 100.0471344 150.25396729 99.8596344 153.37896729 C99.5915094 154.32771729 99.3233844 155.27646729 99.0471344 156.25396729 C96.51509481 157.51998708 94.74489326 157.3878085 91.91065979 157.39923096 C90.83937332 157.40561081 89.76808685 157.41199066 88.66433716 157.41856384 C86.92216164 157.42023308 86.92216164 157.42023308 85.14479065 157.42193604 C83.95614914 157.42526443 82.76750763 157.42859283 81.54284668 157.43202209 C79.02515552 157.43709228 76.50745762 157.43943039 73.98976135 157.43927002 C70.12921628 157.4414562 66.26895698 157.45961041 62.40846252 157.47857666 C59.96640621 157.48151056 57.52434854 157.48349538 55.08229065 157.48443604 C53.34315147 157.49521431 53.34315147 157.49521431 51.56887817 157.50621033 C49.95722023 157.50159538 49.95722023 157.50159538 48.31300354 157.49688721 C47.36639359 157.49831223 46.41978363 157.49973724 45.44448853 157.50120544 C43.0471344 157.25396729 43.0471344 157.25396729 40.0471344 155.25396729 C39.7346344 152.25396729 39.7346344 152.25396729 40.0471344 149.25396729 C42.0471344 147.25396729 42.0471344 147.25396729 44.38551331 147.0269165 C45.33861389 147.03739014 46.29171448 147.04786377 47.2736969 147.05865479 C48.8205719 147.06832275 48.8205719 147.06832275 50.3986969 147.07818604 C52.01904846 147.10332275 52.01904846 147.10332275 53.6721344 147.12896729 C54.76010315 147.13799072 55.8480719 147.14701416 56.9690094 147.15631104 C59.66193592 147.1799332 62.35442695 147.21287173 65.0471344 147.25396729 C65.26579511 139.16786571 65.40036857 131.08624056 65.43316555 122.99745846 C65.45092829 119.23935311 65.49558977 115.48592553 65.60597229 111.72930908 C66.81772423 92.57752223 66.81772423 92.57752223 58.93411255 76.0460968 C56.33732836 73.68946595 53.65164258 71.55744128 50.78813171 69.53475952 C48.56898601 67.90220986 46.8939564 66.02055858 45.1721344 63.87896729 C41.38944248 59.41114494 37.21887085 55.35570816 33.0471344 51.25396729 C28.10779613 46.39750382 23.33562299 41.50374952 18.8205719 36.25006104 C15.56523319 32.5860124 12.04261492 29.18691685 8.5471344 25.75396729 C3.62704766 20.9218964 -1.13024202 16.03808087 -5.62278748 10.80279541 C-6.37274528 9.92949653 -7.13889765 9.06793524 -7.9528656 8.25396729 C-8.1403656 5.31646729 -8.1403656 5.31646729 -7.9528656 2.25396729 C-5.23568407 -0.46321425 -3.80355077 0.00258901 0 0 Z M9.0471344 10.25396729 C17.89427612 22.78680167 17.89427612 22.78680167 31.44166565 28.63677979 C38.78264083 29.13119393 44.39683732 26.76082469 50.8830719 23.66412354 C61.38684335 18.98281305 71.66549871 21.31474258 82.0471344 25.25396729 C83.07322815 25.78248291 84.0993219 26.31099854 85.1565094 26.85552979 C89.61430509 29.01213905 93.19515675 29.08219465 98.0471344 28.25396729 C101.67384835 26.89394955 105.14636989 25.33241369 108.65260315 23.68756104 C111.7175832 22.39314483 114.08965619 21.81270898 117.3596344 21.44146729 C123.57228568 20.49360009 127.23734518 15.95638828 131.0471344 11.25396729 C131.0471344 10.92396729 131.0471344 10.59396729 131.0471344 10.25396729 C90.7871344 10.25396729 50.5271344 10.25396729 9.0471344 10.25396729 Z M51.5002594 33.16802979 C46.24208446 35.49569321 40.73245436 37.3369802 35.0471344 38.25396729 C40.31318344 44.65862153 46.15038757 50.43906559 52.0471344 56.25396729 C57.94388123 62.06886898 63.78108536 67.84931304 69.0471344 74.25396729 C75.04806875 69.28036681 80.55032121 63.90039308 86.0471344 58.37896729 C86.91080627 57.5191626 87.77447815 56.65935791 88.6643219 55.77349854 C95.18541107 49.24249889 101.36272912 42.53000604 107.0471344 35.25396729 C106.51346252 35.39834229 105.97979065 35.54271729 105.4299469 35.69146729 C93.90405265 38.56297035 85.71704006 37.07000311 74.92604065 32.32037354 C66.62586375 28.82995709 59.63327789 29.56188008 51.5002594 33.16802979 Z " fill="rgb(202 138 4)" transform="translate(265.95286560058594,191.74603271484375)"/>
<path d="M0 0 C1.27881042 -0.00563965 2.55762085 -0.0112793 3.87518311 -0.01708984 C5.3004156 -0.01320087 6.72564754 -0.00910451 8.15087891 -0.00482178 C9.64544852 -0.00753055 11.14001679 -0.01109084 12.63458252 -0.01544189 C16.70061752 -0.02458171 20.76655136 -0.02101512 24.8325882 -0.01468372 C29.08110331 -0.00963194 33.32960956 -0.01431288 37.578125 -0.01745605 C44.7137203 -0.02109811 51.84927425 -0.01629035 58.98486328 -0.0067749 C67.24302421 0.00411011 75.50108639 0.0005847 83.75924492 -0.01042771 C90.84037053 -0.0194938 97.92146636 -0.0207892 105.0025959 -0.01555037 C109.23585759 -0.01242693 113.46907281 -0.01203156 117.70233154 -0.01862335 C121.68153268 -0.02438635 125.6606061 -0.02041924 129.6397934 -0.00883484 C131.10315488 -0.00618263 132.56652706 -0.00696287 134.02988434 -0.01136017 C136.02154668 -0.01679473 138.01323242 -0.00878333 140.00488281 0 C141.12134186 0.00075405 142.2378009 0.0015081 143.38809204 0.002285 C146.00244141 0.25396729 146.00244141 0.25396729 148.00244141 2.25396729 C148.43417498 5.72502228 148.49093505 7.55461587 146.46118164 10.46051025 C145.7516333 11.13227295 145.04208496 11.80403564 144.31103516 12.49615479 C143.53050781 13.25283447 142.74998047 14.00951416 141.94580078 14.78912354 C141.11886719 15.56127197 140.29193359 16.33342041 139.43994141 17.12896729 C137.83209984 18.66555076 136.22660336 20.20459206 134.62353516 21.74615479 C133.83446777 22.50251221 133.04540039 23.25886963 132.23242188 24.03814697 C129.60092026 26.65293882 127.20068394 29.41296486 124.79174805 32.23101807 C120.6641012 36.89764131 116.11465092 41.17719753 111.67431641 45.54302979 C108.1767048 49.00495148 104.7546042 52.47101631 101.54931641 56.20709229 C97.37537453 61.06465556 92.81368536 65.5132217 88.25244141 70.00396729 C86.56780102 71.66304408 84.88541627 73.32441516 83.20556641 74.98834229 C82.46983398 75.71247314 81.73410156 76.436604 80.97607422 77.18267822 C76.96311002 81.39420572 75.62877552 83.61842093 75.57006836 89.58306885 C75.5502742 90.86409485 75.53048004 92.14512085 75.51008606 93.46496582 C75.50331678 94.85817315 75.49686986 96.25138207 75.49072266 97.64459229 C75.47387273 99.07378686 75.45572206 100.50296663 75.43632507 101.93212891 C75.38885245 105.68690366 75.35902571 109.44161845 75.33288574 113.19659424 C75.30306618 117.03094324 75.25654071 120.86508564 75.21142578 124.69927979 C75.12542396 132.21740638 75.05806514 139.73554805 75.00244141 147.25396729 C76.03183838 147.23825684 76.03183838 147.23825684 77.08203125 147.222229 C80.18046429 147.18074854 83.27883901 147.15466659 86.37744141 147.12896729 C87.45767578 147.11220947 88.53791016 147.09545166 89.65087891 147.07818604 C90.68212891 147.07174072 91.71337891 147.06529541 92.77587891 147.05865479 C94.20552979 147.04294434 94.20552979 147.04294434 95.6640625 147.0269165 C98.00244141 147.25396729 98.00244141 147.25396729 100.00244141 149.25396729 C100.25244141 151.75396729 100.25244141 151.75396729 100.00244141 154.25396729 C97.39438911 156.86201958 96.29862201 156.50688515 92.66650391 156.51275635 C91.55194824 156.51906067 90.43739258 156.52536499 89.2890625 156.53186035 C88.08072754 156.52781189 86.87239258 156.52376343 85.62744141 156.51959229 C83.7743335 156.52246246 83.7743335 156.52246246 81.88378906 156.52539062 C78.59652734 156.52710339 75.30945353 156.51903428 72.0222168 156.50787354 C70.00449611 156.50397126 67.9869494 156.50785899 65.96923828 156.51470947 C62.10522312 156.52702732 58.24146713 156.52557706 54.37744141 156.51959229 C53.16910645 156.52364075 51.96077148 156.52768921 50.71582031 156.53186035 C49.60126465 156.52555603 48.48670898 156.51925171 47.33837891 156.51275635 C46.35401855 156.51116516 45.3696582 156.50957397 44.35546875 156.50793457 C42.00244141 156.25396729 42.00244141 156.25396729 40.00244141 154.25396729 C39.75244141 151.75396729 39.75244141 151.75396729 40.00244141 149.25396729 C42.00244141 147.25396729 42.00244141 147.25396729 44.34082031 147.0269165 C45.2939209 147.03739014 46.24702148 147.04786377 47.22900391 147.05865479 C48.77587891 147.06832275 48.77587891 147.06832275 50.35400391 147.07818604 C51.97435547 147.10332275 51.97435547 147.10332275 53.62744141 147.12896729 C54.71541016 147.13799072 55.80337891 147.14701416 56.92431641 147.15631104 C59.61724292 147.1799332 62.30973396 147.21287173 65.00244141 147.25396729 C65.12735937 139.11606137 65.19157221 130.98077061 65.18122387 122.84202194 C65.17826189 119.06138273 65.19512703 115.28313023 65.25952148 111.50299072 C65.32106844 107.84501864 65.32763758 104.19047376 65.29827309 100.53214264 C65.29638957 99.14640865 65.31333946 97.76049943 65.35066795 96.37526703 C65.53424525 89.09072121 65.02045054 83.71849781 60.19898701 78.15889359 C57.89259513 75.74143404 55.4792183 73.49843645 53.00244141 71.25396729 C51.47941487 69.72484548 49.96222274 68.18984632 48.45556641 66.64459229 C47.05719806 65.26167552 45.65621165 63.88140037 44.25244141 62.50396729 C40.21688158 58.54245443 36.2372302 54.59138411 32.54931641 50.30084229 C28.60012651 45.71330866 24.31660149 41.49574213 20.00244141 37.25396729 C15.01653871 32.35172067 10.20424748 27.409519 5.65039062 22.1026001 C4.06773387 20.32721092 2.42655147 18.68670555 0.69384766 17.05865479 C0.175 16.5701001 -0.34384766 16.08154541 -0.87841797 15.57818604 C-1.93476478 14.59473643 -3.00025333 13.62103304 -4.07373047 12.65631104 C-6.72743197 10.12673969 -7.93400753 8.68989604 -8.47021484 5.01177979 C-7.54911223 -0.36258751 -4.80733791 0.00324685 0 0 Z M9.00244141 10.25396729 C19.37021424 23.32615828 19.37021424 23.32615828 34.31494141 28.62896729 C40.03410828 28.0473571 44.91672493 25.59485135 50.15087891 23.32037354 C59.90978075 19.52927598 69.98088556 20.24743716 79.55322266 24.16021729 C81.07501058 24.8398036 82.59385112 25.52608159 84.10791016 26.22271729 C89.60261699 28.59169269 94.18246437 28.69600907 100.00244141 27.25396729 C102.80354834 26.08886918 105.49707203 24.78786169 108.20947266 23.42974854 C111.11098655 22.20827206 113.51036863 21.83002092 116.62744141 21.50396729 C123.28106481 20.55618496 126.95647188 16.35888192 131.00244141 11.25396729 C131.00244141 10.92396729 131.00244141 10.59396729 131.00244141 10.25396729 C90.74244141 10.25396729 50.48244141 10.25396729 9.00244141 10.25396729 Z M46.60791016 34.84381104 C42.58542276 36.41706992 39.28403532 36.88185956 35.00244141 37.25396729 C38.46803515 41.44915971 42.06749516 45.36631809 45.93994141 49.19146729 C48.89179933 52.10818404 51.74798178 55.03359157 54.43994141 58.19146729 C58.98312377 63.51004856 64.01965086 68.35227097 69.00244141 73.25396729 C72.12568685 71.86767485 74.24434847 70.25885158 76.64697266 67.83990479 C77.324375 67.16056885 78.00177734 66.48123291 78.69970703 65.78131104 C79.39773438 65.0710376 80.09576172 64.36076416 80.81494141 63.62896729 C81.50136719 62.94189697 82.18779297 62.25482666 82.89501953 61.54693604 C86.86677594 57.54136146 90.64082481 53.4202217 94.32592773 49.15093994 C96.9091561 46.22802099 99.66007662 43.48848923 102.43994141 40.75396729 C102.98070312 40.21771729 103.52146484 39.68146729 104.07861328 39.12896729 C105.38420757 37.83492693 106.69297137 36.54408555 108.00244141 35.25396729 C107.01244141 34.75896729 107.01244141 34.75896729 106.00244141 34.25396729 C105.32181641 34.54271729 104.64119141 34.83146729 103.93994141 35.12896729 C96.60021176 37.93992757 89.43978187 37.58725057 82.00244141 35.25396729 C80.21958887 34.40372465 78.44890257 33.52759476 76.68994141 32.62896729 C65.92149315 27.56945794 56.83854432 30.12455449 46.60791016 34.84381104 Z " fill="rgb(202 138 4)" transform="translate(185.99755859375,355.74603271484375)"/>
<path d="M0 0 C1.27881042 -0.00563965 2.55762085 -0.0112793 3.87518311 -0.01708984 C5.3004156 -0.01320087 6.72564754 -0.00910451 8.15087891 -0.00482178 C9.64544852 -0.00753055 11.14001679 -0.01109084 12.63458252 -0.01544189 C16.70061752 -0.02458171 20.76655136 -0.02101512 24.8325882 -0.01468372 C29.08110331 -0.00963194 33.32960956 -0.01431288 37.578125 -0.01745605 C44.7137203 -0.02109811 51.84927425 -0.01629035 58.98486328 -0.0067749 C67.24302421 0.00411011 75.50108639 0.0005847 83.75924492 -0.01042771 C90.84037053 -0.0194938 97.92146636 -0.0207892 105.0025959 -0.01555037 C109.23585759 -0.01242693 113.46907281 -0.01203156 117.70233154 -0.01862335 C121.68153268 -0.02438635 125.6606061 -0.02041924 129.6397934 -0.00883484 C131.10315488 -0.00618263 132.56652706 -0.00696287 134.02988434 -0.01136017 C136.02154668 -0.01679473 138.01323242 -0.00878333 140.00488281 0 C141.12134186 0.00075405 142.2378009 0.0015081 143.38809204 0.002285 C146.00244141 0.25396729 146.00244141 0.25396729 148.00244141 2.25396729 C148.43417498 5.72502228 148.49093505 7.55461587 146.46118164 10.46051025 C145.7516333 11.13227295 145.04208496 11.80403564 144.31103516 12.49615479 C143.53050781 13.25283447 142.74998047 14.00951416 141.94580078 14.78912354 C141.11886719 15.56127197 140.29193359 16.33342041 139.43994141 17.12896729 C137.83209984 18.66555076 136.22660336 20.20459206 134.62353516 21.74615479 C133.83446777 22.50251221 133.04540039 23.25886963 132.23242188 24.03814697 C129.60092026 26.65293882 127.20068394 29.41296486 124.79174805 32.23101807 C120.6641012 36.89764131 116.11465092 41.17719753 111.67431641 45.54302979 C108.16502158 49.01651548 104.73254694 52.49575438 101.51416016 56.24224854 C97.52267438 60.88728402 93.17908402 65.14928086 88.81494141 69.44146729 C87.23572432 70.9950269 85.65882471 72.55094647 84.08447266 74.10943604 C83.05157104 75.1249353 83.05157104 75.1249353 81.99780273 76.16094971 C77.67091962 80.69959757 75.50750725 83.23687116 75.45654297 89.69659424 C75.43682434 90.97754471 75.41710571 92.25849518 75.39678955 93.57826233 C75.39512664 94.96625729 75.39389564 96.35425283 75.39306641 97.74224854 C75.37807781 99.1700172 75.36134923 100.59776857 75.34295654 102.02549744 C75.29934608 105.77209285 75.27929827 109.5184544 75.26422119 113.26525879 C75.24462707 117.09301546 75.20265977 120.92052042 75.16259766 124.74810791 C75.08736409 132.24999326 75.03703156 139.75177273 75.00244141 147.25396729 C76.03183838 147.23825684 76.03183838 147.23825684 77.08203125 147.222229 C80.18046429 147.18074854 83.27883901 147.15466659 86.37744141 147.12896729 C87.45767578 147.11220947 88.53791016 147.09545166 89.65087891 147.07818604 C90.68212891 147.07174072 91.71337891 147.06529541 92.77587891 147.05865479 C94.20552979 147.04294434 94.20552979 147.04294434 95.6640625 147.0269165 C98.00244141 147.25396729 98.00244141 147.25396729 100.00244141 149.25396729 C100.25244141 151.75396729 100.25244141 151.75396729 100.00244141 154.25396729 C97.39438911 156.86201958 96.29862201 156.50688515 92.66650391 156.51275635 C91.55194824 156.51906067 90.43739258 156.52536499 89.2890625 156.53186035 C88.08072754 156.52781189 86.87239258 156.52376343 85.62744141 156.51959229 C83.7743335 156.52246246 83.7743335 156.52246246 81.88378906 156.52539062 C78.59652734 156.52710339 75.30945353 156.51903428 72.0222168 156.50787354 C70.00449611 156.50397126 67.9869494 156.50785899 65.96923828 156.51470947 C62.10522312 156.52702732 58.24146713 156.52557706 54.37744141 156.51959229 C53.16910645 156.52364075 51.96077148 156.52768921 50.71582031 156.53186035 C49.60126465 156.52555603 48.48670898 156.51925171 47.33837891 156.51275635 C46.35401855 156.51116516 45.3696582 156.50957397 44.35546875 156.50793457 C42.00244141 156.25396729 42.00244141 156.25396729 40.00244141 154.25396729 C39.75244141 151.75396729 39.75244141 151.75396729 40.00244141 149.25396729 C42.00244141 147.25396729 42.00244141 147.25396729 44.34082031 147.0269165 C45.2939209 147.03739014 46.24702148 147.04786377 47.22900391 147.05865479 C48.77587891 147.06832275 48.77587891 147.06832275 50.35400391 147.07818604 C51.97435547 147.10332275 51.97435547 147.10332275 53.62744141 147.12896729 C54.71541016 147.13799072 55.80337891 147.14701416 56.92431641 147.15631104 C59.61724292 147.1799332 62.30973396 147.21287173 65.00244141 147.25396729 C65.12735937 139.11606137 65.19157221 130.98077061 65.18122387 122.84202194 C65.17826189 119.06138273 65.19512703 115.28313023 65.25952148 111.50299072 C65.32106844 107.84501864 65.32763758 104.19047376 65.29827309 100.53214264 C65.29638957 99.14640865 65.31333946 97.76049943 65.35066795 96.37526703 C65.53449067 89.08098293 65.0162325 83.71372428 60.18830585 78.14821243 C57.88522071 75.73444056 55.47639697 73.49409887 53.00244141 71.25396729 C51.55230716 69.79778316 50.10787336 68.33584899 48.67431641 66.86334229 C47.36971814 65.57415266 46.06249721 64.28761067 44.75244141 63.00396729 C40.89193542 59.21945551 37.10607965 55.4336963 33.58056641 51.33209229 C29.61926516 46.73555131 25.32712752 42.50609155 21.00244141 38.25396729 C16.02676398 33.36177438 11.22605146 28.42976091 6.68164062 23.1338501 C5.01955925 21.2731309 3.28902459 19.55202714 1.47509766 17.83990479 C0.91113281 17.30623291 0.34716797 16.77256104 -0.23388672 16.22271729 C-1.38650066 15.14288609 -2.54831388 14.07280587 -3.71826172 13.01177979 C-6.58497084 10.26826258 -7.88141379 9.0084583 -8.50146484 4.98052979 C-7.51491477 -0.35754736 -4.79893044 0.00324118 0 0 Z M9.00244141 10.25396729 C19.37021424 23.32615828 19.37021424 23.32615828 34.31494141 28.62896729 C40.03410828 28.0473571 44.91672493 25.59485135 50.15087891 23.32037354 C59.90978075 19.52927598 69.98088556 20.24743716 79.55322266 24.16021729 C81.07501058 24.8398036 82.59385112 25.52608159 84.10791016 26.22271729 C89.60261699 28.59169269 94.18246437 28.69600907 100.00244141 27.25396729 C102.80354834 26.08886918 105.49707203 24.78786169 108.20947266 23.42974854 C111.11098655 22.20827206 113.51036863 21.83002092 116.62744141 21.50396729 C123.28106481 20.55618496 126.95647188 16.35888192 131.00244141 11.25396729 C131.00244141 10.92396729 131.00244141 10.59396729 131.00244141 10.25396729 C90.74244141 10.25396729 50.48244141 10.25396729 9.00244141 10.25396729 Z M46.60791016 34.84381104 C42.58542276 36.41706992 39.28403532 36.88185956 35.00244141 37.25396729 C38.46803515 41.44915971 42.06749516 45.36631809 45.93994141 49.19146729 C48.89179933 52.10818404 51.74798178 55.03359157 54.43994141 58.19146729 C58.98312377 63.51004856 64.01965086 68.35227097 69.00244141 73.25396729 C72.12568685 71.86767485 74.24434847 70.25885158 76.64697266 67.83990479 C77.324375 67.16056885 78.00177734 66.48123291 78.69970703 65.78131104 C79.39773437 65.0710376 80.09576172 64.36076416 80.81494141 63.62896729 C81.50136719 62.94189697 82.18779297 62.25482666 82.89501953 61.54693604 C86.86677594 57.54136146 90.64082481 53.4202217 94.32592773 49.15093994 C96.9091561 46.22802099 99.66007662 43.48848923 102.43994141 40.75396729 C102.98070313 40.21771729 103.52146484 39.68146729 104.07861328 39.12896729 C105.38420757 37.83492693 106.69297137 36.54408555 108.00244141 35.25396729 C107.01244141 34.75896729 107.01244141 34.75896729 106.00244141 34.25396729 C105.32181641 34.54271729 104.64119141 34.83146729 103.93994141 35.12896729 C96.60021176 37.93992757 89.43978187 37.58725057 82.00244141 35.25396729 C80.21958887 34.40372465 78.44890257 33.52759476 76.68994141 32.62896729 C65.92149315 27.56945794 56.83854432 30.12455449 46.60791016 34.84381104 Z " fill="rgb(202 138 4)" transform="translate(24.99755859375,355.74603271484375)"/>
<path d="M0 0 C1.27881042 -0.00563965 2.55762085 -0.0112793 3.87518311 -0.01708984 C5.3004156 -0.01320087 6.72564754 -0.00910451 8.15087891 -0.00482178 C9.64544852 -0.00753055 11.14001679 -0.01109084 12.63458252 -0.01544189 C16.70061752 -0.02458171 20.76655136 -0.02101512 24.8325882 -0.01468372 C29.08110331 -0.00963194 33.32960956 -0.01431288 37.578125 -0.01745605 C44.7137203 -0.02109811 51.84927425 -0.01629035 58.98486328 -0.0067749 C67.24302421 0.00411011 75.50108639 0.0005847 83.75924492 -0.01042771 C90.84037053 -0.0194938 97.92146636 -0.0207892 105.0025959 -0.01555037 C109.23585759 -0.01242693 113.46907281 -0.01203156 117.70233154 -0.01862335 C121.68153268 -0.02438635 125.6606061 -0.02041924 129.6397934 -0.00883484 C131.10315488 -0.00618263 132.56652706 -0.00696287 134.02988434 -0.01136017 C136.02154668 -0.01679473 138.01323242 -0.00878333 140.00488281 0 C141.12134186 0.00075405 142.2378009 0.0015081 143.38809204 0.002285 C146.00244141 0.25396729 146.00244141 0.25396729 148.00244141 2.25396729 C148.46454345 5.81456587 148.47508758 7.58877203 146.36938477 10.55230713 C145.61794189 11.26596436 144.86649902 11.97962158 144.09228516 12.71490479 C143.26664063 13.51670166 142.44099609 14.31849854 141.59033203 15.14459229 C140.71570313 15.96443604 139.84107422 16.78427979 138.93994141 17.62896729 C137.23839118 19.25935001 135.53913942 20.89213519 133.84228516 22.52740479 C133.01196777 23.32501221 132.18165039 24.12261963 131.32617188 24.94439697 C128.65680683 27.59749566 126.21631578 30.38829669 123.77416992 33.24859619 C119.65485403 37.91113729 115.10850331 42.18324199 110.67431641 46.54302979 C107.16631967 50.01523064 103.73499903 53.49300662 100.51806641 57.23834229 C96.50641072 61.90703962 92.13851032 66.18980114 87.75244141 70.50396729 C86.16154529 72.06928629 84.57291273 73.63690997 82.98681641 75.20709229 C82.29297852 75.88932861 81.59914063 76.57156494 80.88427734 77.2744751 C76.91818386 81.44638558 75.62814459 83.68252418 75.57006836 89.58306885 C75.5502742 90.86409485 75.53048004 92.14512085 75.51008606 93.46496582 C75.50331678 94.85817315 75.49686986 96.25138207 75.49072266 97.64459229 C75.47387273 99.07378686 75.45572206 100.50296663 75.43632507 101.93212891 C75.38885245 105.68690366 75.35902571 109.44161845 75.33288574 113.19659424 C75.30306618 117.03094324 75.25654071 120.86508564 75.21142578 124.69927979 C75.12542396 132.21740638 75.05806514 139.73554805 75.00244141 147.25396729 C76.03183838 147.23825684 76.03183838 147.23825684 77.08203125 147.222229 C80.18046429 147.18074854 83.27883901 147.15466659 86.37744141 147.12896729 C87.45767578 147.11220947 88.53791016 147.09545166 89.65087891 147.07818604 C90.68212891 147.07174072 91.71337891 147.06529541 92.77587891 147.05865479 C94.20552979 147.04294434 94.20552979 147.04294434 95.6640625 147.0269165 C98.00244141 147.25396729 98.00244141 147.25396729 100.00244141 149.25396729 C100.25244141 151.75396729 100.25244141 151.75396729 100.00244141 154.25396729 C97.39438911 156.86201958 96.29862201 156.50688515 92.66650391 156.51275635 C91.55194824 156.51906067 90.43739258 156.52536499 89.2890625 156.53186035 C88.08072754 156.52781189 86.87239258 156.52376343 85.62744141 156.51959229 C83.7743335 156.52246246 83.7743335 156.52246246 81.88378906 156.52539062 C78.59652734 156.52710339 75.30945353 156.51903428 72.0222168 156.50787354 C70.00449611 156.50397126 67.9869494 156.50785899 65.96923828 156.51470947 C62.10522312 156.52702732 58.24146713 156.52557706 54.37744141 156.51959229 C53.16910645 156.52364075 51.96077148 156.52768921 50.71582031 156.53186035 C49.60126465 156.52555603 48.48670898 156.51925171 47.33837891 156.51275635 C46.35401855 156.51116516 45.3696582 156.50957397 44.35546875 156.50793457 C42.00244141 156.25396729 42.00244141 156.25396729 40.00244141 154.25396729 C39.75244141 151.75396729 39.75244141 151.75396729 40.00244141 149.25396729 C42.00244141 147.25396729 42.00244141 147.25396729 44.34082031 147.0269165 C45.2939209 147.03739014 46.24702148 147.04786377 47.22900391 147.05865479 C48.77587891 147.06832275 48.77587891 147.06832275 50.35400391 147.07818604 C51.97435547 147.10332275 51.97435547 147.10332275 53.62744141 147.12896729 C54.71541016 147.13799072 55.80337891 147.14701416 56.92431641 147.15631104 C59.61724292 147.1799332 62.30973396 147.21287173 65.00244141 147.25396729 C65.15078308 139.13331888 65.2325806 131.01570604 65.23303604 122.89383411 C65.23526203 119.12083513 65.25907644 115.35072364 65.33496094 111.57843018 C66.54260085 93.14121962 66.54260085 93.14121962 60.04307556 76.78652954 C57.52398641 74.3232268 54.86719229 72.31204944 52.00244141 70.25396729 C50.49881155 68.78638865 49.01982476 67.29276354 47.57666016 65.76568604 C46.2838119 64.48818316 44.98833388 63.21333488 43.68994141 61.94146729 C39.85135287 58.17896573 36.08979809 54.41395119 32.58447266 50.33599854 C28.6216594 45.73833041 24.32844308 41.50738504 20.00244141 37.25396729 C15.01653871 32.35172067 10.20424748 27.409519 5.65039062 22.1026001 C4.06773387 20.32721092 2.42655147 18.68670555 0.69384766 17.05865479 C0.175 16.5701001 -0.34384766 16.08154541 -0.87841797 15.57818604 C-1.93476478 14.59473643 -3.00025333 13.62103304 -4.07373047 12.65631104 C-6.72743197 10.12673969 -7.93400753 8.68989604 -8.47021484 5.01177979 C-7.54911223 -0.36258751 -4.80733791 0.00324685 0 0 Z M9.00244141 10.25396729 C10.98244141 12.56396729 12.96244141 14.87396729 15.00244141 17.25396729 C15.59669922 18.02224854 16.19095703 18.79052979 16.80322266 19.58209229 C21.78884488 25.92040271 26.58543827 27.69180325 34.43994141 28.69146729 C40.08039822 27.99877961 44.97215575 25.57076414 50.15087891 23.32037354 C59.90978075 19.52927598 69.98088556 20.24743716 79.55322266 24.16021729 C81.07501058 24.8398036 82.59385112 25.52608159 84.10791016 26.22271729 C89.60261699 28.59169269 94.18246437 28.69600907 100.00244141 27.25396729 C102.80354834 26.08886918 105.49707203 24.78786169 108.20947266 23.42974854 C111.11098655 22.20827206 113.51036863 21.83002092 116.62744141 21.50396729 C123.28106481 20.55618496 126.95647188 16.35888192 131.00244141 11.25396729 C131.00244141 10.92396729 131.00244141 10.59396729 131.00244141 10.25396729 C90.74244141 10.25396729 50.48244141 10.25396729 9.00244141 10.25396729 Z M46.15869141 34.85162354 C42.29894815 36.56653422 39.18887477 37.08650995 35.00244141 37.25396729 C38.32486836 41.25791771 41.73478326 45.03706473 45.43994141 48.69146729 C48.18505478 51.40010075 50.81653248 54.12931337 53.31494141 57.06646729 C58.20600612 62.78043625 63.648463 67.97911171 69.00244141 73.25396729 C72.12568685 71.86767485 74.24434847 70.25885158 76.64697266 67.83990479 C77.324375 67.16056885 78.00177734 66.48123291 78.69970703 65.78131104 C79.39773438 65.0710376 80.09576172 64.36076416 80.81494141 63.62896729 C81.50136719 62.94189697 82.18779297 62.25482666 82.89501953 61.54693604 C86.86677594 57.54136146 90.64082481 53.4202217 94.32592773 49.15093994 C96.9091561 46.22802099 99.66007662 43.48848923 102.43994141 40.75396729 C102.98070312 40.21771729 103.52146484 39.68146729 104.07861328 39.12896729 C105.38420757 37.83492693 106.69297137 36.54408555 108.00244141 35.25396729 C107.01244141 34.75896729 107.01244141 34.75896729 106.00244141 34.25396729 C105.32181641 34.54271729 104.64119141 34.83146729 103.93994141 35.12896729 C96.60219724 37.93916718 89.43761278 37.59009364 82.00244141 35.25396729 C80.24088988 34.40246202 78.49108058 33.52632944 76.75244141 32.62896729 C65.9089171 27.51985246 56.55301082 29.87686481 46.15869141 34.85162354 Z " fill="rgb(202 138 4)" transform="translate(346.99755859375,355.74603271484375)"/>
<path d="M0 0 C50.82 0 101.64 0 154 0 C155 7 155 7 153.90039062 9.09960938 C153.32482422 9.67517578 152.74925781 10.25074219 152.15625 10.84375 C151.5065625 11.51277344 150.856875 12.18179688 150.1875 12.87109375 C149.465625 13.57363281 148.74375 14.27617188 148 15 C146.88625 16.13115234 146.88625 16.13115234 145.75 17.28515625 C142.53988238 20.53272525 139.28179529 23.73055534 136.02734375 26.93359375 C131.7652762 31.1546141 127.69341441 35.43968391 123.78710938 39.99023438 C119.64943836 44.6434185 115.10991768 48.92548362 110.671875 53.2890625 C106.62839507 57.29128243 102.73400772 61.2985831 99.16650391 65.73388672 C97.31054983 67.67517201 95.68872718 68.95522078 93.50146484 70.45751953 C87.99343778 74.53892132 83.81271206 78.47628065 82.22668457 85.35290527 C81.14841062 94.42209046 81.33582011 103.51437239 81.57513428 112.62927246 C81.65879785 116.39710291 81.66163113 120.16497517 81.671875 123.93359375 C81.70348555 131.29137612 81.8228531 138.64412655 82 146 C82.92280762 145.97643433 82.92280762 145.97643433 83.86425781 145.95239258 C86.65941121 145.88992074 89.45441755 145.85097132 92.25 145.8125 C93.21808594 145.78736328 94.18617188 145.76222656 95.18359375 145.73632812 C96.58544922 145.72182617 96.58544922 145.72182617 98.015625 145.70703125 C98.87446289 145.6913208 99.73330078 145.67561035 100.61816406 145.65942383 C103.5326464 146.07616254 104.88912479 146.97552257 107 149 C107.375 151.5625 107.375 151.5625 107 154 C104.3919477 156.6080523 103.2961806 156.25291786 99.6640625 156.25878906 C98.54950684 156.26509338 97.43495117 156.27139771 96.28662109 156.27789307 C95.07828613 156.2738446 93.86995117 156.26979614 92.625 156.265625 C90.77189209 156.26849518 90.77189209 156.26849518 88.88134766 156.27142334 C85.59408593 156.2731361 82.30701213 156.26506699 79.01977539 156.25390625 C77.0020547 156.25000397 74.98450799 156.25389171 72.96679688 156.26074219 C69.10278172 156.27306004 65.23902572 156.27160978 61.375 156.265625 C60.16666504 156.26967346 58.95833008 156.27372192 57.71337891 156.27789307 C56.59882324 156.27158875 55.48426758 156.26528442 54.3359375 156.25878906 C53.35157715 156.25719788 52.3672168 156.25560669 51.35302734 156.25396729 C49 156 49 156 47 154 C46.625 151.5625 46.625 151.5625 47 149 C49.93824459 146.18201727 51.96921763 145.63358325 55.984375 145.70703125 C56.91894531 145.71669922 57.85351562 145.72636719 58.81640625 145.73632812 C59.78449219 145.76146484 60.75257813 145.78660156 61.75 145.8125 C62.73355469 145.82603516 63.71710938 145.83957031 64.73046875 145.85351562 C67.15420415 145.88881274 69.57682145 145.93811946 72 146 C72.33676473 138.00040157 72.55870482 130.00838326 72.64509201 122.00255203 C72.6886193 118.28184379 72.76758463 114.56985346 72.93603516 110.85253906 C74.06327996 92.21938251 74.06327996 92.21938251 66.67382812 75.74023438 C62.58013699 71.3905619 58.12432874 67.6344635 53.40734863 63.98205566 C49.81445363 61.02389755 46.96822964 57.5628382 44 54 C42.56158798 52.5014537 41.10650299 51.01845983 39.625 49.5625 C38.86703125 48.81226563 38.1090625 48.06203125 37.328125 47.2890625 C36.55984375 46.53367188 35.7915625 45.77828125 35 45 C26.43242612 36.57617736 26.43242612 36.57617736 22.5546875 32.03515625 C19.91229923 28.95592768 17.12211402 26.11921602 14.1953125 23.30859375 C13.36515625 22.50873047 12.535 21.70886719 11.6796875 20.88476562 C9.96236208 19.2396519 8.23559438 17.60434399 6.5 15.97851562 C-0.44885996 9.23115082 -0.44885996 9.23115082 -1.1328125 5.03515625 C-1 2 -1 2 0 0 Z M16 10 C26.40286866 22.85345224 26.40286866 22.85345224 41.375 28.4375 C47.03060681 27.75492676 51.9342947 25.3543504 57.11328125 23.06640625 C66.30973379 19.44671024 76.48246013 19.55776931 85.5625 23.375 C86.47128906 23.81585938 87.38007813 24.25671875 88.31640625 24.7109375 C94.91597875 27.88103783 99.89057864 28.62324939 107 27 C109.80494943 25.84072899 112.49353557 24.5344427 115.20703125 23.17578125 C118.10854515 21.95430477 120.50792722 21.57605364 123.625 21.25 C130.22979666 20.29966955 134.08194183 16.18538068 138 11 C138 10.34 138 9.68 138 9 C126.10417739 8.96945189 114.20835618 8.9490424 102.3125 8.9375 C101.43647251 8.93664398 100.56044502 8.93578796 99.65787125 8.93490601 C71.75929381 8.91081123 43.88705379 9.11997212 16 10 Z M57 33 C52.02443023 34.78809538 47.27011094 36.32434475 42 37 C47.3817597 43.48394409 53.275341 49.33642789 59.27929688 55.24023438 C63.53067572 59.4484885 67.61487115 63.72070939 71.49438477 68.27563477 C72.934097 69.92452199 74.43401011 71.47151183 76 73 C78.97636205 71.66420352 81.03951858 70.20765397 83.3125 67.875 C84.11107422 67.06675781 84.11107422 67.06675781 84.92578125 66.2421875 C86.71434982 64.30878193 88.42937316 62.33779401 90.14453125 60.33984375 C95.07385142 54.67901692 100.481758 49.50556328 105.85546875 44.27148438 C106.63277344 43.50513672 107.41007812 42.73878906 108.2109375 41.94921875 C108.91524902 41.26174561 109.61956055 40.57427246 110.34521484 39.8659668 C112.21824902 38.00001627 112.21824902 38.00001627 113 35 C112.14664063 35.15726563 111.29328125 35.31453125 110.4140625 35.4765625 C99.26552995 37.18583408 91.09774364 35.80056665 81 31 C71.86644387 27.60265856 65.76102957 29.61726914 57 33 Z " fill="rgb(202 138 4)" transform="translate(179,29)"/>
<path d="M0 0 C1.423125 0.4021875 1.423125 0.4021875 2.875 0.8125 C4.29014574 3.64279148 4.08280992 6.09629133 4.125 9.25 C4.16367188 10.98056641 4.16367188 10.98056641 4.203125 12.74609375 C3.875 15.8125 3.875 15.8125 2.5546875 17.734375 C0.875 18.8125 0.875 18.8125 -2.25 18.625 C-3.19875 18.356875 -4.1475 18.08875 -5.125 17.8125 C-6.54014574 14.98220852 -6.33280992 12.52870867 -6.375 9.375 C-6.41367188 7.64443359 -6.41367188 7.64443359 -6.453125 5.87890625 C-6.125 2.8125 -6.125 2.8125 -4.8046875 0.890625 C-3.125 -0.1875 -3.125 -0.1875 0 0 Z " fill="rgb(202 138 4)" transform="translate(119.125,32.1875)"/>
<path d="M0 0 C1.73056641 -0.02513672 1.73056641 -0.02513672 3.49609375 -0.05078125 C6.5625 0.3125 6.5625 0.3125 8.484375 1.63671875 C9.5625 3.3125 9.5625 3.3125 9.375 6.4375 C9.106875 7.38625 8.83875 8.335 8.5625 9.3125 C5.73220852 10.72764574 3.27870867 10.52030992 0.125 10.5625 C-1.02871094 10.58828125 -2.18242187 10.6140625 -3.37109375 10.640625 C-6.4375 10.3125 -6.4375 10.3125 -8.359375 8.95703125 C-9.4375 7.3125 -9.4375 7.3125 -9.25 4.75 C-7.55009277 -0.3497217 -4.89535997 0.01637244 0 0 Z " fill="rgb(202 138 4)" transform="translate(388.4375,289.6875)"/>
<path d="M0 0 C1.73056641 -0.02513672 1.73056641 -0.02513672 3.49609375 -0.05078125 C6.5625 0.3125 6.5625 0.3125 8.484375 1.63671875 C9.5625 3.3125 9.5625 3.3125 9.375 6.4375 C9.106875 7.38625 8.83875 8.335 8.5625 9.3125 C5.73220852 10.72764574 3.27870867 10.52030992 0.125 10.5625 C-1.02871094 10.58828125 -2.18242187 10.6140625 -3.37109375 10.640625 C-6.4375 10.3125 -6.4375 10.3125 -8.359375 8.95703125 C-9.4375 7.3125 -9.4375 7.3125 -9.25 4.75 C-7.55009277 -0.3497217 -4.89535997 0.01637244 0 0 Z " fill="rgb(202 138 4)" transform="translate(388.4375,108.6875)"/>
<path d="M0 0 C1.26714844 -0.01417969 2.53429687 -0.02835937 3.83984375 -0.04296875 C7.0625 0.1875 7.0625 0.1875 9.0625 2.1875 C8.8125 5.75 8.8125 5.75 8.0625 9.1875 C5.37682703 10.53033649 3.18503147 10.43037519 0.1875 10.5 C-1.38644531 10.55607422 -1.38644531 10.55607422 -2.9921875 10.61328125 C-6.57646444 10.09512981 -7.68777959 8.94259239 -9.9375 6.1875 C-7.51945278 -0.09942276 -6.83881391 0.03471479 0 0 Z " fill="rgb(202 138 4)" transform="translate(82.9375,270.8125)"/>
<path d="M0 0 C5.875 0.875 5.875 0.875 7 2 C7.15313272 4.4942965 7.23156517 6.94188493 7.25 9.4375 C7.270625 10.13166016 7.29125 10.82582031 7.3125 11.54101562 C7.328125 13.55859375 7.328125 13.55859375 7 17 C4 19 4 19 1.4375 18.8125 C-1 18 -1 18 -3 15 C-3.30078125 12.44140625 -3.30078125 12.44140625 -3.3125 9.5625 C-3.32925781 8.61503906 -3.34601563 7.66757812 -3.36328125 6.69140625 C-2.94988891 3.62874691 -2.03729471 2.27381441 0 0 Z " fill="rgb(202 138 4)" transform="translate(404,268)"/>
<path d="M0 0 C5.875 0.875 5.875 0.875 7 2 C7.15313272 4.4942965 7.23156517 6.94188493 7.25 9.4375 C7.270625 10.13166016 7.29125 10.82582031 7.3125 11.54101562 C7.328125 13.55859375 7.328125 13.55859375 7 17 C4 19 4 19 1.4375 18.8125 C-1 18 -1 18 -3 15 C-3.30078125 12.44140625 -3.30078125 12.44140625 -3.3125 9.5625 C-3.32925781 8.61503906 -3.34601563 7.66757813 -3.36328125 6.69140625 C-2.94988891 3.62874691 -2.03729471 2.27381441 0 0 Z " fill="rgb(202 138 4)" transform="translate(404,87)"/>
<path d="M0 0 C1.051875 -0.00515625 2.10375 -0.0103125 3.1875 -0.015625 C6 0.25 6 0.25 9 2.25 C9.3125 5.25 9.3125 5.25 9 8.25 C7 10.25 7 10.25 3.8125 10.515625 C1.9253125 10.50789063 1.9253125 10.50789063 0 10.5 C-1.258125 10.50515625 -2.51625 10.5103125 -3.8125 10.515625 C-7 10.25 -7 10.25 -9 8.25 C-9.3125 5.25 -9.3125 5.25 -9 2.25 C-5.53767506 -0.05821663 -4.08201684 -0.02000989 0 0 Z " fill="rgb(202 138 4)" transform="translate(424,289.75)"/>
<path d="M0 0 C1.8871875 0.00773437 1.8871875 0.00773437 3.8125 0.015625 C5.070625 0.01046875 6.32875 0.0053125 7.625 0 C10.8125 0.265625 10.8125 0.265625 12.8125 2.265625 C13.125 5.265625 13.125 5.265625 12.8125 8.265625 C9.35017506 10.57384163 7.89451684 10.53563489 3.8125 10.515625 C2.760625 10.52078125 1.70875 10.5259375 0.625 10.53125 C-2.1875 10.265625 -2.1875 10.265625 -5.1875 8.265625 C-5.5 5.265625 -5.5 5.265625 -5.1875 2.265625 C-3.1875 0.265625 -3.1875 0.265625 0 0 Z " fill="rgb(202 138 4)" transform="translate(114.1875,270.734375)"/>
<path d="M0 0 C1.051875 -0.00515625 2.10375 -0.0103125 3.1875 -0.015625 C6 0.25 6 0.25 9 2.25 C9.3125 5.25 9.3125 5.25 9 8.25 C7 10.25 7 10.25 3.8125 10.515625 C1.9253125 10.50789063 1.9253125 10.50789063 0 10.5 C-1.258125 10.50515625 -2.51625 10.5103125 -3.8125 10.515625 C-7 10.25 -7 10.25 -9 8.25 C-9.3125 5.25 -9.3125 5.25 -9 2.25 C-5.53767506 -0.05821663 -4.08201684 -0.02000989 0 0 Z " fill="rgb(202 138 4)" transform="translate(424,108.75)"/>
<path d="M0 0 C3 -0.3125 3 -0.3125 6 0 C8 2 8 2 8.265625 5.1875 C8.26046875 6.445625 8.2553125 7.70375 8.25 9 C8.25515625 10.258125 8.2603125 11.51625 8.265625 12.8125 C8 16 8 16 6 18 C3 18.3125 3 18.3125 0 18 C-2.30821663 14.53767506 -2.27000989 13.08201684 -2.25 9 C-2.25515625 7.948125 -2.2603125 6.89625 -2.265625 5.8125 C-2 3 -2 3 0 0 Z " fill="rgb(202 138 4)" transform="translate(115,68)"/>
<path d="M0 0 C2.75 1.6875 2.75 1.6875 4 4 C3.875 6.6875 3.875 6.6875 3 9 C0.03144127 10.48427936 -2.69911659 10.20941537 -6 10.25 C-7.258125 10.27578125 -8.51625 10.3015625 -9.8125 10.328125 C-10.864375 10.21984375 -11.91625 10.1115625 -13 10 C-15 7 -15 7 -14.8125 4.4375 C-12.71534447 -1.8539666 -5.42933425 -0.65736334 0 0 Z " fill="rgb(202 138 4)" transform="translate(106,54)"/>
<path d="M0 0 C3 -0.3125 3 -0.3125 6 0 C8 2 8 2 8.265625 5.1875 C8.26046875 6.445625 8.2553125 7.70375 8.25 9 C8.25515625 10.258125 8.2603125 11.51625 8.265625 12.8125 C8 16 8 16 6 18 C2.4375 17.75 2.4375 17.75 -1 17 C-2.35550385 14.2889923 -2.16917207 12.08660831 -2.1875 9.0625 C-2.20167969 8.00160156 -2.21585937 6.94070313 -2.23046875 5.84765625 C-2 3 -2 3 0 0 Z " fill="rgb(202 138 4)" transform="translate(403,304)"/>
<path d="M0 0 C3 -0.3125 3 -0.3125 6 0 C8 2 8 2 8.265625 5.1875 C8.26046875 6.445625 8.2553125 7.70375 8.25 9 C8.25515625 10.258125 8.2603125 11.51625 8.265625 12.8125 C8 16 8 16 6 18 C2.4375 17.75 2.4375 17.75 -1 17 C-2.35550385 14.2889923 -2.16917207 12.08660831 -2.1875 9.0625 C-2.20167969 8.00160156 -2.21585937 6.94070312 -2.23046875 5.84765625 C-2 3 -2 3 0 0 Z " fill="rgb(202 138 4)" transform="translate(403,123)"/>
<path d="M0 0 C1.051875 -0.01675781 2.10375 -0.03351562 3.1875 -0.05078125 C6 0.3125 6 0.3125 7.85546875 1.671875 C9.46743337 3.982541 9.35271324 5.56133676 9 8.3125 C7 10.3125 7 10.3125 3.8125 10.578125 C1.9253125 10.57039063 1.9253125 10.57039063 0 10.5625 C-1.258125 10.56765625 -2.51625 10.5728125 -3.8125 10.578125 C-7 10.3125 -7 10.3125 -9 8.3125 C-9.3125 5.3125 -9.3125 5.3125 -9 2.3125 C-5.55324591 0.01466394 -4.06671888 0.01495117 0 0 Z " fill="rgb(202 138 4)" transform="translate(136,53.6875)"/>
<path d="M0 0 C2.375 0.6875 2.375 0.6875 3.375 1.6875 C3.52813272 4.1817965 3.60656517 6.62938493 3.625 9.125 C3.645625 9.81916016 3.66625 10.51332031 3.6875 11.22851562 C3.703125 13.24609375 3.703125 13.24609375 3.375 16.6875 C0.375 18.6875 0.375 18.6875 -2.25 18.375 C-4.625 17.6875 -4.625 17.6875 -5.625 16.6875 C-5.77813272 14.1932035 -5.85656517 11.74561507 -5.875 9.25 C-5.895625 8.55583984 -5.91625 7.86167969 -5.9375 7.14648438 C-5.953125 5.12890625 -5.953125 5.12890625 -5.625 1.6875 C-2.625 -0.3125 -2.625 -0.3125 0 0 Z " fill="rgb(202 138 4)" transform="translate(101.625,284.3125)"/>
<path d="M0 0 C2.5 0.25 2.5 0.25 4.5 2.25 C4.765625 5.4375 4.765625 5.4375 4.75 9.25 C4.75515625 10.508125 4.7603125 11.76625 4.765625 13.0625 C4.5 16.25 4.5 16.25 2.5 18.25 C-0.5625 18.4375 -0.5625 18.4375 -3.5 18.25 C-5.48119355 16.26880645 -4.68500411 12.51554936 -4.6875 9.8125 C-4.69974609 9.11833984 -4.71199219 8.42417969 -4.72460938 7.70898438 C-4.72989842 5.88779099 -4.62169207 4.0671308 -4.5 2.25 C-2.5 0.25 -2.5 0.25 0 0 Z " fill="rgb(202 138 4)" transform="translate(100.5,248.75)"/>
<path d="M0 0 C3 0.5 3 0.5 4.9375 2.125 C6.34057059 5.26127543 5.81887495 7.22450019 5 10.5 C-0.27308448 12.65717092 -0.27308448 12.65717092 -3.3125 12 C-5 10.5 -5 10.5 -5.9375 7.625 C-6 4.5 -6 4.5 -4.9375 2.125 C-3 0.5 -3 0.5 0 0 Z " fill="rgb(202 138 4)" transform="translate(240,317.5)"/>
<path d="M0 0 C2.15717092 5.27308448 2.15717092 5.27308448 1.5 8.3125 C0 10 0 10 -2.875 10.9375 C-6 11 -6 11 -8.375 9.9375 C-10 8 -10 8 -10.5 5 C-10 2 -10 2 -8.375 0.0625 C-5.23872457 -1.34057059 -3.27549981 -0.81887495 0 0 Z " fill="rgb(202 138 4)" transform="translate(154,133)"/>
<path d="M0 0 C3.5 0.25 3.5 0.25 5.5 2.25 C5.75 5.75 5.75 5.75 5.5 9.25 C3.5 11.25 3.5 11.25 0 11.5 C-3.5 11.25 -3.5 11.25 -5.5 9.25 C-5.75 5.75 -5.75 5.75 -5.5 2.25 C-3.5 0.25 -3.5 0.25 0 0 Z " fill="rgb(202 138 4)" transform="translate(222.5,4.75)"/>
<path d="M0 0 C2 2 2 2 2.3125 5.5 C2.1578125 7.2325 2.1578125 7.2325 2 9 C-1.23253796 11.15502531 -2.25150923 11.46856135 -6 11 C-7.8125 9.875 -7.8125 9.875 -9 8 C-9.4375 5 -9.4375 5 -9 2 C-6.12524616 -1.3006433 -4.03854228 -1.38160657 0 0 Z " fill="rgb(202 138 4)" transform="translate(463,324)"/>
<path d="M0 0 C1 1 1 1 1.3125 4.375 C1 8 1 8 -0.6875 10 C-3.60879364 11.26326211 -5.01798647 11.02016252 -8 10 C-10 8 -10 8 -10.3125 5.0625 C-10 2 -10 2 -8.9375 0.0625 C-5.84787273 -1.63181173 -3.32782582 -0.73951685 0 0 Z " fill="rgb(202 138 4)" transform="translate(302,312)"/>
<path d="M0 0 C3.625 0.3125 3.625 0.3125 5.625 2 C6.88826211 4.92129364 6.64516252 6.33048647 5.625 9.3125 C3.625 11.3125 3.625 11.3125 0.6875 11.625 C-2.375 11.3125 -2.375 11.3125 -4.3125 10.25 C-6.00681173 7.16037273 -5.11451685 4.64032582 -4.375 1.3125 C-3.375 0.3125 -3.375 0.3125 0 0 Z " fill="rgb(202 138 4)" transform="translate(466.375,253.6875)"/>
<path d="M0 0 C1.875 1.0625 1.875 1.0625 3 3 C2.6875 6.6875 2.6875 6.6875 2 10 C0.02 10.66 -1.96 11.32 -4 12 C-5.65 10.35 -7.3 8.7 -9 7 C-8.39816251 4.97954558 -7.72693904 2.97888961 -7 1 C-4.45132831 -0.27433584 -2.82594567 -0.27570202 0 0 Z " fill="rgb(202 138 4)" transform="translate(313,142)"/>
<path d="M0 0 C1.7325 0.1546875 1.7325 0.1546875 3.5 0.3125 C5.65502531 3.54503796 5.96856135 4.56400923 5.5 8.3125 C4.375 10.125 4.375 10.125 2.5 11.3125 C-0.5 11.75 -0.5 11.75 -3.5 11.3125 C-5.4375 9.625 -5.4375 9.625 -6.5 7.3125 C-6.14910617 2.39998643 -5.11900839 0.45705432 0 0 Z " fill="rgb(202 138 4)" transform="translate(292.5,-0.3125)"/>
<path d="M0 0 C3.0625 0.3125 3.0625 0.3125 4.9375 1.5 C6.46909584 3.96757108 6.49072025 5.45769831 6.0625 8.3125 C4.9375 10.125 4.9375 10.125 3.0625 11.3125 C0.0625 11.75 0.0625 11.75 -2.9375 11.3125 C-4.875 9.625 -4.875 9.625 -5.9375 7.3125 C-5.61764525 2.8345335 -4.76027546 0.50641228 0 0 Z " fill="rgb(202 138 4)" transform="translate(69.9375,302.6875)"/>
</svg>
