<svg width="40" height="30" viewBox="0 0 40 30" fill="none" xmlns="http://www.w3.org/2000/svg">
<path d="M31.847 17.3049C32.0689 17.0336 32.209 16.7161 32.2422 16.3735C32.3033 15.7553 32.5293 15.1987 32.7804 14.6449L32.6348 14.5623C31.2824 14.698 30.7637 13.5568 29.9967 12.8043C29.8496 12.6603 29.8178 12.4519 29.9787 12.2785C30.2422 11.9932 30.1077 11.7722 29.9093 11.5191C29.5154 11.0128 29.532 10.9345 30.048 10.5527C30.1992 10.4408 30.249 10.3009 30.1672 10.1541C30.0424 9.93311 30.0286 9.60725 29.6901 9.5639L29.403 9.57088C29.2185 9.63941 29.163 9.79464 29.138 9.96946C28.7053 10.9457 29.2434 11.9554 29.034 12.9386L29.0549 13.1078C29.6222 13.3792 29.5056 14.2519 30.1908 14.4197C30.2934 14.4463 30.4378 14.4826 30.4183 14.6337C30.4031 14.7651 30.2727 14.7973 30.1714 14.8504C29.9647 14.9525 29.611 14.9106 29.6526 15.2756C29.6873 15.5609 29.8676 15.7693 30.163 15.8462C30.2976 15.8798 30.4017 15.9651 30.4933 16.0686C30.7915 16.3987 30.7166 16.4518 30.3254 16.642C29.6111 16.9916 28.9439 16.6336 28.2587 16.6098C27.9382 16.6001 27.6456 16.5721 27.414 16.842L27.2197 16.9567C26.522 16.8896 26.0421 17.2839 25.5552 17.7035C25.4082 17.8308 25.2141 17.9217 25.1947 18.1231C25.135 18.7133 24.7216 19.1035 24.4358 19.5636C23.8991 20.4321 23.0531 20.8671 22.1307 21.1566C21.727 21.2824 21.5869 21.537 21.5383 21.9062C21.7991 22.0824 22.0252 21.923 22.2332 21.8041C23.0016 21.3663 23.7826 20.951 24.5496 20.5104C24.8159 20.358 24.9061 20.0293 25.1267 19.8825C26.0061 19.3063 26.6136 18.4405 27.4153 17.7846C27.6886 17.5608 27.9493 17.4839 28.2545 17.6657C28.9743 18.0979 29.7941 18.0797 30.5847 18.1888C30.9744 18.2419 31.195 17.9958 31.306 17.656C31.3823 17.428 31.3961 17.1804 31.514 16.9623C31.5862 17.1175 31.6167 17.3091 31.847 17.3049Z" fill="#94B0AD"/>
<path d="M9.85523 10.8408C9.45715 11.8534 9.22131 12.9093 9.0188 13.975C9.50843 14.4463 10.0425 14.8659 10.5848 15.2728C10.8553 15.4742 11.1576 15.3707 11.4115 15.3022C11.7693 15.2071 12.1396 15.0882 12.4378 14.8393C12.8082 14.2855 13.2743 13.8351 13.8333 13.4785C14.1024 13.3065 14.4159 13.175 14.4908 12.81C14.4603 12.6981 14.1481 12.7498 14.3103 12.5456C14.6099 12.1722 14.5143 11.6967 14.3756 11.4002C14.1814 10.9905 13.8443 10.5555 13.2812 10.5121L13.1064 10.6478C13.0731 11.2324 12.5531 11.3205 12.1897 11.5289C11.836 11.7289 11.4434 11.5359 11.0745 11.4576C10.6181 11.3597 10.2464 11.0758 9.85523 10.8408Z" fill="#D2C8A9"/>
<path d="M11.0537 6.72909C10.9331 6.82419 10.9151 6.96963 10.8735 7.10529C10.9386 7.24934 10.9594 7.39621 10.9233 7.55564C10.8761 7.75564 10.7722 7.99898 11.0718 8.08848C11.3311 8.16261 11.5601 8.02555 11.6294 7.79479C11.7459 7.40879 12.0053 7.3934 12.3285 7.36962C12.789 7.33885 13.1357 7.3067 13.1163 7.97381C13.1024 8.43813 13.5587 8.6633 13.911 8.89826L14.2273 8.84931L14.5158 8.68147C15.0915 8.86748 15.1455 8.48288 15.2287 8.0731C15.3813 7.31368 15.6296 7.16544 16.3731 7.40739C16.7018 7.51508 17.0056 7.6871 17.3704 7.59899L17.6547 7.73884C17.7282 7.94303 17.6547 8.12765 17.5105 8.2689C17.3163 8.45491 17.0985 8.61574 17.0208 8.89546C16.9639 9.09965 16.8572 9.30944 17.0763 9.47726C17.2789 9.6325 17.4911 9.56396 17.6631 9.4339C18.2207 9.01014 18.8808 8.80735 19.512 8.54442L19.8131 8.42694C19.8394 8.09269 19.5453 8.09967 19.3594 8.01716C18.7796 7.75423 18.7602 7.70808 19.1972 7.21998C19.6355 6.72909 19.9795 6.15567 20.5024 5.7389C20.0322 5.37108 19.6716 5.6494 19.3456 5.96408C18.8282 6.46476 18.6826 6.51511 18.2373 5.98086C17.9266 5.61164 17.6506 5.60744 17.2428 5.71373C16.6561 5.86618 16.0263 5.84239 15.4937 6.21161C15.3314 6.32489 15.1678 6.19484 15.0291 6.08435C14.5131 5.66898 14.1788 5.15571 14.1635 4.47041C14.1594 4.1921 14.1205 3.93197 13.9083 3.72778C13.4839 3.94596 13.244 4.77389 13.5366 5.2508C13.7086 5.53191 13.6698 5.70254 13.4742 5.90253C13.1815 6.20602 12.8832 6.50531 12.5295 6.74167C12.2993 6.89411 12.119 6.88154 11.9387 6.64518C11.585 6.18365 11.5767 6.19064 11.1855 6.6172L11.0537 6.72909Z" fill="#D0D9C2"/>
<path d="M19.4758 8.42409L19.3148 8.37655C18.9001 8.79472 18.2537 8.74855 17.8182 9.14994C17.6379 9.31777 17.337 9.6828 17.1109 9.33036C16.9694 9.10939 17.1247 8.70101 17.4479 8.52619C17.6296 8.42829 17.7475 8.30661 17.8099 8.10662C17.9819 7.55279 17.8156 7.35699 17.2524 7.47587C17.0541 7.51782 16.8807 7.50384 16.7045 7.39056C16.5616 7.29965 16.3965 7.21573 16.2342 7.19475C15.3174 7.08287 15.1509 7.21714 15.0483 8.19473C15.0095 8.55416 15.0094 8.85205 14.5808 8.45766L14.3298 8.48284C14.1759 8.56675 14.191 9.01288 13.8942 8.74855C13.5738 8.46325 13.0607 8.2241 13.2202 7.67307C13.3547 7.21574 13.2229 7.22134 12.829 7.20595C12.5197 7.19337 12.2118 7.3514 11.8914 7.20035C11.7416 7.12763 11.6042 7.28427 11.6042 7.46608C11.6028 7.65769 11.5293 7.80453 11.3892 7.91922L11.0647 7.97935C10.9177 7.90662 10.9967 7.77796 11.0369 7.67727C11.1271 7.44091 11.1785 7.22272 10.8733 7.10524C10.7041 7.77236 10.514 8.43527 10.489 9.13036C10.8621 9.14434 11.0051 8.84786 11.1854 8.60451C11.3546 8.37375 11.5585 8.2129 11.8567 8.22409C12.019 8.23109 12.2313 8.29263 12.2188 8.44648C12.1716 9.03387 12.6376 9.09121 12.9844 9.1975C13.9192 9.48281 14.8431 9.90797 15.8612 9.65063C16.047 9.60448 16.09 9.71916 16.1566 9.84364C16.538 10.5555 16.5394 10.5541 17.3411 10.4366L17.6283 10.4086C17.7684 10.3947 17.9099 10.3807 18.05 10.3681C18.4966 10.3625 18.8141 10.1975 18.9612 9.72895C19.0902 9.31917 19.5507 9.12057 19.6811 8.69681C19.6867 8.54856 19.5909 8.48004 19.4758 8.42409Z" fill="#CDD4BB"/>
<path d="M13.8833 3.73892C13.9707 4.13471 13.9623 4.55988 14.0303 4.93049C14.0983 5.29832 14.3909 5.71788 14.7307 6.04794C15.1441 6.44793 15.4603 6.50667 15.9402 6.17382C16.4756 5.80599 17.1665 5.95424 17.774 5.76823C17.9474 5.71508 18.2984 6.21576 18.5702 6.45771C18.8892 6.73882 19.0029 6.68848 19.2013 6.36122C19.4856 5.8969 19.8713 5.56823 20.4774 5.74305C21.275 5.8857 21.6258 5.64796 21.7174 4.88015C21.7396 4.68155 21.8116 4.51092 21.9101 4.34449C22.1598 3.71234 22.6079 3.16271 22.6981 2.46063C22.4692 2.21029 22.1667 2.13056 21.8463 2.10259C21.5453 2.65363 21.1778 3.08159 20.5522 3.33613C20.118 3.51235 19.8088 3.97527 19.4912 4.36547C18.9558 5.02559 18.6395 5.1123 17.8516 4.85077C17.0652 4.83538 16.2927 4.98084 15.5131 5.05497C14.8182 5.1207 14.5365 4.89413 14.4311 4.17947C14.3715 3.77249 14.7321 3.38928 15.2745 3.28439C15.4603 3.24942 15.6615 3.25082 15.7877 3.0732C15.151 2.90957 14.5518 3.07181 13.9554 3.2732C13.8458 3.41586 13.7738 3.5627 13.8833 3.73892Z" fill="#CAD4C0"/>
<path d="M29.4684 9.60026C29.6279 9.74711 29.8013 9.88276 29.9456 10.0436C30.1731 10.2925 30.2369 10.4352 29.7722 10.4771C29.3921 10.5107 29.3061 11.1275 29.6626 11.4855C29.9442 11.7694 30.2175 11.954 29.7486 12.3051C29.6155 12.4072 29.6432 12.6142 29.7791 12.7736C30.3312 13.4225 30.8929 14.0463 31.5961 14.5498C32.0136 14.8476 32.3881 14.6197 32.7806 14.6449C32.9166 14.4603 32.9874 14.2491 33.0331 14.0281C32.8362 13.8645 32.5961 13.8393 32.377 13.9106C31.9151 14.0631 31.7057 13.7694 31.4865 13.4645L31.4158 13.2057C31.8056 12.8323 31.4685 12.5694 31.2729 12.3177C30.983 11.9484 30.9956 11.3527 30.4657 11.2184C30.6987 10.8114 31.1148 10.466 30.6654 9.95549C30.5253 9.79465 30.6377 9.69676 30.7736 9.64921C31.1994 9.49956 31.3215 9.22684 31.2064 8.78909C31.1218 8.46882 31.2507 8.27721 31.6239 8.27581C31.9734 8.27302 32.3064 8.3066 32.6434 8.41149C32.864 8.48142 33.1025 8.63944 33.3508 8.46882C33.4909 7.95834 33.4909 7.4255 33.5922 6.90944C33.5422 6.69266 33.5102 6.47028 33.452 6.2549C33.108 6.10665 32.8473 5.73324 32.47 5.73184C32.0234 5.73044 31.972 6.24931 31.7099 6.50525L31.4589 6.63111L31.1995 6.81853C30.7071 7.57654 30.0675 8.22826 29.6376 9.02964C29.5405 9.20726 29.3491 9.35691 29.4684 9.60026Z" fill="#82B5A6"/>
<path d="M30.4919 0.360026L30.2783 0.390791C30.073 0.553024 29.786 0.403392 29.5862 0.57961L29.5918 0.57821L29.3767 0.705467C29.1672 0.793576 29.0078 0.989383 28.7567 0.993579C28.2463 1.00197 28.0632 1.29007 28.0465 1.77817C28.0132 2.74877 27.7774 3.65224 27.0922 4.38649C26.9216 4.5697 26.8744 4.80326 26.9729 5.03822C27.1449 5.4438 26.941 5.70672 26.6539 5.93748C26.4888 6.06895 26.3141 6.22419 26.1088 6.25496C25.2017 6.39202 24.5691 6.99619 23.9727 7.59897C23.4456 8.13182 22.7743 8.37377 22.1391 8.62831C21.7313 8.79474 21.2125 8.743 20.7756 8.96957C20.3969 9.16677 20.0225 9.36116 19.7783 9.73318L19.7546 10.0563C20.2568 10.2339 20.7188 10.094 21.1654 9.86463C21.3651 9.76254 21.5606 9.60312 21.7479 9.88003C22.4317 9.82269 22.9893 9.41851 23.6066 9.18075C24.049 8.96398 24.4831 8.73181 24.7827 8.31784C25.074 7.89687 25.5485 7.74722 25.9743 7.55981C26.8606 7.16681 27.6346 6.64516 27.9453 5.69414C28.0924 5.241 28.3531 4.80606 28.4252 4.38789C28.5029 3.91937 28.6111 3.57111 28.8538 3.15155C29.0924 2.74317 29.3185 2.33479 29.6181 1.96557C30.073 1.40055 30.4725 0.78659 31.0925 0.379609L31.0009 0.257935C30.8303 0.287305 30.6445 0.239751 30.4919 0.360026Z" fill="#B1C1BB"/>
<path d="M19.849 9.78908C20.2652 9.28 20.9032 9.13595 21.4331 8.81428C21.6772 8.66744 21.9186 9.00728 22.1419 8.86463C22.7952 8.45066 23.5566 8.25066 24.1323 7.67165C24.6885 7.11083 25.2654 6.54861 26.1351 6.41155C26.5748 6.34302 26.9313 5.9766 27.1851 5.57381L27.2351 5.30808C26.8426 4.79761 27.2115 4.50112 27.4959 4.11931C28.0119 3.42842 28.1881 2.59768 28.1881 1.74176C28.1894 1.33058 28.3323 1.08024 28.7484 1.14457C29.1479 1.2075 29.2588 0.881649 29.4807 0.699837C29.281 0.636901 29.091 0.657868 28.9079 0.758565C28.7192 0.780942 28.5306 0.803332 28.3419 0.82431C28.0285 1.0271 27.6221 0.831301 27.3156 1.06626C27.1297 1.16136 26.9438 1.25785 26.7593 1.35295C26.2128 1.76693 26.1657 2.34174 26.6512 2.84382L26.8079 3.1599C26.3807 3.51373 26.5485 4.18364 26.0686 4.49971C25.8689 4.63258 25.848 4.84517 25.9146 5.07174C26.0103 5.3962 25.8661 5.56821 25.5651 5.68989C25.1046 5.8773 24.7093 6.19477 24.246 6.38777C24.0519 6.46609 23.8645 6.61715 23.798 6.82134C23.5303 7.65208 22.8159 7.92339 22.1168 8.18772C21.5259 8.41009 20.9129 8.57373 20.3179 8.7919C19.7256 9.00588 19.1833 9.28279 18.9072 9.90235C18.7228 10.3163 18.3801 10.2618 18.0361 10.2142C17.8808 10.231 17.7282 10.2464 17.5742 10.2618L17.6047 10.4254C18.3274 10.7065 18.9932 10.7093 19.5272 10.031L19.849 9.78908Z" fill="#BCC9C1"/>
<path d="M31.847 17.305C31.6584 17.1455 31.6167 16.9246 31.6195 16.6099C31.4017 16.9469 31.191 17.1595 31.1937 17.5357C31.1979 17.9539 30.8067 18.1805 30.4558 17.9791C30.1867 17.8252 29.9801 18.0196 29.736 17.9944C29.1354 17.9315 28.6124 17.6602 28.0853 17.4168C27.8745 17.3175 27.7593 17.2924 27.5901 17.4616C27.4306 17.6238 27.2142 17.7301 27.0519 17.891C26.3931 18.5511 25.6427 19.1315 25.0129 19.793C24.0198 20.8349 22.7549 21.2797 21.5606 21.9062C21.2638 21.8727 21.0515 22.0153 20.8809 22.2433C20.5452 22.6083 20.6395 22.9887 20.8809 23.3426C21.2401 23.8726 21.7923 24.0936 22.3401 23.9663C22.6647 23.2656 23.2584 22.744 23.5996 22.0517L23.7979 21.9426C24.5622 21.7622 24.8812 21.1188 25.167 20.5035C25.3279 20.151 25.5137 19.9231 25.8674 19.8182C26.2017 19.5902 26.5276 19.3427 26.7801 19.0322C27.1574 18.5763 27.6054 18.4112 28.1852 18.3972C28.9272 18.3777 29.6236 18.4196 30.1895 18.9762C30.7235 18.4 31.5419 18.1119 31.847 17.305Z" fill="#89A4A1"/>
<path d="M18.0361 10.2143C18.5244 10.3681 18.9184 10.3206 19.1486 9.76813C19.3497 9.28143 19.8421 9.1262 20.2679 8.94998C20.8407 8.71222 21.4553 8.58075 22.0461 8.38216C22.6218 8.18636 23.1724 7.93462 23.6148 7.49407C23.7258 7.38499 23.8618 7.2801 23.8535 7.11367C23.8355 6.80319 24.0587 6.60738 24.2626 6.54445C24.8035 6.37802 25.2017 5.94867 25.7607 5.80462C26.0187 5.73749 26.278 5.44658 26.0769 5.08016L26.0173 4.72492C26.7593 4.53192 26.3572 3.57671 26.9799 3.29839C27.127 3.23266 27.0646 2.84246 26.9855 2.84106C26.3821 2.83127 26.6595 2.26906 26.4556 2.01172C26.2267 1.72362 26.6872 1.59494 26.7593 1.35299C26.0921 1.58795 25.5499 2.0201 25.0214 2.47044C24.9479 2.82707 24.8966 3.18651 24.7551 3.52916C24.6441 3.79908 24.6178 4.10816 24.7315 4.38228C24.8619 4.69975 24.6968 4.88856 24.5844 5.16128C24.3778 5.65777 24.1392 6.03818 23.6177 6.2088L23.4692 6.45075C23.3707 6.85913 23.1627 7.14025 22.7217 7.22416C22.5302 7.26192 22.4178 7.44094 22.2902 7.59058C21.9809 7.95701 21.6037 8.15839 21.103 8.21293C20.5939 8.26608 20.1333 8.57236 19.6146 8.64369C19.3053 9.115 18.7962 9.43667 18.6506 10.0464C18.5978 10.2716 18.247 10.1583 18.0361 10.2143Z" fill="#C3CEC5"/>
<path d="M17.5853 10.3779L17.5742 10.2618C17.423 10.2828 17.2676 10.2912 17.1192 10.3261C16.7295 10.4212 16.4355 10.4282 16.3343 9.90236C16.2746 9.59188 16.1248 9.15553 15.649 9.60307L15.2648 9.64363C14.3438 9.3807 13.3701 9.30099 12.5045 8.84506L12.3631 8.75415C12.6461 8.28843 12.284 8.13598 11.99 8.06745C11.6127 7.97934 11.252 8.14577 11.0717 8.5108C10.9344 8.78911 10.6972 8.93875 10.4891 9.13035C10.3643 9.26741 10.3116 9.43385 10.3102 9.61706C10.6902 9.69398 10.9178 9.49679 11.1092 9.1975C11.2701 8.94995 11.4767 8.71359 11.811 8.80729C12.1689 8.90799 12.2369 9.20309 12.2244 9.54294C12.1995 10.2926 12.782 10.4184 13.3119 10.5919C13.5185 10.5961 13.6877 10.6548 13.7404 10.887L13.8 11.087C14.6004 11.073 14.1205 11.7806 14.348 12.0897L14.2231 12.4477C14.1163 12.5387 13.8652 12.5624 13.9499 12.747C14.0511 12.9638 14.2911 12.7946 14.4686 12.8128C14.6712 13.0673 14.8126 12.8603 14.9263 12.7289C15.1788 12.4394 15.4534 12.1708 15.649 11.8324C15.9486 11.3121 16.3454 10.9289 16.9695 10.8226C17.2262 10.7779 17.4979 10.6911 17.5853 10.3779Z" fill="#CBCEAE"/>
<path d="M6.50421 24.4488C6.30863 24.6026 6.34465 24.8697 6.21704 25.0571C6.48058 25.3173 6.71091 25.0599 6.91897 24.9718C7.26573 24.825 7.61387 24.7341 7.97728 24.7816C8.49326 24.8487 8.99255 24.9061 9.48773 24.6613C9.70828 24.5536 9.92611 24.7033 10.1439 24.7816C10.6696 24.969 10.9177 24.7411 10.8304 24.1872C10.7985 23.9788 10.775 23.7621 10.8152 23.5537C10.8832 23.2096 11.3312 22.9775 11.4907 23.2138C11.9942 23.9621 12.603 23.7509 13.2397 23.5089L13.5491 23.3901C13.6462 23.0278 13.4242 22.832 13.169 22.6572C12.8555 22.4418 12.5171 22.267 12.2036 22.0502C11.9151 21.6558 11.4892 21.7188 11.0856 21.7104C10.8428 21.7062 10.6029 21.646 10.3574 21.6614C9.93153 21.7118 9.94273 22.0516 9.90805 22.3579C9.81928 23.1929 9.80257 23.2082 8.98005 23.4222C8.10759 23.6474 7.21715 23.8292 6.50421 24.4488Z" fill="#5E6D5F"/>
<path d="M19.6144 8.64363C20.1068 8.73034 20.5202 8.50798 20.9723 8.3877C21.4301 8.26603 21.8546 8.13456 22.2582 7.89681C22.4857 7.76394 22.4301 7.36395 22.7755 7.34716C23.3331 7.32199 23.519 6.97516 23.6078 6.46888C23.6563 6.18357 23.9185 6.04091 24.2292 6.11224C24.5704 6.19056 24.7147 5.92624 24.5927 5.73744C24.3471 5.35983 24.5968 5.25633 24.8187 5.12207C25.049 4.98081 25.0947 4.75984 24.9768 4.57663C24.6675 4.09972 24.7951 3.64098 25.0281 3.22281C25.1877 2.93611 25.1211 2.72073 25.0212 2.47039C24.8021 2.62283 24.5801 2.76828 24.3706 2.93052C23.8117 3.36267 23.5689 3.34309 23.0834 2.79066C22.9683 2.6592 22.8616 2.52913 22.6979 2.4606C22.408 3.03821 22.118 3.61722 21.8282 4.19622C22.0404 4.33328 22.2041 4.18923 22.3414 4.07175C22.7575 3.71232 23.1765 3.87175 23.5815 4.05357C23.9005 4.19482 24.0267 4.77802 23.7284 5.05494C23.218 5.52905 22.9739 6.28986 22.2138 6.49825C22.0418 6.5444 21.9225 6.69125 21.8684 6.86467C21.6742 7.49122 21.1527 7.72618 20.6118 7.93597C20.3246 8.04646 20.0444 8.16393 19.8211 8.3877L19.4757 8.42406L19.6144 8.64363Z" fill="#CAD1CA"/>
<path d="M15.7878 3.07325C15.5784 3.09423 15.3703 3.1152 15.1594 3.13898C14.373 3.22429 14.1095 3.69421 14.33 4.45223C14.6102 5.41444 14.9334 5.26061 15.6144 5.19627C16.3967 5.12215 17.1762 5.03404 17.9571 4.95152C18.6715 4.67881 19.2762 4.23685 19.7589 3.64806C20.0572 3.28583 20.3443 2.93899 20.7701 2.71941C20.9629 2.61872 21.2334 2.46628 21.1433 2.20335C21.0642 1.97399 20.7909 2.02993 20.5801 2.04811C20.0183 2.4537 19.4732 2.87745 19.139 3.5096C18.9753 3.82008 18.7104 3.84666 18.4052 3.83268C17.6964 3.79911 17.0639 3.36415 16.2428 3.5068L16.3164 3.43967L16.3731 3.42989L16.5022 3.22849C16.2442 3.26345 16.0583 2.97675 15.7878 3.07325Z" fill="#C1C8AF"/>
<path d="M33.3022 8.49821C32.703 8.19192 32.0663 8.06883 31.3963 8.11638C30.9608 8.14855 30.9483 8.55554 31.0385 8.75554C31.2743 9.28979 31.0135 9.43664 30.5946 9.56111C30.3754 9.62824 30.1397 9.81004 30.4434 9.98906C31.0496 10.3499 30.6058 10.7037 30.4587 11.0114C30.37 11.1974 30.3061 11.2226 30.503 11.3694C30.9829 11.7331 31.0149 12.424 31.4782 12.8156L31.4213 12.989C30.9205 13.0827 31.198 13.2631 31.3172 13.5204C31.7125 14.3749 32.4214 14.0057 33.033 14.0281C33.0705 13.8659 33.1107 13.7036 33.1482 13.5414C33.1912 13.3694 33.1384 13.2016 33.1273 13.0323L32.9346 12.8435C32.6072 12.8841 32.4921 12.754 32.5143 12.431C32.5281 12.2394 32.3673 12.1261 32.2355 12.0128C31.8804 11.7079 31.6265 11.3247 31.4157 10.9107C31.0565 10.2031 31.5822 9.38348 32.3728 9.41285L32.6058 9.45622C32.9165 9.24643 33.119 8.93455 33.3451 8.64784L33.3022 8.49821Z" fill="#79AE9F"/>
<path d="M13.3119 10.5919C13.2814 10.473 13.3257 10.2772 13.1232 10.3038C12.4907 10.3821 12.3049 9.9178 12.3632 9.49264C12.4297 8.98916 12.1938 8.82272 11.854 8.6465C11.4476 8.43252 11.1424 8.81154 11.062 9.00174C10.9011 9.38634 10.5848 9.44788 10.3102 9.61711C10.0813 9.99612 9.94134 10.4087 9.85535 10.8409C10.0606 11.3625 10.5668 11.4912 11.0037 11.5793C11.5058 11.68 12.1009 12.1093 12.5517 11.4254L12.7084 11.3863C13.1107 11.5177 13.1787 11.3192 13.1232 10.9793C13.0941 10.8101 13.1662 10.6786 13.3119 10.5919Z" fill="#BCC8A7"/>
<path d="M33.4214 6.26195C33.3118 6.46754 33.3327 6.66193 33.4811 6.84094C33.7808 6.79619 33.7475 6.50529 33.8515 6.32068C33.9278 6.18642 33.9652 6.03258 34.0567 5.90671C34.1496 5.78084 34.2579 5.7235 34.4008 5.8186C34.5603 5.9221 34.5283 6.02838 34.4077 6.14446C34.2509 6.29411 34.0901 6.47034 34.2385 6.6969C34.3897 6.92767 34.6227 6.84514 34.8058 6.74165C35.0818 6.58501 35.2746 6.85912 35.5173 6.84234C35.9417 6.34865 36.2912 5.80602 36.5825 5.22422C36.6685 5.07037 36.6907 4.89415 36.7434 4.73052C36.7032 4.00467 37.1651 3.4844 37.4855 2.90679C37.3079 2.61729 37.0583 2.72219 36.8184 2.78792C36.0901 2.98512 35.5034 3.40469 35.0221 3.98089C34.5976 4.52773 34.1538 5.05918 33.7266 5.60182C33.5768 5.79622 33.3854 5.97665 33.4214 6.26195Z" fill="#89BC92"/>
<path d="M8.53606 29.3479L8.8579 29.299C9.0507 28.8906 9.84963 28.5088 10.2227 28.7382C10.8955 29.1549 11.5919 28.9787 12.2826 28.9298C12.7001 28.9004 13.1064 28.7829 13.5295 28.899C13.8943 28.9969 14.1786 28.6976 14.5184 28.664C15.1343 28.4403 15.85 28.6151 16.4076 28.1717C16.3244 27.8445 16.0096 27.7927 15.7863 27.7927C15.4229 27.7885 15.0843 27.6585 14.7265 27.6571C14.0746 27.576 13.4755 27.678 12.8374 27.906C12.3561 28.078 11.7249 28.1116 11.2006 27.7032C10.8247 27.4095 10.4044 27.169 9.99803 26.9116C9.81494 26.8641 9.65823 26.9312 9.5112 27.0319C9.2324 27.2599 8.8523 27.3592 8.65811 27.6962C8.72469 28.0179 9.01322 27.8193 9.17135 27.92C8.55411 28.2081 8.1103 28.7102 7.66089 29.2039L7.71913 29.3158L7.80379 29.3088C8.04098 29.4416 8.2961 29.243 8.53606 29.3479Z" fill="#96A79D"/>
<path d="M8.39186 16.9609C8.09503 17.3553 8.16864 17.8699 7.97168 18.2951C8.10068 18.3958 8.2296 18.3343 8.35028 18.2811C8.9481 18.021 9.64852 18.1385 10.1493 17.4532C10.4253 17.0714 11.0897 16.8294 11.6459 16.6588C11.847 16.5987 12.1009 16.5133 12.1689 16.3273C12.352 15.8253 12.7126 15.9036 13.0871 15.9665L13.2245 15.8826C13.6142 15.5875 14.0206 15.3176 14.47 15.1176C14.5976 15.0477 14.7002 14.9567 14.7612 14.8225C14.8153 14.6896 14.8473 14.5512 14.8681 14.4085C14.8764 14.2155 14.9569 14.0183 14.8376 13.8323C14.5741 13.74 14.4811 13.9442 14.3521 14.1022C14.1538 14.3498 13.9166 14.5106 13.5795 14.3973C13.3229 14.3134 13.0705 14.3064 12.8208 14.4127C12.0316 15.3399 10.8637 15.7301 9.94959 16.4812C9.82614 16.5847 9.6652 16.6224 9.51817 16.5329C8.96196 16.1973 8.67621 16.5763 8.39186 16.9609Z" fill="#B7B295"/>
<path d="M26.9894 25.0824C27.2086 24.825 27.4278 24.5705 27.6469 24.3132C27.7523 24.1425 28.0103 24.0502 27.9188 23.7761C27.6719 23.4586 27.4291 23.2223 26.9492 23.2069C26.3278 23.1887 25.6995 22.4419 25.6412 21.8335C25.2889 21.6293 25.1418 21.9398 24.9379 22.1132L24.8243 22.2349C24.5719 22.5146 24.7327 22.7803 24.8728 23.0265C25.0351 23.3132 25.0558 23.4824 24.6494 23.4964C24.3831 23.5062 24.1349 23.6321 23.8727 23.6908C23.7118 23.7272 23.5911 23.8293 23.5842 24.0055C23.58 24.1831 23.7048 24.2838 23.8574 24.3383C24.1445 24.4418 24.4359 24.5383 24.7452 24.5383C25.2431 24.5243 25.336 25.0376 25.6606 25.2488L25.8119 25.3075C26.2211 25.3229 26.6801 25.6026 26.9894 25.0824Z" fill="#79948C"/>
<path d="M35.3175 0.22014L35.2426 0.22434C34.9929 0.119448 34.7489 0.241117 34.5048 0.235522L34.237 0.273286C33.6392 1.47745 32.7738 2.47741 31.8458 3.43263C31.4755 3.81444 31.5504 3.96829 32.1468 4.22982C32.2994 4.25779 32.4255 4.19765 32.5476 4.12213C32.6835 4.02283 32.8583 3.99486 32.9873 3.88158C33.4575 3.40467 33.8598 2.85224 34.5131 2.58791C34.7877 2.47742 34.9389 2.2047 35.0915 1.95576C35.4895 1.31382 35.9944 0.878872 36.8142 0.912438C37.2511 0.92922 37.3066 0.631316 37.1554 0.271886L36.835 0.175394L36.5132 0.197759C36.1137 0.0928664 35.7198 0.315242 35.3175 0.22014Z" fill="#6D998D"/>
<path d="M6.7677 23.6083L6.78436 23.7243C6.9619 23.9551 7.12843 23.7593 7.27823 23.6922C7.78589 23.4684 8.29623 23.2502 8.80806 23.0349C9.39062 22.7873 9.82622 22.4153 9.84009 21.7174C9.84702 21.4405 9.99269 21.3538 10.2437 21.351C10.5863 21.3454 10.9344 21.3664 11.2632 21.2237C11.6086 21.1846 11.9595 21.1888 12.1467 20.7818C12.2355 20.5888 12.4921 20.5706 12.6974 20.5202C12.886 20.4741 13.1399 20.5091 13.1704 20.2112C12.9554 19.9133 12.6364 19.9468 12.3881 20.0657C11.9526 20.2755 11.5712 20.1762 11.1787 19.9944C10.0399 19.6573 9.19792 20.3328 8.32408 20.8671C8.07163 21.0209 8.20755 21.2293 8.30742 21.4237C8.59454 21.9831 8.55006 22.0782 7.97582 22.2894C7.60409 22.4265 7.19914 22.5286 7.0424 22.9691L6.93553 23.0852C6.82318 23.2432 6.7996 23.4264 6.7677 23.6083Z" fill="#768169"/>
<path d="M24.9645 22.2531C25.1822 22.1132 25.2918 21.7999 25.6178 21.8335L25.8494 21.9062L26.0699 21.8433C26.2003 21.7776 26.4015 21.765 26.4015 21.572C26.4015 21.3846 26.2141 21.351 26.0768 21.2881L25.9563 21.165C26.0658 21.0154 26.2336 21.0881 26.3709 21.0713C26.7537 21.0293 26.9549 20.8685 26.7885 20.4601C26.6304 20.0671 26.8286 19.979 27.1629 19.9888C27.3363 19.9944 27.5097 19.9329 27.6734 19.9399C28.1353 19.958 28.4654 19.9706 28.3059 19.2965C28.2199 18.9343 28.9314 18.6294 29.2768 18.877C29.5015 19.0378 29.7415 19.1343 29.9925 19.2252L30.1895 18.9762C30.0078 18.5231 29.3184 18.1833 28.844 18.27C28.5624 18.3203 28.2601 18.3343 27.9771 18.2896C27.3807 18.1945 27.0409 18.5371 26.6914 18.9343C26.4445 19.2168 26.1406 19.4476 25.8632 19.6993C25.5719 20.1636 25.2599 20.6224 24.8771 21.0042C24.3472 21.5314 24.3347 21.744 24.9645 22.2531Z" fill="#7F9A97"/>
<path d="M8.39197 16.9609C8.58616 16.8364 8.78318 16.7148 8.9732 16.5847C9.11607 16.4882 9.22982 16.4504 9.3602 16.6196C9.467 16.7595 9.61819 16.8742 9.80544 16.7343C10.714 16.056 11.7751 15.6001 12.6018 14.8001L12.7863 14.5092C12.5047 14.389 12.4644 14.6463 12.3506 14.7903C12.0857 14.9022 11.8306 15.0519 11.5559 15.1162C11.1925 15.2001 10.8013 15.4365 10.4892 14.94C10.3852 14.7749 10.0912 14.7316 9.8859 14.6323L9.6154 14.4561C9.95384 13.6002 9.23121 14.1106 9.01899 13.975C8.80261 14.9693 8.47935 15.94 8.39197 16.9609Z" fill="#C7BE9C"/>
<path d="M37.0999 0.253699C37.1137 0.579563 37.2511 0.978152 36.6311 0.725013C36.3134 0.596345 35.2855 1.27466 35.0913 1.64528C34.8694 2.07324 34.5864 2.36693 34.1273 2.61727C33.6585 2.87181 33.1411 3.25501 32.9414 3.85359C32.9775 4.16687 33.1675 4.16408 33.3853 4.05919C33.5393 3.98367 33.66 3.8522 33.7931 3.73892C34.3077 3.30396 34.8375 2.8858 35.4741 2.64385C36.4146 2.28442 37.2289 1.69841 38.0708 1.16416C38.2803 1.0313 38.4647 0.855089 38.713 0.787958C38.8545 0.72782 38.9889 0.652297 39.1096 0.559992C39.24 0.459296 39.469 0.368381 39.3996 0.18377C39.3233 -0.017622 39.1 0.144619 38.9446 0.122242C38.7019 0.127836 38.4633 0.22293 38.2178 0.148807C38.0347 0.159995 37.853 0.169781 37.6685 0.179571C37.4715 0.146005 37.2788 0.144611 37.0999 0.253699Z" fill="#609185"/>
<path d="M13.2329 23.3635C13.0997 23.3803 12.918 23.3482 12.839 23.4223C12.3327 23.9062 12.0163 23.5719 11.6807 23.1943C11.5725 23.0726 11.5615 22.7566 11.2785 22.9034C11.0275 23.0363 10.7042 23.1482 10.6348 23.4475C10.5683 23.7272 10.6183 24.0362 10.6308 24.3327C10.6349 24.4418 10.9706 24.4306 10.7653 24.6111C10.603 24.7537 10.3034 24.8096 10.18 24.6544C9.9525 24.3705 9.64458 24.3971 9.46287 24.509C8.93441 24.8376 8.39894 24.6908 7.87602 24.6153C7.24352 24.5243 6.79412 25.011 6.2171 25.0572C6.05343 25.1243 6.05764 25.2852 6.0188 25.4208C6.11589 25.7299 6.34474 25.5705 6.48205 25.5145C7.28377 25.1942 8.04104 25.2642 8.80809 25.6376C9.22143 25.839 9.58347 25.5313 9.93995 25.3803C10.1882 25.274 10.4213 25.1705 10.6959 25.1341C11.1412 25.0768 11.5268 24.9117 11.8056 24.5034C12.083 24.1006 12.5642 24.0908 12.9984 24.0418C13.2508 24.0125 13.502 24.0265 13.6296 23.744C13.6892 23.4153 13.3688 23.4852 13.2329 23.3635Z" fill="#576557"/>
<path d="M33.23 0.0830412C33.0844 0.0956283 32.9401 0.106817 32.793 0.118005C32.4476 -0.054018 32.1038 0.108219 31.7598 0.122205C31.5365 0.178147 31.4004 0.350162 31.295 0.533373C30.8581 1.29139 30.2353 1.90536 29.711 2.59345C29.3393 3.08155 29.03 3.6158 28.6749 4.11928C28.3975 4.51088 28.5723 5.0773 28.2339 5.4717L28.3226 5.71645L28.5903 5.69266C28.79 5.51784 29.0509 5.40316 29.159 5.13324C29.1382 4.90947 29.2575 4.73046 29.4365 4.66613C29.8942 4.50389 30.1119 4.04796 30.5197 3.82279C30.8082 3.66615 30.8124 3.29413 30.9386 3.01722C31.0177 2.8424 31.0107 2.61303 31.1688 2.49276C31.8554 1.97109 32.2729 1.23826 32.7237 0.527791C32.8471 0.333391 33.1162 0.376735 33.266 0.218698L33.23 0.0830412Z" fill="#92B2AE"/>
<path d="M14.4589 28.5032C13.2994 28.8613 12.0898 28.7088 10.9122 28.8725L10.7444 28.8543C10.3144 28.4039 9.8359 28.6319 9.32547 28.6459C8.70129 28.6627 8.79282 28.9214 8.85801 29.299L8.85246 29.3382C9.04526 29.4263 9.25339 29.2669 9.4448 29.3759L9.43925 29.3745C9.7125 29.5074 9.99674 29.2864 10.27 29.4067L10.6098 29.3955C10.8401 29.4724 11.0787 29.3074 11.3089 29.4151L11.302 29.4123C11.6946 29.5424 12.0871 29.2962 12.481 29.4081C12.6683 29.3955 12.857 29.3843 13.0456 29.3732C13.3188 29.4529 13.5935 29.2738 13.8667 29.3801L14.0859 29.369C14.4424 29.4724 14.7947 29.2557 15.1498 29.362C15.2996 29.355 15.4479 29.348 15.5977 29.341C15.7947 29.4137 16.0027 29.2766 16.1997 29.3662L16.4092 29.362C16.627 29.4333 16.8378 29.3522 17.0528 29.3368C16.9571 29.1368 17.0431 29.1382 17.2179 29.1466C17.4051 29.1564 17.645 29.1662 17.6436 28.8585C16.9043 28.7732 16.1927 28.5452 15.4604 28.4305C15.1219 28.376 14.8112 28.727 14.4589 28.5032Z" fill="#91A395"/>
<path d="M29.9926 19.2252C29.5918 18.6923 29.0342 18.4783 28.6167 18.7007C28.0605 18.9944 27.9731 19.2615 28.2686 19.8643C27.7276 19.607 27.2213 19.8965 26.6997 19.8839C26.31 19.8755 26.5444 20.1874 26.6193 20.3426C26.8343 20.7999 26.6776 20.9678 26.2115 20.951C26.0243 20.944 25.7426 20.7748 25.6955 21.1076C25.6455 21.4573 25.9451 21.4223 26.1698 21.4475L26.3585 21.5552C26.1657 21.6517 26.0063 21.7314 25.8468 21.8097C25.948 22.1887 26.2739 22.1887 26.4694 22.0321C26.8703 21.7104 27.2227 21.7328 27.6153 21.9929L27.826 21.9566C27.7997 21.3524 28.2352 21.0027 28.5736 20.6055C28.7803 20.3636 29.0217 20.1538 29.2478 19.9272C29.1188 19.751 28.6944 19.8909 28.7596 19.5622C28.8248 19.2266 29.1632 19.3762 29.392 19.3552C29.5612 19.3412 29.7347 19.372 29.8928 19.2811L29.9926 19.2252Z" fill="#799792"/>
<path d="M4.31118 28.0458L4.2016 28.1647C3.95609 28.3018 3.71476 28.4416 3.56496 28.6962C3.45122 28.8878 3.36112 29.0738 3.6205 29.2248L3.87989 29.2262C4.10182 29.1423 4.33623 29.1325 4.56787 29.1102C5.93828 28.7773 7.21161 28.1843 8.49742 27.6207C8.8317 27.4752 9.14368 27.2878 9.46687 27.12L9.67086 26.9592C10.0218 26.7872 10.3241 26.513 10.725 26.4445C10.9316 26.3606 11.1328 26.2711 11.1397 25.997C10.9802 25.5998 10.664 25.7872 10.4642 25.8795C9.22835 26.4557 7.90508 26.7746 6.63315 27.2403C6.09081 27.4403 5.53594 27.5773 4.98805 27.7452C4.75086 27.8179 4.50676 27.8752 4.31118 28.0458Z" fill="#362D39"/>
<path d="M13.6128 23.674C13.2064 24.0796 12.6197 23.7691 12.1675 24.046C12.0163 24.1383 11.7887 24.1117 11.7138 24.3341C11.5696 24.7621 11.1979 24.9537 10.8262 24.9481C10.1979 24.9383 9.77067 25.3998 9.20753 25.5201L8.89544 25.5704C8.07846 24.9229 7.20739 25.1033 6.32938 25.4026L6.01865 25.4208C5.82862 25.7131 5.63722 26.0054 5.44581 26.2991L5.40002 26.4194L5.73433 26.4333C6.09357 26.3382 6.39728 26.0613 6.81756 26.1522C6.95765 26.1816 7.06724 25.9942 7.17543 25.8152C7.27391 26.2375 7.51384 26.3326 7.89944 26.3354C8.73861 26.3452 9.45438 26.0152 10.1687 25.6445C10.4836 25.4795 10.829 25.4515 11.1743 25.4208L11.3311 25.3509C12.1758 24.7928 13.1162 24.418 14.0053 23.9467C14.194 23.8446 14.5185 23.8054 14.377 23.439C14.0844 23.3929 13.8264 23.4642 13.6128 23.674Z" fill="#4F5E54"/>
<path d="M13.8832 3.73895C13.9457 3.5907 13.9858 3.43686 13.9553 3.27323C13.7514 3.29421 13.5836 3.40328 13.4685 3.55433C12.664 4.61444 11.6986 5.54729 11.0536 6.72907L11.3019 6.6004C11.5571 6.26334 11.6556 6.33607 11.8027 6.70669C11.9386 7.04654 12.2034 7.185 12.5765 6.88991C13.0148 6.54446 13.4449 6.19902 13.7861 5.75288C13.8791 5.6312 13.9927 5.50812 13.8818 5.34029C13.4878 4.7445 13.4879 4.25921 13.8832 3.73895Z" fill="#D9DDCA"/>
<path d="M17.6325 28.8753C17.4244 29.134 17.0984 28.9732 16.8293 29.1088L17.0943 29.2794L17.4744 29.3508C17.6602 29.3396 17.8462 29.327 18.0334 29.3158C18.6104 29.3214 19.1832 29.2682 19.7464 29.1326C19.8906 29.1102 20.0362 29.0878 20.1805 29.0683C20.5106 28.8892 20.906 29.0389 21.2305 28.8445C21.501 28.8291 21.7576 28.762 22.0003 28.6431L22.2112 28.5242C22.5081 28.348 22.7744 28.1466 22.8645 27.7844C22.8687 27.4823 22.8174 27.2124 22.4775 27.1131C22.3111 27.0879 22.164 27.1578 22.0142 27.2096C20.7755 27.7774 19.4966 28.2291 18.1942 28.6151C17.9958 28.6739 17.7726 28.6837 17.6325 28.8753Z" fill="#909F88"/>
<path d="M4.31128 28.0459C5.47641 27.899 6.53478 27.3886 7.64997 27.0711C8.58762 26.8026 9.49618 26.4669 10.3881 26.0683C10.5864 25.9802 10.8388 25.7621 11.0732 26.0502C11.2258 26.1565 11.3631 26.0739 11.5018 26.011C12.0816 25.7523 12.5685 25.3481 13.0692 24.9691C13.1899 24.8782 13.3188 24.7341 13.2398 24.5803C13.1385 24.3845 12.9555 24.4614 12.7876 24.5215C12.23 24.7159 11.7584 25.081 11.2286 25.3285V25.3299C10.4573 25.4795 9.82905 26.0138 9.04814 26.1495C8.02726 26.3243 7.07572 26.9145 5.97439 26.6459C5.67479 26.5732 5.36407 26.6711 5.1255 26.9075C4.80093 27.2487 4.50547 27.6095 4.31128 28.0459Z" fill="#3A4C46"/>
<path d="M16.502 3.22846C16.4188 3.30259 16.3383 3.37531 16.158 3.53894C17.0928 3.64243 17.896 3.99348 18.7698 4.00467L19.0652 3.85641C19.4148 3.13755 20.0778 2.6956 20.5688 2.10261C20.5563 1.90542 20.3191 1.85229 20.29 1.66488C20.1957 1.51803 20.0777 1.40754 19.8988 1.37817C19.2705 1.45229 19.1179 1.66068 19.24 2.26905C19.3079 2.6075 19.043 3.02987 18.6962 2.98371C18.2122 2.91798 17.7517 3.13476 17.2094 3.01588C17.7794 2.6033 18.3204 2.23548 18.7851 1.77676C18.8739 1.68725 19.161 1.63271 18.9294 1.40195C18.7962 1.43552 18.6297 1.36557 18.5395 1.52781C18.4244 1.67605 18.2538 1.64109 18.0998 1.66626C17.9473 1.75717 17.7601 1.79494 17.6519 1.95578C17.2385 2.35297 16.846 2.76834 16.502 3.22846Z" fill="#B6BFA9"/>
<path d="M7.80219 19.0349C7.74393 19.2699 7.68436 19.5035 7.6261 19.737L7.64967 19.8783L7.8133 19.8713C8.55815 19.5454 9.37105 19.3846 10.0521 18.8881C10.7595 18.3706 11.5182 17.9259 12.0883 17.2322C12.3324 16.9343 12.6167 16.6672 13.0647 16.8448C13.2326 16.9119 13.3519 16.7819 13.4795 16.7035C13.7555 16.5343 14.0066 16.3161 14.3422 16.2644C14.4809 16.1735 14.5683 16.0294 14.6903 15.9203C14.8401 15.7847 15.0011 15.6532 14.9553 15.4113C14.8069 15.0253 14.5447 15.1693 14.2909 15.263C13.9358 15.5078 13.65 15.884 13.159 15.8756V15.877C12.2519 16.3259 11.5029 17.0182 10.6457 17.5455C9.77597 18.0825 8.92991 18.6741 7.91042 18.9063L7.80219 19.0349Z" fill="#A1A186"/>
<path d="M35.5171 6.84234C35.2758 6.61996 35.0746 6.25495 34.6876 6.66193H34.3284C34.2105 6.50529 34.3172 6.37102 34.456 6.28151C34.7542 6.08571 34.7862 5.91929 34.4755 5.67874C34.2383 5.49273 34.1328 5.56685 33.9747 5.76265C33.7139 6.08152 33.6973 6.50528 33.4809 6.84094C33.3589 7.38637 33.2313 7.93043 33.302 8.49824L33.3145 8.61572L33.3283 8.75137C33.8096 8.73179 34.0149 8.30664 34.3464 8.04371C34.5628 8.16259 34.4906 8.48285 34.7111 8.59754C35.0843 8.06189 35.2022 7.40596 35.5171 6.84234Z" fill="#84B28A"/>
<path d="M7.04236 22.9691C7.35999 22.6754 7.73998 22.4908 8.14916 22.3803C8.67208 22.2404 8.80673 21.8474 8.46274 21.4083C8.30184 21.2027 8.1159 21.0111 8.56392 20.8936C8.77337 20.8391 8.94954 20.6545 9.13541 20.5216C9.74294 20.0811 10.442 20.0503 11.1522 20.0685C11.4948 19.8167 11.8401 19.6195 12.2992 19.744C12.5087 19.8013 12.6697 19.6867 12.6073 19.4181C12.2508 19.1552 11.9096 19.007 11.456 19.2825C11.1883 19.4447 10.8207 19.179 10.5031 19.3217C9.89972 19.6559 9.29638 19.9929 8.68746 20.3202C8.44334 20.4503 8.21992 20.7076 7.85929 20.495C7.68036 20.3887 7.59858 20.6573 7.50981 20.7999C7.21714 21.4936 7.24764 22.2558 7.04236 22.9691Z" fill="#7D896F"/>
<path d="M11.2588 21.1104C10.8691 21.2139 10.4656 21.2391 10.0744 21.1957C9.73735 21.1566 9.68044 21.2894 9.67766 21.5733C9.6735 22.3216 9.43907 22.6293 8.75386 22.9006C8.09362 23.1621 7.44029 23.4488 6.78421 23.7243L6.66772 23.8138C6.61085 23.9943 6.54431 24.1705 6.49854 24.3537L6.50409 24.4488C6.6636 24.5844 6.81343 24.4935 6.9133 24.3858C7.47922 23.7789 8.31138 23.8768 8.99104 23.5761C9.16442 23.5006 9.3559 23.467 9.5376 23.4111C9.89962 23.2992 10.0882 23.1299 10.0605 22.667C10.0466 22.4013 9.81636 21.8838 10.4003 21.7873C10.6458 21.6517 10.9135 21.7565 11.1687 21.7216C11.3796 21.6922 11.5848 21.6992 11.6916 21.4699C11.6666 21.2041 11.6056 20.9803 11.2588 21.1104Z" fill="#6C7863"/>
<path d="M27.826 21.9566C27.5596 21.8041 27.3294 21.5678 26.9868 21.5901C26.837 21.5999 26.6483 21.551 26.5776 21.7216C26.3765 22.1985 26.1116 21.965 25.8467 21.8097L25.6178 21.8335C25.5318 21.9552 25.4444 22.0768 25.3265 22.2433C25.6636 22.3188 25.8979 22.4964 26.0172 22.8335C26.1115 23.0978 26.3376 23.2237 26.6261 23.2894C27.0921 23.3943 27.586 23.453 27.9453 23.8292L28.0091 23.8418L28.0285 23.8055L28.0881 23.5481C28.1449 23.3132 28.0091 23.0992 28.0202 22.8684L28.2601 22.6069C28.3072 22.4055 28.3475 22.2041 28.1658 22.0405L27.826 21.9566Z" fill="#738F87"/>
<path d="M32.4546 9.29117C31.7583 9.11775 31.4601 9.48698 31.2853 10.1331C31.0093 11.1541 31.7124 11.5974 32.209 12.1848C32.3103 12.3023 32.4421 12.3582 32.3977 12.5526C32.2798 13.0589 32.4505 13.1848 32.904 12.9288L33.0649 12.9736L33.169 12.8421C33.1856 12.3764 33.5171 11.996 33.5129 11.5247C32.8069 11.5303 32.5294 10.9191 32.0981 10.5289C32.3935 10.1681 32.0912 9.63102 32.4546 9.29117Z" fill="#71A896"/>
<path d="M32.4546 9.2912C32.1509 9.44365 31.9192 9.57931 32.1412 10.0157C32.3118 10.3499 31.9067 10.3681 31.5599 10.5569C32.3755 10.5233 32.3145 11.3625 32.8901 11.5317C33.1301 11.6002 33.3021 11.6702 33.5129 11.5247C33.8417 11.224 33.8597 10.7737 34.0428 10.4031C34.151 9.64645 34.1509 9.64644 33.5198 9.43106C33.2105 9.33456 32.897 9.34295 32.5836 9.39469L32.4546 9.2912Z" fill="#6C9D8A"/>
<path d="M7.89111 18.9972C8.79825 18.9595 9.49316 18.4392 10.2144 17.9721C10.5473 17.7567 10.9495 17.621 11.2283 17.3525C11.8192 16.7833 12.6362 16.5274 13.1591 15.877L12.8859 15.8477C12.5211 15.4169 12.2811 15.7148 12.1979 16.0295C12.1174 16.3218 11.901 16.4113 11.7262 16.456C11.0826 16.6183 10.6306 17.1707 9.97034 17.2798L9.74562 17.5162C9.6194 17.8602 9.54581 18.1651 9.00902 17.9175C8.70109 17.7749 8.33498 18.1944 7.97157 18.2951L7.95207 18.4154C7.94097 18.6098 7.77737 18.7888 7.89111 18.9972Z" fill="#B0A98D"/>
<path d="M33.2841 0.17401C32.8569 0.19359 32.6807 0.436936 32.4103 0.782381C32.0399 1.2523 31.886 1.94039 31.2619 2.20192C30.7847 2.40052 30.8568 2.90958 30.6931 3.27461C30.4545 3.81165 29.9857 4.07879 29.5654 4.38927C29.3477 4.55011 29.1354 4.70114 28.9884 4.92352C28.8968 5.06197 29.0204 5.06897 29.1188 5.07177C29.2867 5.20044 29.4475 5.15847 29.607 5.05777C29.7305 4.94169 29.897 4.89274 30.0329 4.79624C30.9622 4.07319 31.5184 3.02708 32.2715 2.15158C32.8097 1.52642 33.341 0.895668 33.8486 0.243938L33.832 0.167011C33.6475 0.0117707 33.4658 0.115271 33.2841 0.17401Z" fill="#89ABA7"/>
<path d="M20.2901 1.66487C20.2624 1.88864 20.4316 1.98513 20.5689 2.10261C20.7256 2.16974 20.8893 2.2089 21.0932 2.22848C19.9225 3.00888 19.1693 4.24662 17.957 4.95149C18.394 5.26197 18.8393 5.20462 19.2762 4.81862C19.5647 4.56408 19.7339 4.21304 20.0376 3.9641C20.3705 3.69418 20.6466 3.38649 21.0808 3.22985C21.5565 3.05923 21.8172 2.63546 21.8463 2.10261C21.3623 1.82849 20.7548 1.99913 20.2901 1.66487Z" fill="#C0CCB9"/>
<path d="M3.60936 29.1773C3.45401 28.6291 4.03512 28.52 4.20157 28.1648C3.89225 28.1802 3.63979 28.4221 3.31799 28.3886C3.16264 28.5508 2.88109 28.3676 2.75071 28.6011C2.59397 28.748 2.39285 28.727 2.20144 28.7424C1.81445 28.8445 1.42617 28.9452 1.0475 29.0794L0.846349 29.12C0.717353 29.2137 0.563308 29.1969 0.41628 29.2123C0.0611931 29.2487 -0.0954524 29.4109 0.0598981 29.7745C0.0931875 30.0249 0.301246 29.927 0.441339 29.9675C0.756201 30.0319 1.06411 30.0011 1.36094 29.871L1.55505 29.8445C2.05578 29.7144 2.58568 29.692 3.06144 29.4585L3.13364 29.4431L3.48596 29.3494L3.60936 29.1773Z" fill="#524655"/>
<path d="M5.12534 26.9075C5.63023 26.7928 6.12959 26.7368 6.63864 26.9186C6.97292 27.0389 7.25448 26.776 7.5638 26.7075C8.31697 26.5424 9.04662 26.2851 9.80951 26.1257C10.3144 26.0194 10.7568 25.6054 11.2284 25.3299C10.3781 25.1551 9.76366 25.7662 9.03823 26.0096C8.77052 26.0991 8.54173 26.3187 8.24907 26.0781L8.03681 26.0501C7.36408 26.2334 7.36543 26.2362 7.3044 25.5411C7.11576 25.5019 7.08532 25.6515 7.03539 25.7732C6.98129 25.9019 6.87716 26.1005 6.78561 26.0529C6.2183 25.755 5.91326 26.3872 5.44583 26.404C5.2558 26.4711 5.19201 26.6431 5.11572 26.8054L5.12534 26.8571V26.9075Z" fill="#43564E"/>
<path d="M35.0568 4.09973C35.5964 3.59345 36.1373 3.10256 36.8849 2.90956C37.0999 2.85361 37.283 2.82004 37.4855 2.90676C37.6908 2.65222 37.8975 2.39629 38.1028 2.14315C38.2359 1.897 38.3996 1.67604 38.6216 1.50541L38.666 1.36696L38.3206 1.31521C37.0389 1.81869 35.8571 2.52496 34.6351 3.15012C34.4576 3.24243 34.2426 3.31794 34.1621 3.54171C34.4021 3.82142 34.7059 4.00043 35.0568 4.09973Z" fill="#80C0A7"/>
<path d="M33.8486 0.243918C33.721 0.278882 33.5143 0.274686 33.4796 0.34881C33.2105 0.961379 32.6932 1.35717 32.2854 1.84946C31.535 2.75433 30.9788 3.82004 30.0495 4.57945L30.0134 4.74447C30.1383 4.86335 30.2894 4.85637 30.4434 4.83818C30.9191 4.59483 31.4253 4.60743 31.9372 4.65358L32.2063 4.441L32.2243 4.35569L32.13 4.22981C31.9622 4.09835 31.7569 4.04521 31.5114 3.96968C31.8776 3.24383 32.2674 2.56412 32.8402 2.03826C33.1745 1.73478 33.3533 1.27465 33.8097 1.08864C33.9345 1.03689 34.0345 0.829904 33.9735 0.687251C33.8556 0.404741 34.1301 0.446712 34.2133 0.334828L34.4547 0.284464L34.3978 0.196372C34.2147 0.213154 34.0317 0.228534 33.8486 0.243918Z" fill="#81A69F"/>
<path d="M3.60932 29.1773L3.50244 29.2906L3.88673 29.3675C4.11004 29.3494 4.33337 29.3298 4.55669 29.3102C4.86739 29.4207 5.18222 29.2067 5.49431 29.3186L5.48604 29.3144C5.83142 29.4249 6.167 29.2738 6.50683 29.2766C6.7565 29.2515 7.00338 29.2109 7.21837 29.0696C7.33211 28.9941 7.4306 28.871 7.39731 28.7284C7.35709 28.5606 7.19489 28.5829 7.07005 28.5815C7.59852 28.2823 8.22133 28.141 8.68738 27.7046C8.97866 27.5172 9.26992 27.3298 9.5612 27.1438L9.5417 27.0222C8.23509 27.5592 6.92851 28.0949 5.6219 28.6361C5.2682 28.7829 4.91726 28.9396 4.53027 28.9676C4.32499 29.1228 4.04342 28.9801 3.8423 29.1508L3.60932 29.1773Z" fill="#7F988C"/>
<path d="M18.9891 1.44804C18.3066 2.00607 17.6464 2.59626 16.8267 3.05639C17.5133 3.39903 18.1013 3.03959 18.7075 3.16966C19.1915 3.27315 19.494 2.59066 19.322 2.11236C19.1528 1.64244 19.6118 1.55014 19.8989 1.37811C19.6465 1.21168 19.3747 1.31798 19.1098 1.32637L18.9891 1.44804Z" fill="#B1B7A5"/>
<path d="M26.9896 25.0823C26.6026 25.4348 26.145 25.1089 25.733 25.2166C25.7802 25.6264 25.4431 25.6403 25.1948 25.7466C24.7399 26.0375 24.2572 26.2711 23.7676 26.4949C23.5262 26.6068 23.2238 26.7298 23.3057 27.0669C23.3986 27.4445 23.726 27.299 23.9798 27.2767L24.3224 27.2319C25.0645 26.8921 25.7773 26.4893 26.5388 26.19C26.9272 25.9187 26.8426 25.4529 26.9896 25.0823Z" fill="#80988D"/>
<path d="M26.5388 26.19C25.6635 26.1788 25.0339 26.7746 24.3043 27.1228C23.7578 27.3074 23.2182 27.5046 22.7563 27.871C22.5455 28.0878 22.336 28.3046 22.1266 28.5214C22.2875 28.5885 22.4414 28.5745 22.5856 28.4724C22.7368 28.3983 22.9463 28.4906 23.06 28.3074C23.2639 28.1899 23.4984 28.1423 23.6968 28.0151L23.7938 27.9885C23.981 27.8864 24.1808 27.8137 24.3639 27.7032C25.2003 27.3606 25.9825 26.941 26.5388 26.19Z" fill="#87A4A1"/>
<path d="M8.68739 27.7046C8.11037 27.9592 7.53329 28.2123 6.95627 28.4627C6.82728 28.5186 6.59287 28.5032 6.68442 28.7242C6.75238 28.8906 6.91047 28.762 7.03253 28.72C7.11576 28.6892 7.21288 28.6962 7.34327 28.6822C7.21288 29.085 6.85921 29.0822 6.60815 29.2263L6.66505 29.3116L6.99515 29.2934C7.2254 29.3466 7.44873 29.3214 7.66511 29.2235C7.72753 29.1466 8.1076 29.334 7.85515 28.9913L7.91055 28.9032C8.50005 29.0892 8.51672 28.548 8.73588 28.2571C8.83713 28.1228 9.00914 28.1424 9.1631 28.1326C9.28794 28.1242 9.51267 28.299 9.50296 28.0165C9.49464 27.8151 9.32398 27.6655 9.10066 27.7046C8.95918 27.7312 8.82748 27.8669 8.68739 27.7046Z" fill="#91A395"/>
<path d="M7.5099 20.7999C7.68605 20.751 7.84 20.2685 8.04806 20.772L8.18257 20.7915C8.95932 20.3412 9.73191 19.8867 10.5059 19.4335C10.8624 19.2307 11.4463 19.3161 11.4491 18.6713L11.3812 18.5161C11.1301 18.3622 10.9082 18.4294 10.7015 18.6126C10.1051 19.1426 9.31438 19.3678 8.70962 19.8839C8.54317 20.0265 8.38231 20.0293 8.19367 19.9006C8.073 19.8167 7.92041 19.7524 7.7609 19.8377L7.66106 19.8517C7.4752 20.0237 7.54736 20.2699 7.48633 20.4769L7.5099 20.7999Z" fill="#8B957A"/>
<path d="M33.5241 9.53035C34.0609 9.60307 33.9735 10.0492 34.0429 10.403C34.2662 9.80027 34.488 9.20028 34.7113 8.5975C34.6905 8.28702 34.5657 8.0143 34.4104 7.68424C34.0997 8.13038 33.7557 8.47722 33.3285 8.73036C33.1274 9.06321 33.255 9.31497 33.5241 9.53035Z" fill="#75AB85"/>
<path d="M38.3785 1.41034L38.667 1.36699C39.0069 1.16001 39.3452 0.950213 39.6865 0.746023C39.8945 0.621551 40.0804 0.480292 39.9639 0.199181C39.8557 -0.0637479 39.6268 0.00898266 39.4202 0.0299611C39.269 0.0453452 39.1177 0.0565392 38.9652 0.0705248L38.9291 0.168417C39.0554 0.171214 39.1802 0.174005 39.416 0.1796C39.1066 0.382391 38.8806 0.529249 38.6531 0.678895C38.3049 0.824345 38.3397 1.11664 38.3785 1.41034Z" fill="#70B0A4"/>
<path d="M29.8929 19.2811C29.6099 19.1189 29.2964 19.2559 28.9982 19.1804C28.7208 19.1091 28.5696 19.323 28.5419 19.5706C28.5072 19.8629 28.6806 19.986 28.9635 19.9594L29.2479 19.9272C29.5572 19.8084 29.7417 19.5608 29.8929 19.2811Z" fill="#6F8D89"/>
<path d="M31.6417 0.243929C32.026 0.201973 32.4101 0.161411 32.793 0.118056L32.775 0.0299457C32.191 -0.0497722 31.6196 0.0383418 31.0551 0.192183L31.062 0.189384L31.0522 0.290076L31.0703 0.308258C31.2811 0.466295 31.4628 0.3698 31.6417 0.243929Z" fill="#B1C1BB"/>
<path d="M28.0203 22.8684C27.9093 23.109 27.9272 23.3356 28.0881 23.5481L28.1381 23.5621C28.1659 23.3621 28.17 23.1649 28.0619 22.9831L28.0203 22.8684Z" fill="#79948C"/>
<path d="M21.0225 22.3146C21.0725 22.0055 21.4386 22.1174 21.5607 21.9062C21.7729 21.5566 22.1002 21.4377 22.4594 21.2517C23.318 20.8027 24.3737 20.4629 24.6858 19.3301L24.7093 19.2783C25.4112 19.1678 25.0949 18.4881 25.3349 18.1175C25.4264 17.9748 25.536 17.9287 25.6359 17.8364C26.1283 17.386 26.6832 17.2308 27.3379 17.0742C28.2824 16.849 28.3781 16.677 29.3047 17.0406L29.6306 17.0252C29.9218 16.7931 30.2714 16.7945 30.6113 16.7343C30.9289 16.6798 31.1508 16.5371 30.7985 16.2141C30.5765 16.0113 30.5169 15.6169 30.0633 15.6742C29.9121 15.6938 29.7721 15.4085 29.7568 15.2281C29.736 15.0015 29.9788 15.0882 30.1064 15.0365C30.2465 14.9791 30.399 14.933 30.5197 14.8477C30.8276 14.6281 30.7652 14.4449 30.4365 14.3246C30.0911 14.1973 29.5474 14.2575 29.8026 13.589L29.5945 13.3358C29.0092 13.2421 29.1451 12.8337 29.2367 12.4841C29.2908 12.2771 29.2367 12.0911 29.1993 11.9177C29.0578 11.2548 29.0772 10.61 29.2686 9.9653C28.7887 10.1163 28.7748 10.6058 28.5584 10.9513C28.3448 11.5303 28.5071 12.1205 28.6125 12.6743C28.6874 13.0743 28.6417 13.3316 28.4017 13.6169C27.9218 14.1862 27.9287 14.1918 28.367 14.7763C28.6653 15.1763 28.5764 15.7302 28.1686 16.0323C28.016 16.1455 27.8801 16.0756 27.7442 15.9987C27.1311 15.6588 26.5388 15.8099 26.174 16.4127C26.0603 16.6001 25.9535 16.7609 25.7219 16.8182C25.0062 16.9987 24.7176 17.5986 24.418 18.1874C24.2932 18.5259 24.1281 18.8336 24.0879 19.2196C24.0421 19.6643 23.5845 19.8223 23.2058 19.9258C22.3222 20.172 21.5648 20.6335 20.8699 21.2111C20.6868 21.3649 20.476 21.4447 20.2721 21.5454C19.9919 21.681 19.7866 21.8586 19.8338 22.2097C19.8809 22.4698 20.0211 22.7076 20.0156 22.9803L20.1528 23.053C20.5425 22.9257 20.5606 22.3551 21.0225 22.3146Z" fill="#9CB7B1"/>
<path d="M28.6817 10.9751C28.887 10.645 28.9856 10.252 29.2685 9.96532C29.2602 9.80309 29.3281 9.68142 29.4682 9.6003C29.9134 8.68145 30.5779 7.91643 31.166 7.09548L31.2922 6.84653C30.9552 6.6801 30.8192 6.95282 30.6403 7.14442C29.9412 7.89125 29.41 8.76395 28.9037 9.64365C28.1991 10.8744 27.2392 11.8995 26.382 13.0072C25.9936 13.4547 25.472 13.768 25.2043 14.1904C25.3694 14.0393 25.5373 13.7722 25.6386 13.4575C25.8037 12.9457 25.8855 12.4086 26.131 11.9233C26.2017 11.7849 26.203 11.624 26.0754 11.4939C25.7314 11.466 25.7092 11.7695 25.6149 11.9737C25.411 12.4212 25.2862 12.9107 24.9187 13.2701L24.7827 13.4799C24.5621 14.0477 24.1086 14.4701 23.8326 15.0029C23.7272 15.2057 23.5149 15.4351 23.6786 15.6379C23.87 15.8756 24.0836 15.5861 24.2889 15.5386C24.6329 15.3624 24.9062 15.091 25.1934 14.8435C25.5415 14.5946 25.9021 14.3624 26.1768 14.0211C26.7163 13.3345 27.4098 12.7876 27.9188 12.0729C28.2074 11.7303 28.4487 11.3569 28.6817 10.9751Z" fill="#DCDDDD"/>
<path d="M12.3505 14.7903C12.5031 14.7092 12.585 14.5134 12.7861 14.5092C13.0607 14.4911 13.3353 14.4071 13.603 14.5428C14.3742 13.9876 15.3189 13.6407 15.7683 12.7023C15.9444 12.3373 16.1969 12.182 16.6283 12.1932C17.3371 12.2114 17.3605 12.1694 17.4299 11.4604C17.4604 11.1443 17.6352 11.1946 17.8558 11.1471C18.5992 10.9835 19.3274 10.7597 19.7574 10.0338L19.849 9.78909L19.5216 9.85062C19.0236 10.6016 18.2954 10.4492 17.5853 10.3779C17.2399 10.7135 16.7461 10.6674 16.3522 10.873C15.6878 11.2156 15.5006 11.9862 14.9818 12.4603C14.8306 12.5988 14.7779 12.8995 14.4686 12.8128C13.8389 13.3526 13.0898 13.7484 12.5503 14.4043C12.4518 14.5274 12.3352 14.6169 12.3505 14.7903Z" fill="#BFC2A9"/>
<path d="M19.8212 8.38773C20.5272 8.26325 21.3747 7.99892 21.6729 7.50663C22.0474 6.88287 22.5579 6.61156 23.0323 6.19059C23.3194 5.93606 23.5399 5.53326 23.8395 5.21998C24.1516 4.89272 24.1391 4.37946 23.8908 4.00744C23.6661 3.66899 22.6966 3.60744 22.4053 3.83681C22.225 3.97946 22.0668 4.15149 21.8282 4.19625C21.6285 4.44939 21.4579 4.69972 21.5606 5.06055C21.6313 5.31369 21.5246 5.4955 21.2347 5.54724C20.9795 5.59479 20.7298 5.67591 20.4773 5.74304C19.6326 6.03814 19.4037 6.95839 18.7684 7.47446C18.6048 7.60872 18.6311 7.93459 18.9903 8.03389C19.2774 8.11221 19.5799 8.18354 19.8212 8.38773Z" fill="#D1D6CB"/>
<path d="M26.4583 13.0799C27.4874 11.9289 28.464 10.7387 29.2241 9.37929C29.6846 8.55973 30.263 7.8157 30.8428 7.07866C30.9468 6.9458 31.105 6.85069 31.2922 6.8465L31.4974 6.70524L31.6015 6.57518C31.8179 6.11646 32.1854 5.75842 32.4101 5.30668C32.467 5.1934 32.5822 5.06474 32.4352 4.94726L32.1161 4.99341C31.8511 5.14865 31.5599 5.27173 31.3698 5.52767C31.1049 5.8801 30.7472 6.09688 30.3602 6.28009C29.994 6.53323 29.5778 6.71224 29.1603 6.83112C28.3364 7.06607 27.8092 7.63389 27.5568 8.37513C27.2294 9.32755 26.7593 10.2142 26.4444 11.1723C26.2405 11.7946 26.3986 12.4939 26.0061 13.0645L26.0672 13.2603C26.2531 13.3316 26.3334 13.1526 26.4583 13.0799Z" fill="#EFF0F1"/>
<path d="M31.4934 6.60041L31.4975 6.7053C31.8748 6.82418 31.9233 6.48433 32.0232 6.28293C32.2534 5.82421 32.5031 5.65919 32.9025 6.10113C33.0413 6.25078 33.2188 6.30532 33.4213 6.26197C33.9665 5.54031 34.5116 4.82004 35.0567 4.09978C34.8153 3.85224 34.5823 3.58932 34.194 3.6047L33.9775 3.5991C33.5586 4.01867 33.0649 4.15433 32.4935 4.01727L32.1634 4.17391L32.1674 4.2844L32.1896 4.2872C32.3644 4.483 32.9026 4.14035 32.8194 4.71795C32.7528 4.88578 32.6266 5.00885 32.5253 5.1515C32.1744 5.62981 31.8097 6.09833 31.4934 6.60041Z" fill="#8CBFA8"/>
<path d="M14.7517 14.4225L14.674 14.782L14.986 14.7932C15.4909 14.1568 16.2857 14.2267 16.939 13.9596C17.0972 13.8953 17.2775 13.8715 17.412 13.7624C17.8143 13.4379 18.2665 13.3554 18.7631 13.4463C19.0946 13.5079 19.3525 13.4198 19.5342 13.1009C19.6674 12.8617 19.9033 12.7163 20.1543 12.6058C20.4622 12.4673 20.6703 12.2603 20.8145 11.9317C20.9837 11.5443 21.4067 11.4212 21.7535 11.2352L21.8964 11.1499C22.4096 10.7038 22.7828 10.1066 23.3806 9.74854C24.1878 9.18492 25.0963 8.8171 25.9785 8.40312C26.3807 8.21432 26.7386 7.8367 27.2559 7.97936C27.5694 7.79475 27.6832 7.50526 27.6749 7.15282L27.4238 7.00176C26.5929 7.51364 25.6734 7.81433 24.7732 8.16118L24.6816 8.2311C24.4056 8.61431 23.988 8.8059 23.6038 9.04506C22.4526 9.77091 21.3902 10.6394 20.1543 11.2338C19.8783 11.3667 19.6633 11.5862 19.311 11.5653C19.1182 11.5541 18.8866 11.6967 18.7728 11.873C18.2832 12.6338 17.5257 12.8142 16.7143 13.0338C15.9417 13.2421 15.165 13.6156 14.7517 14.4225Z" fill="#9DACA1"/>
<path d="M24.6815 8.23106C25.6608 8.02408 26.6137 7.75416 27.4223 7.11922C27.5485 7.02132 27.5736 7.129 27.5985 7.22271C27.8038 7.24369 27.8385 7.06187 27.9162 6.9388C28.4544 6.0647 29.1409 5.40177 30.2117 5.26891L30.3727 5.21158C30.7929 4.79481 31.3255 4.75984 31.8678 4.75425L31.9691 4.54166C31.4573 4.47034 30.9441 4.37663 30.4725 4.6969C30.1992 4.8885 29.8413 4.72208 29.5667 4.90948C29.4627 5.0899 29.2755 5.03955 29.1187 5.07172C28.8802 5.27871 28.6401 5.48429 28.4002 5.68987C28.8066 5.03535 28.5611 4.17524 29.2352 3.57805C29.6694 3.19205 29.944 2.57249 30.3407 2.083C30.8081 1.5026 31.3407 0.95156 31.6417 0.243889C31.4517 0.266266 31.2617 0.287239 31.0702 0.308218C30.5321 0.606111 30.073 0.962738 29.797 1.56132C29.6444 1.89278 29.2464 2.07461 29.0494 2.41446C28.9204 2.63683 28.6957 2.79346 28.772 3.12632C28.8427 3.434 28.5389 3.35429 28.3752 3.39345C28.0604 3.47177 27.9577 3.67455 28.2074 3.87595C28.5542 4.15566 28.4085 4.36264 28.1921 4.58501C27.9591 4.82556 27.8191 5.02976 27.8926 5.43394C27.9592 5.80176 27.6013 6.27868 27.3974 6.4493C26.9632 6.80873 26.5318 7.22969 25.9368 7.42549C25.4832 7.57374 24.9603 7.74576 24.6815 8.23106Z" fill="#A1BAB5"/>
<path d="M14.7516 14.4225C15.1497 13.9862 15.6753 13.7191 16.1511 13.3946C16.373 13.2422 16.6685 13.1359 16.9931 13.1037C17.6561 13.0352 18.2885 12.8422 18.7074 12.2058C18.9446 11.8436 19.2401 11.4073 19.7935 11.803L19.9711 11.7415C19.9489 11.2059 20.4441 11.2968 20.709 11.1261C21.7063 10.4786 22.752 9.90099 23.6037 9.04507C22.9726 9.3066 22.3416 9.56813 21.7104 9.82966C20.8643 10.0506 19.9766 10.1779 19.3427 10.8856L19.2511 10.9541C18.4993 11.094 18.0666 11.6198 17.5909 12.1751C17.276 12.5429 16.6241 12.4632 16.1664 12.7247C15.6504 13.0198 15.2065 13.3974 14.807 13.831C14.789 14.0282 14.771 14.2253 14.7516 14.4225Z" fill="#A8B5A6"/>
<path d="M14.807 13.8309C15.6461 13.3121 16.3549 12.5373 17.4355 12.4953C17.7226 12.4827 17.846 12.2338 17.9667 12.0128C18.1956 11.596 18.4313 11.2016 19.0028 11.266L19.2081 11.1821C19.8268 10.4212 20.7589 10.2856 21.5884 9.94713L21.7104 9.82964L21.7617 9.50518C21.6438 9.33176 21.5287 9.51777 21.4399 9.57511C20.9239 9.90657 20.3511 10.0087 19.7574 10.0338C19.2928 10.4968 18.6435 10.6604 18.1303 11.0464L17.9736 11.0562C17.4729 10.8939 17.1082 10.8534 17.3107 11.6016C17.3634 11.796 17.3259 12.0995 16.9015 12.031C16.1747 11.9149 15.6822 12.1974 15.4811 12.9806C15.3882 13.3386 14.9582 13.4701 14.6724 13.6827C14.3035 13.9554 13.9179 14.2029 13.603 14.5428C14.0067 14.7064 14.2799 14.4799 14.4686 14.1806C14.5657 14.0295 14.6696 13.9232 14.807 13.8309Z" fill="#B4BDAA"/>
<path d="M21.0224 22.3146C20.6715 22.3244 20.3538 22.3691 20.3122 22.8292L20.0515 23.0055C19.9905 23.3159 20.1971 23.5131 20.3829 23.6894C20.6298 23.9229 20.5674 24.0502 20.3094 24.2012C19.9335 24.4208 19.5646 24.66 19.5576 25.176C19.8225 25.3383 20.1777 25.3411 20.3525 25.6669L20.6008 25.6361C21.0807 25.2348 21.6729 25.0502 22.2277 24.8026C22.7659 24.5635 22.8242 24.4152 22.4317 23.9495L22.3499 23.9327C21.6023 23.888 21.0071 23.4782 20.8462 22.9509C20.763 22.674 20.8102 22.4838 21.0224 22.3146Z" fill="#96AAA4"/>
<path d="M24.9645 22.2531C24.9548 22.081 24.8217 21.9845 24.726 21.8685C24.4666 21.5566 24.5068 21.2922 24.8841 21.144C25.1448 21.0405 25.2822 20.8685 25.3613 20.6139C25.4265 20.4028 25.5443 20.2335 25.7787 20.1762C26.1505 20.0839 25.9548 19.8811 25.8633 19.6993C25.4582 19.7818 25.2198 19.9272 25.0436 20.4069C24.8189 21.0195 24.4999 21.7286 23.6579 21.8083C23.4901 21.8237 23.3528 21.9062 23.3445 22.088C23.3348 22.3468 23.2723 22.5356 22.9811 22.5887C22.8007 22.6223 22.8048 22.7621 22.8631 22.9048C22.9283 23.067 22.8228 23.2265 22.7188 23.2348C22.2042 23.274 22.3097 23.6125 22.35 23.9327L22.5912 23.9579C23.0878 23.6404 23.5289 23.2418 24.0698 22.9803C24.4152 22.8139 24.5193 22.316 24.9645 22.2531Z" fill="#859E99"/>
<path d="M12.1826 22.1859C12.6501 22.5636 13.2937 22.723 13.5781 23.3272C13.9318 23.5537 14.248 23.3761 14.5462 23.2125C15.083 22.9146 15.6087 22.6013 16.1288 22.2768C16.7419 21.8978 17.4132 21.7244 18.129 21.709C18.3758 21.7328 18.5034 21.5412 18.6616 21.4083C19.6783 20.5538 20.5827 19.5762 21.5564 18.6728C21.7811 18.463 21.9975 18.242 22.2527 18.0658L22.379 17.8504C22.3942 17.6532 22.2624 17.5427 22.1348 17.4308C21.935 17.1441 21.7561 17.0938 21.5259 17.4224C20.788 18.47 19.7712 19.2546 18.8918 20.165C18.3176 20.7608 17.6351 21.2965 16.7377 21.3622C16.5976 21.4713 16.4576 21.579 16.2759 21.6139L15.9832 21.7118C15.8154 21.8223 15.6864 22.0055 15.4562 22.0055L15.3035 22.0503C15.0483 22.1482 14.8389 22.3104 14.6377 22.4964C14.1883 22.916 13.911 22.916 13.4338 22.5062C13.1231 22.2391 12.8221 21.965 12.3671 22.0573L12.1826 22.1859Z" fill="#5C726A"/>
<path d="M12.1827 22.1859C12.6363 22.0894 12.9873 22.2447 13.3008 22.5845C13.7959 23.1188 14.2786 23.1216 14.7419 22.5845C14.9388 22.3565 15.2315 22.2936 15.4243 22.081C15.1441 21.8684 14.8709 22.0503 14.6018 22.1076C14.3174 22.1663 14.1899 22.088 14.1385 21.7789C13.9624 20.7048 13.2882 20.4055 12.3852 21.0069C12.1453 21.1664 11.8443 21.2041 11.639 21.4223C11.2908 21.7677 10.7485 21.4405 10.4004 21.7873C10.7929 21.7985 11.1757 21.9537 11.5765 21.8405C11.8817 21.7524 11.9247 22.1677 12.1827 22.1859Z" fill="#63756A"/>
<path d="M18.1678 21.674C18.1276 21.4684 17.9903 21.4433 17.8211 21.4936C16.9278 21.7509 16.0665 22.0572 15.2828 22.6055C14.7848 22.9551 14.2605 23.3635 13.5781 23.3271L13.2327 23.3635C13.3589 23.467 13.4851 23.5705 13.6128 23.674C13.8957 23.6824 14.1482 23.5677 14.4048 23.4768C14.8597 23.6488 15.1731 23.3229 15.4602 23.0936C15.7737 22.8432 16.0956 22.6166 16.4631 22.3817C16.3757 22.7229 15.9166 22.895 16.1135 23.3048C16.5241 23.3327 16.7641 23.0222 17.0582 22.8181C17.2954 22.5663 17.577 22.3705 17.8433 22.1523C17.9917 22.0307 18.2302 21.9495 18.1678 21.674Z" fill="#516966"/>
<path d="M33.5241 9.53038C33.4339 9.26885 33.3202 9.0157 33.3285 8.73039L33.3147 8.61572C33.004 8.81012 32.7764 9.08702 32.5836 9.39471C32.8832 9.53876 33.2092 9.49821 33.5241 9.53038Z" fill="#71A896"/>
<path d="M19.5728 25.1593C19.7809 24.7915 20.0223 24.4712 20.4273 24.2894C20.7463 24.1453 20.928 23.9481 20.5216 23.6376C20.3218 23.4824 20.2054 23.2195 20.0514 23.0055L20.0472 23.0013C19.4827 23.1202 19.3786 23.639 19.1456 24.0488L19.1303 24.3034C19.2912 24.8362 18.982 25.3061 18.896 25.8026C18.8474 26.0767 18.4632 26.1453 18.1705 26.1774C17.0747 26.3019 15.9914 26.5019 14.9109 26.7215C14.234 26.8585 13.5447 26.5914 12.8609 26.748C12.7347 26.7774 12.6639 26.6585 12.6264 26.5383C12.5377 26.2599 12.3546 26.0879 12.0592 26.0809C12.4462 25.9215 12.8872 25.8767 12.9788 25.3579C12.7319 25.2334 12.5544 25.39 12.3519 25.4949C11.7957 25.783 11.2824 26.1467 10.7012 26.3844C10.4169 26.4543 10.1964 26.6334 9.98413 26.8264L10.0035 26.9788C10.4279 27.527 11.0493 27.8753 11.6388 28.0753C12.0231 28.2053 12.6583 28.3326 13.0897 27.9997C13.6168 27.5942 14.1896 27.8683 14.732 27.7732C15.9983 27.5438 17.2717 27.355 18.5519 27.2166C18.7766 27.1942 18.9306 27.0473 19.0956 26.9145C19.5312 26.5606 19.5784 26.0082 19.7809 25.5383C19.8489 25.3816 19.6963 25.2572 19.5728 25.1593Z" fill="#A2B2A4"/>
<path d="M19.5731 25.1593C19.8297 25.9719 19.1348 27.025 18.3289 27.0571C17.4675 27.0907 16.6548 27.4585 15.7559 27.3676C15.5077 27.341 15.0581 27.5816 14.7322 27.7732C15.2717 27.9424 15.8336 27.9872 16.3884 28.0683C16.5909 28.306 16.8656 28.2879 17.1319 28.2627C17.7783 28.1998 18.4246 28.1186 19.0751 28.1732C19.8089 28.2347 20.1807 27.7494 20.5011 27.2082C20.6481 26.9564 20.5565 26.7117 20.3166 26.5565C20.0489 26.3816 20.1889 26.3075 20.3789 26.2306C20.5911 26.0809 20.6633 25.8879 20.5509 25.6418C20.3234 25.281 20.0031 25.1061 19.5731 25.1593Z" fill="#A2AD9C"/>
<path d="M20.3693 26.1285L20.0267 26.1662C19.9213 26.1858 19.7714 26.1565 19.752 26.3117C19.734 26.446 19.8519 26.5173 19.9532 26.5634C20.1709 26.6585 20.5787 26.7033 20.4206 26.9942C20.225 27.3564 20.0669 27.9228 19.5842 27.9452C18.5203 27.9942 17.4578 28.1536 16.3884 28.0683C15.7878 28.4067 15.0956 28.3326 14.459 28.5032C14.5658 28.6739 14.7115 28.7536 14.8973 28.6515C15.3176 28.4179 15.7392 28.5592 16.1193 28.706C16.6214 28.899 17.1096 28.9843 17.6326 28.8753C18.9988 28.6445 20.2653 28.1047 21.5414 27.597C21.7356 27.5187 21.9269 27.4319 22.1211 27.3494C22.2695 27.1201 22.282 26.9201 21.9907 26.7984C21.8326 26.7313 21.6759 26.6613 21.5872 26.5005C21.4235 26.2026 21.1682 26.1397 20.8603 26.1998C20.6897 26.232 20.5205 26.2418 20.3693 26.1285Z" fill="#9EA693"/>
<path d="M10.0036 26.9788L9.99119 26.8585L9.64862 26.9019L9.54175 27.0222L9.56125 27.1438C9.69441 27.0473 9.8372 26.9802 10.0036 26.9788Z" fill="#91A395"/>
<path d="M21.8422 11.1037C21.3304 11.273 20.7977 11.3918 20.6243 12.038C20.5675 12.252 20.3469 12.382 20.1153 12.4631C19.8642 12.5471 19.5716 12.6757 19.48 12.9079C19.2872 13.4058 18.9072 13.3652 18.5535 13.2827C18.1332 13.1848 17.8058 13.3428 17.4715 13.5288C16.9929 13.796 16.5367 14.0687 15.9347 14.0099C15.57 13.975 15.3175 14.3428 15.047 14.5666C14.9263 14.6687 14.8361 14.775 14.6738 14.782L14.4644 15.0351C14.3812 15.1498 14.1634 15.1945 14.273 15.4085C14.4658 15.4435 14.7029 15.0141 14.8583 15.4644C15.2494 15.6924 15.5033 15.3707 15.7974 15.2225C15.9486 15.147 16.0692 14.9092 16.2315 14.9806C16.7544 15.2113 17.1026 14.8309 17.4619 14.6253C18.2539 14.175 19.075 13.7806 19.8503 13.3051L19.9502 13.1778C20.5785 12.6505 21.0904 12.0058 21.6577 11.417C21.7437 11.3289 21.9046 11.2828 21.8422 11.1037Z" fill="#97A799"/>
<path d="M14.273 15.4085L14.4644 15.0351C13.9387 15.1735 13.4629 15.3875 13.1592 15.8756C13.7625 16.2868 13.9263 15.6239 14.273 15.4085Z" fill="#B0A98D"/>
<path d="M24.9644 22.253C24.6662 22.3551 24.2238 22.109 24.1475 22.7579C24.1225 22.9635 23.4469 23.1104 23.1348 23.3929C22.9476 23.5621 22.6244 23.5845 22.5787 23.9075C22.544 24.0977 22.6744 24.1565 22.8131 24.2096C23.2972 24.2068 23.6425 24.369 23.8103 24.8879C23.9172 25.218 24.2723 25.3355 24.5761 25.4459C24.8507 25.5438 25.1018 25.6697 25.3334 25.8431L25.5942 25.7452C26.0297 25.6697 26.0186 25.4823 25.7329 25.2166H25.7342C25.332 25.0459 24.9935 24.8082 24.834 24.3746C24.4928 24.4739 24.2016 24.2669 23.8825 24.218C23.766 24.1998 23.6578 24.1257 23.68 23.9844C23.6995 23.8544 23.7965 23.7998 23.931 23.8054C24.2723 23.8208 24.5567 23.5691 24.9284 23.6376C25.2502 23.6963 25.3057 23.4991 25.1476 23.204C24.995 22.9145 24.5982 22.6516 24.9644 22.253Z" fill="#809A93"/>
<path d="M24.8342 24.3747C24.7843 24.8893 25.059 25.1467 25.7345 25.2166C25.4667 24.9005 25.3336 24.439 24.8342 24.3747Z" fill="#80988D"/>
<path d="M32.4934 4.01723C33.198 4.45218 33.6654 3.89975 34.1939 3.60466C35.5338 2.76412 36.9639 2.1012 38.3787 1.41031C38.645 1.23269 38.3897 0.857879 38.6532 0.678863C38.0762 0.887249 37.6297 1.3166 37.1054 1.61589C36.6033 1.8984 36.1302 2.22287 35.5865 2.42846C34.8403 2.70678 34.2119 3.17389 33.6127 3.69695C33.4587 3.83261 33.2701 4.29833 32.9414 3.85359C32.7832 3.88575 32.5974 3.83541 32.4934 4.01723Z" fill="#6DA190"/>
<path d="M32.1674 4.28436L32.1633 4.17387C31.6987 3.92633 31.6875 3.72772 32.1091 3.34592C32.8429 2.67741 33.4422 1.87464 33.9956 1.04529C34.144 0.824322 34.1592 0.576782 34.2133 0.334832L33.8749 0.387978C33.9817 0.923626 33.4088 1.00753 33.2715 1.30122C33.0495 1.77534 32.621 2.00471 32.3325 2.37393C31.915 2.90538 31.725 3.54591 31.1368 4.13331C31.6181 4.05779 31.8747 4.2438 32.1674 4.28436Z" fill="#7B9F97"/>
<path d="M11.6389 21.4223C11.9634 21.3901 12.2534 21.3537 12.5253 21.0922C12.7347 20.8908 13.0745 20.695 13.4116 20.8838C13.7514 21.0754 14.0995 21.2992 13.9955 21.7831C13.8527 22.4502 14.2674 22.3579 14.6461 22.2656C14.9055 22.2041 15.1481 22.0796 15.4242 22.081C15.6322 22.0307 15.8264 21.9537 15.9734 21.7887L16.3188 21.7509C16.4312 21.6083 16.6101 21.5677 16.7543 21.4726C17.9638 21.3859 18.6935 20.551 19.473 19.7566C20.272 18.9426 21.1792 18.2364 21.795 17.2434L22.0377 17.5231L22.0931 17.456C22.157 17.2811 22.1389 17.1147 22.0349 16.9581C21.7852 16.7847 21.6437 16.9819 21.505 17.1343C21.2983 17.3623 21.1084 17.607 20.9239 17.8545L20.8406 17.9874C20.7782 18.1287 20.6742 18.235 20.5536 18.3287C20.2637 18.579 19.9918 18.8489 19.706 19.1049C19.5729 19.2643 19.4245 19.4056 19.2317 19.4909C18.9029 19.6587 18.6131 19.8643 18.4327 20.2083C18.2552 20.5468 17.821 20.502 17.5741 20.751L17.3896 20.7034C17.1441 20.2209 16.8931 20.4503 16.6296 20.6894C16.4063 20.8908 16.1773 21.0237 16.0095 20.6181C15.6419 19.7328 15.0192 19.4349 14.1093 19.7007L13.7764 19.7902C13.5447 19.9006 13.2424 19.9034 13.1397 20.2111C12.3879 20.2447 11.9606 20.9677 11.2588 21.1104C11.4849 21.0908 11.5418 21.2824 11.6389 21.4223Z" fill="#6A7E74"/>
<path d="M13.1397 20.2112C13.3616 20.1091 13.5849 20.0084 13.8068 19.9063C14.0412 19.6909 14.4185 19.7776 14.6279 19.5119C14.6182 19.2126 14.3617 19.0699 14.2202 18.856C13.3866 18.6811 12.8691 18.8713 12.5987 19.449C12.5307 19.5916 12.4767 19.7259 12.2659 19.6098C11.7943 19.3483 11.4725 19.7385 11.1035 19.9161L11.152 20.0685C11.5168 20.3077 11.8483 20.5972 12.3268 20.2196C12.5307 20.0587 12.8664 20.0867 13.1397 20.2112Z" fill="#778874"/>
<path d="M10.65 26.4529C11.4864 26.2194 12.1481 25.618 12.9707 25.3578C13.1246 25.3704 13.2217 25.2753 13.3132 25.1704C13.8459 24.5369 14.4852 24.0879 15.3216 23.9747C15.6282 23.7901 16.0776 23.7733 16.1247 23.2838C16.1566 22.7999 16.7198 22.6125 16.8002 22.0349C16.3051 22.337 15.8502 22.5314 15.4909 22.8978C15.1927 23.1985 14.8168 23.3775 14.4049 23.4768C13.8875 23.9957 13.1634 24.1313 12.5559 24.4921C12.1065 24.7593 11.5891 24.9173 11.2284 25.3285C11.7916 25.3718 12.0912 24.8166 12.5961 24.7215C12.7764 24.6879 12.9192 24.5061 13.223 24.6096C12.5655 25.2432 11.8595 25.7033 11.0731 26.0501C10.9677 26.2096 10.8124 26.2879 10.6362 26.3285L10.65 26.4529Z" fill="#465D59"/>
<path d="M10.65 26.4529L10.6362 26.3284C10.2353 26.3956 9.92736 26.6235 9.64856 26.9018L9.99112 26.8585C10.281 26.8389 10.4225 26.5746 10.65 26.4529Z" fill="#3A4C46"/>
<path d="M3.84229 29.1508C4.07809 29.1158 4.33469 29.155 4.53026 28.9676C4.29446 29.0081 4.02676 28.9186 3.84229 29.1508Z" fill="#524655"/>
<path d="M25.3335 25.8431C24.6733 25.2627 23.841 24.8823 23.3319 24.1117C23.282 24.0348 23.006 24.1103 22.8326 24.1159C22.7591 24.2768 22.7563 24.4572 22.7522 24.6236C22.7383 25.0795 22.7744 25.4977 22.0809 25.432C21.809 25.4054 21.8562 25.7033 22.0573 25.8278C22.3347 25.9998 22.3597 26.1606 22.1711 26.4305C21.9172 26.7928 22.2556 26.9788 22.4526 27.1983C22.7882 27.3158 22.7078 27.6221 22.7564 27.871C23.3459 27.7759 23.8161 27.4333 24.3044 27.1228C24.1143 27.099 23.9312 27.113 23.7467 27.1718C23.6302 27.2081 23.4624 27.2487 23.4028 27.0739C23.3404 26.8893 23.4665 26.7942 23.6177 26.7284C24.2114 26.4739 24.7926 26.1984 25.3335 25.8431Z" fill="#899F96"/>
<path d="M22.4523 27.1984C22.272 26.8711 22.0098 26.5564 22.5036 26.2418C22.6437 26.1536 22.5535 25.9606 22.4065 25.8558C22.2734 25.7606 22.0612 25.7872 21.989 25.5914C22.1 25.4194 22.2138 25.5201 22.3387 25.5621C22.5869 25.6418 22.9365 25.5075 22.8879 25.3411C22.7645 24.9215 23.0724 24.5061 22.8324 24.1159L22.5785 23.9075L22.3498 23.9327C22.7007 24.5061 22.702 24.5103 22.0875 24.6614C21.8365 24.7229 21.6395 24.8767 21.4411 25.0236C21.301 25.1271 21.1943 25.2558 20.9876 25.197C20.5895 25.0823 20.5201 25.3159 20.5507 25.6418C20.491 25.8054 20.43 25.9662 20.369 26.1285C20.3427 26.5159 20.6534 26.3942 20.7962 26.3592C21.1333 26.2739 21.394 26.2306 21.4938 26.6725C21.5313 26.8445 21.7159 26.8865 21.8643 26.8949C22.2013 26.9145 22.1361 27.141 22.1208 27.3494L22.4523 27.1984Z" fill="#92A599"/>
<path d="M14.5505 15.8477C14.4922 15.9749 14.3188 16.0407 14.3549 16.2197C14.5601 16.6672 14.961 16.9525 15.2565 17.3246C15.6504 17.3078 16.0388 17.3245 16.4355 17.3651C16.9306 17.4168 17.2441 16.9721 17.5437 16.6267C18.3496 15.698 19.1333 14.747 20.1265 14.0086C20.4219 13.789 20.483 13.417 20.7326 13.1736C20.8089 12.954 21.1903 12.8813 21.0336 12.5485C20.5107 12.5205 20.1861 12.8631 19.8504 13.1848C19.6534 13.5303 19.4066 13.796 18.9877 13.8757C18.7158 13.926 18.4967 14.14 18.3399 14.3428C18.0029 14.7792 17.552 15.0617 17.1456 15.4085C16.9168 15.6029 16.7032 15.6882 16.4799 15.5078C15.9653 15.0897 15.4978 15.319 15.0526 15.5973C14.8889 15.6994 14.7058 15.7428 14.5505 15.8477Z" fill="#8B9F91"/>
<path d="M15.28 17.2937C15.1205 16.8056 14.7501 16.5007 14.3548 16.2196C13.886 15.9525 13.7223 16.5007 13.3839 16.6014C13.2299 16.6476 13.2382 16.807 13.0135 16.5903C12.8457 16.428 12.32 16.7105 12.0953 16.9888C11.4129 17.8308 10.5293 18.3888 9.63462 18.9594C9.09506 19.3049 8.50556 19.4153 7.93548 19.6251L7.76074 19.8377C8.51253 20.2265 8.83846 20.1999 9.403 19.53C9.6277 19.2643 9.93284 19.365 10.1894 19.1874C10.5376 18.9468 10.8054 18.4559 11.3408 18.5259C11.5808 18.5147 11.7112 18.3454 11.8374 18.1734C12.4408 17.3511 13.0745 17.1693 14.0496 17.5483C14.3853 17.6797 14.7321 17.5692 15.0706 17.6182C15.2287 17.5678 15.2938 17.4574 15.28 17.2937Z" fill="#929A82"/>
<path d="M14.5503 15.8477C14.6807 15.8225 14.8332 15.8337 14.9386 15.7665C15.4657 15.4309 15.9581 15.2057 16.5338 15.7232C16.7279 15.8966 16.968 15.7288 17.2426 15.554C17.9361 15.1134 18.2926 14.2589 19.0638 14.0113C19.5451 13.8561 19.7698 13.6379 19.8502 13.1848C19.5687 13.4114 19.2551 13.5498 18.8931 13.6086C18.5561 13.6617 18.38 14.01 18.0388 14.1386C17.7059 14.2645 17.1705 14.4519 17.0859 14.6071C16.7863 15.1442 16.4284 14.768 16.1218 14.8001C15.8916 14.8253 15.8958 15.0491 15.7502 15.112C15.4575 15.2393 15.2105 15.491 14.8582 15.4645C14.9067 15.7148 14.6141 15.6882 14.5503 15.8477Z" fill="#8EA397"/>
<path d="M12.5988 19.4489C13.0343 19.0056 13.5822 18.9021 14.1703 18.9343C14.5032 19.2839 14.8542 19.1622 15.1899 18.9525C15.3647 18.8448 15.4965 18.6727 15.6865 18.5818C15.8515 18.4979 16.0318 18.4308 16.0984 18.2294C15.9403 17.9413 15.6725 18.0672 15.4423 18.0532C14.8722 18.0923 14.2924 18.056 13.7431 18.2658C13.5947 18.3217 13.4381 18.3511 13.2938 18.2825C12.9859 18.1385 12.7029 18.1637 12.4227 18.3539C12.2882 18.4448 12.13 18.4434 11.9788 18.386C11.6889 18.277 11.5031 18.4098 11.3533 18.6434C11.3547 19.2154 10.7499 19.1273 10.5057 19.4336C10.754 19.4014 10.9982 19.3706 11.2368 19.4839L11.4476 19.5287C11.7985 18.9651 12.2146 19.4447 12.5988 19.4489Z" fill="#7F8F7B"/>
<path d="M29.5667 4.90953C29.8663 4.82702 30.2158 4.95848 30.4724 4.69695C30.3199 4.71373 30.1673 4.72771 30.0134 4.74449C29.858 4.77806 29.6679 4.72492 29.5667 4.90953Z" fill="#92B2AE"/>
<path d="M31.9693 4.54171L31.868 4.67316C30.4948 5.13049 29.2714 5.86335 28.1673 6.79479C27.9191 7.00317 27.6181 7.23954 27.7277 7.6591L27.9815 7.62134C28.3019 7.13604 28.8164 6.97939 29.313 6.79059C29.675 6.56682 30.0787 6.43116 30.4615 6.25354C30.8222 6.08712 31.1273 5.87733 31.3589 5.55426C31.6544 5.14449 32.1163 4.97946 32.5477 4.71653C32.5934 4.88575 32.4603 5.06057 32.6157 5.18084C32.7641 5.08714 32.8556 4.94869 32.9222 4.79066C32.8889 4.24941 32.8293 4.21864 32.1829 4.39905L31.9693 4.54171Z" fill="#D2DBD8"/>
<path d="M32.1827 4.39905C32.5087 4.37527 32.8929 4.24381 32.9221 4.79065C33.0455 4.23822 32.8818 4.12634 32.1896 4.28717L32.1827 4.39905Z" fill="#B6CAC4"/>
<path d="M11.3533 18.6434C11.56 18.5119 11.7555 18.3063 12.001 18.5818L12.0995 18.6294C12.6099 18.2014 13.2257 18.5399 13.7667 18.3972C14.2979 18.256 14.8321 18.2196 15.3744 18.221L15.495 17.9623C15.3771 17.8028 15.2272 17.6728 15.0733 17.5497C14.5337 17.449 13.9929 17.2714 13.4672 17.2252C12.8111 17.1679 12.0856 17.2644 11.7527 18.0588C11.6778 18.2392 11.4823 18.3707 11.3408 18.5259L11.3533 18.6434Z" fill="#86967E"/>
<path d="M19.225 24.025C19.5301 23.709 19.6702 23.2586 20.0474 23.0013C20.3027 22.7398 20.0406 22.5342 19.9754 22.3062C19.8644 22.109 19.8187 21.9132 19.992 21.723C20.5968 20.8265 21.3846 20.1552 22.3916 19.7552C22.5719 19.6839 22.7508 19.6392 22.9492 19.6587C23.3972 19.7035 23.6552 19.4588 23.694 19.0406C23.7218 18.7343 23.8258 18.5609 24.0977 18.4168C24.5693 18.1693 24.4721 17.7078 24.4291 17.2868C24.4 16.9973 24.2947 16.7553 23.9396 16.7651C23.7634 16.8113 23.6233 16.8966 23.5706 17.0854C23.5706 18.2406 22.9811 19.0126 21.8853 19.2713C21.6342 19.3301 21.4207 19.4392 21.2306 19.6028C21.0795 19.7343 20.9269 19.8433 20.723 19.7147C20.3512 19.6979 20.1904 20.0266 20.0045 20.2349C19.1917 21.1482 18.2401 21.8908 17.2733 22.6181C16.4203 23.3761 15.4453 23.9425 14.4383 24.4558L14.1497 24.6474C14.0152 24.7621 13.875 24.888 13.9555 25.0894C14.0249 25.2628 14.2011 25.253 14.3522 25.2656C15.2358 25.3411 16.0791 25.1117 16.8919 24.8278C17.4439 24.6362 17.9932 24.481 18.5633 24.4124C18.8615 24.3789 19.0738 24.2754 19.225 24.025Z" fill="#B5C4BF"/>
<path d="M23.9435 16.8546C24.4636 17.1581 24.5274 18.0951 24.0059 18.3203C23.6578 18.47 23.5565 18.6224 23.5649 18.993C23.5718 19.3329 23.4164 19.5734 22.9532 19.5189C22.4039 19.4573 21.9101 19.7398 21.4732 20.0587C21.0335 20.3804 20.5729 20.6839 20.2455 21.1454C20.1152 21.3286 19.9002 21.4601 19.9154 21.7272C20.1401 21.7174 20.3206 21.5803 20.4551 21.4405C21.0751 20.7916 21.9711 20.5958 22.6466 20.0419L22.8061 19.986C23.5301 20.0322 23.9089 19.7231 23.963 18.9622C23.9879 18.6308 24.4068 18.5007 24.5469 18.1972C24.7772 17.8238 24.9547 17.4112 25.3334 17.1469C25.4388 17.0728 25.497 16.9078 25.6606 16.9595C26.0171 17.0714 26.1558 16.842 26.2501 16.5735C26.3486 16.298 26.5137 16.1777 26.7938 16.0574C27.1573 15.9022 27.3668 15.7763 27.69 16.1581C27.8384 16.3329 28.3655 16.5441 28.4071 15.8952L28.5167 15.6966C29.1367 15.2449 28.6456 14.8071 28.3765 14.5875C28.0075 14.2855 28.1685 14.0841 28.346 13.8841C28.7178 13.4715 29.156 13.1051 28.6317 12.5149C28.9257 12.01 28.4362 11.48 28.6817 10.9751C28.3529 11.273 28.0839 11.617 27.8592 12.0002C27.7815 12.1527 27.6733 12.2911 27.733 12.4855C27.8509 12.8757 27.6761 13.2309 27.4653 13.5079C27.2101 13.8435 27.1268 14.161 27.1795 14.5736C27.2572 15.1903 27.0713 15.3875 26.461 15.3959C26.0005 15.4015 25.5512 15.5302 25.0893 15.5008C24.583 15.8463 24.0974 16.2071 23.9435 16.8546Z" fill="#ACBFBC"/>
<path d="M24.5469 18.1973C24.3458 18.3469 24.1502 18.5007 23.9435 18.6434C23.7923 18.7483 23.7105 18.8238 23.7785 19.0574C23.8964 19.463 23.6315 19.835 23.2806 19.8168C22.2958 19.7678 21.7339 20.6167 20.885 20.8615C20.53 20.9664 20.2692 21.4629 19.9155 21.7272C19.7657 21.9384 19.7852 22.1314 19.9752 22.3062C19.9641 22.1188 19.8877 21.902 20.1166 21.7915C21.0695 21.3426 21.8186 20.5272 22.8089 20.1818C23.2389 20.0322 23.655 19.8853 24.0504 19.6601L24.2917 19.3804C24.0865 18.9091 24.479 18.593 24.5469 18.1973Z" fill="#ACBFBB"/>
<path d="M25.0879 15.5637C25.6774 15.7273 26.2587 15.5581 26.8371 15.4966C27.4515 15.4322 27.4182 14.9232 27.3294 14.498C27.2518 14.133 27.3697 13.9274 27.5611 13.6281C27.7705 13.2966 28.2089 12.9092 27.8289 12.389C27.7706 12.3107 27.8455 12.1316 27.8593 12.0002C27.2685 12.6463 26.6762 13.2924 26.0853 13.94C26.0201 14.3372 25.6428 14.5092 25.4569 14.8225C25.3154 15.0616 25.0574 15.2392 25.0879 15.5637Z" fill="#B4C6C3"/>
<path d="M29.2865 6.69546C28.6443 6.81154 28.1519 7.16398 27.7594 7.67445C27.4071 7.7248 27.4153 8.06745 27.2711 8.28702C27.0658 8.93595 26.7495 9.54293 26.5387 10.1905C26.5082 10.645 26.1878 10.9862 26.0616 11.403V11.4799C25.7398 12.5484 25.6191 13.6966 24.8895 14.6407C25.4124 14.1204 25.9353 13.6002 26.4582 13.0799L26.0963 13.1932C26.5471 12.817 26.3307 12.2939 26.4264 11.852C26.6247 10.9443 26.9729 10.0856 27.4029 9.26881C27.5707 8.95554 27.5763 8.61149 27.715 8.28842C28.1505 7.27167 29.102 7.0339 29.9634 6.6493C30.1354 6.57377 30.3462 6.57378 30.4113 6.34302C29.973 6.25631 29.6735 6.61854 29.2865 6.69546Z" fill="#E6E8E8"/>
<path d="M25.0879 15.5637C25.4319 15.1176 25.7786 14.6743 26.1115 14.2183C26.1656 14.1456 26.4459 13.996 26.0852 13.94C25.7648 14.2127 25.4444 14.4841 25.1254 14.7554C24.5151 15.4001 24.0948 16.2239 23.3069 16.7008C22.8755 16.9973 22.4858 17.3329 22.311 17.856L22.207 17.9805C22.042 18.1763 21.7201 18.2798 21.8283 18.6364C22.268 18.7007 22.4595 18.3175 22.7272 18.0993C23.0684 17.8224 23.4901 17.6014 23.6274 17.1259L23.9435 16.8546C24.2612 16.3679 24.7037 15.9931 25.0879 15.5637Z" fill="#9BB5AE"/>
<path d="M26.6334 10.252C26.8955 9.61006 27.2242 8.9919 27.3629 8.30241C27.1313 8.26185 27.0578 8.44227 27.0051 8.59751C26.8026 9.1891 26.4363 9.6786 26.0757 10.1751C25.8566 10.7121 25.521 11.1723 25.1881 11.6422C24.8219 12.1582 24.4543 12.7093 24.9772 13.3512C25.4862 13.0253 25.5293 12.431 25.772 11.9527C25.8552 11.7876 25.8719 11.5806 26.0619 11.4799C26.2034 11.0492 26.5169 10.6967 26.6334 10.252Z" fill="#CCD1CC"/>
<path d="M24.9769 13.3512C24.7092 12.5876 25.0366 12.0058 25.5068 11.4366C25.8064 11.073 26.106 10.687 26.1628 10.1849L26.1462 10.045C26.0186 10.0268 25.9327 10.0968 25.8523 10.1821C25.5291 10.8422 24.9631 11.3541 24.7051 12.0562C24.2141 12.8533 24.2141 13.8939 23.4678 14.5694C23.3458 14.6813 23.2667 14.8547 23.3832 15.0365C23.9796 14.905 24.16 14.3078 24.5608 13.9568C24.694 13.8379 24.7884 13.6519 24.8758 13.4813L24.9769 13.3512Z" fill="#BAC2BE"/>
<path d="M23.3594 16.8001C24.1917 16.3316 24.6744 15.5568 25.1252 14.7554C24.8395 14.9764 24.5523 15.2001 24.2666 15.4211C24.0474 15.5903 23.8338 15.7652 23.5744 15.87C23.2249 16.0658 23.0196 15.8449 22.8226 15.6029L22.6673 15.5568L22.5536 15.6812C22.5051 15.8085 22.4371 15.9288 22.4149 16.0631C22.3497 16.456 22.5633 16.6463 22.9544 16.5414C23.1389 16.491 23.3081 16.3917 23.4926 16.3372L23.6424 16.2798L23.6133 16.3218C23.451 16.4365 23.2665 16.5456 23.3594 16.8001Z" fill="#A6ADA9"/>
<path d="M23.619 15.9539C23.8951 15.849 24.1114 15.6728 24.2668 15.4211C24.099 15.4882 23.9312 15.5553 23.7217 15.6392C23.9007 14.7721 24.7107 14.2994 24.8758 13.4799C24.3876 14.0001 23.8979 14.519 23.4096 15.0379L23.2376 15.2099C23.196 15.3945 23.2543 15.5777 23.2432 15.7637C23.2224 16.1078 23.3999 16.0798 23.619 15.9539Z" fill="#CCD1CC"/>
<path d="M29.2865 6.69548C29.7026 6.70947 30.0091 6.37241 30.4113 6.34304C30.7387 6.32067 31.023 6.15143 31.202 5.91648C31.5141 5.5039 31.9288 5.25636 32.381 4.99343C32.2298 5.62838 31.6071 5.97382 31.4933 6.60037C31.9427 6.1864 32.2645 5.67313 32.6154 5.18083C32.646 4.99762 32.6765 4.81442 32.7139 4.59624C32.1979 4.62002 31.7651 4.88295 31.5196 5.21161C31.0314 5.86894 30.3892 6.20179 29.6666 6.46332C29.5334 6.51227 29.3642 6.53885 29.2865 6.69548Z" fill="#E1E6E5"/>
<path d="M19.8505 13.1848C20.2666 13.0086 20.5856 12.6352 21.0655 12.589C21.6813 12.5807 21.974 12.0604 22.3374 11.7051C22.9089 11.1443 23.5178 10.5961 23.8174 9.8115C23.8673 9.68423 23.9631 9.54298 24.0907 9.53039C24.8439 9.45347 25.3349 8.75698 26.1213 8.70524C26.5236 8.67866 26.7982 8.23392 27.1672 8.03672L27.2116 7.96679C26.9786 7.61575 26.715 7.84512 26.4917 7.95421C25.6442 8.36539 24.819 8.82831 23.9576 9.20732C23.6968 9.3234 23.5331 9.5136 23.3195 9.66185C23.2043 9.75835 23.0186 9.77374 22.9575 9.92758C22.7425 10.4744 22.1821 10.6814 21.8437 11.1038H21.8423C21.3125 11.452 20.942 11.9611 20.5689 12.4534C20.3553 12.7345 19.8532 12.7121 19.8505 13.1848Z" fill="#8EA397"/>
<path d="M26.1448 10.059L26.1628 10.1849C26.5914 9.81984 26.8522 9.34293 27.0561 8.82686C27.131 8.63666 27.1546 8.41289 27.3627 8.3024C27.4958 8.09262 27.6276 7.88284 27.7594 7.67445C27.7872 7.28705 28.0589 7.03811 28.3197 6.83952C29.188 6.1794 30.0646 5.52206 31.0938 5.12766C31.3851 5.01578 31.6209 4.84375 31.8678 4.67313C31.2977 4.55705 30.7886 4.62559 30.3475 5.07033C30.1215 5.2997 29.7733 5.13047 29.4571 5.2927C28.5943 5.73325 28.0188 6.38498 27.5985 7.22272C27.5069 7.49124 27.389 7.74438 27.2115 7.96675L27.2046 7.96535C26.9244 8.18772 26.8203 8.52896 26.64 8.81986C26.4971 9.24223 26.1143 9.56669 26.1448 10.059Z" fill="#B6CAC4"/>
<path d="M21.8435 11.1038C22.2624 10.7961 22.7867 10.6101 22.9836 10.0436C23.0363 9.89539 23.2042 9.78771 23.3193 9.66184L23.0072 9.76113C22.7229 10.3038 22.0932 10.5387 21.8435 11.1038Z" fill="#97A799"/>
<path d="M21.8006 18.6014C21.9365 18.3945 22.0725 18.1875 22.2071 17.9805C21.6467 18.2476 21.2222 18.7161 20.8269 19.1525C20.0002 20.0643 19.0363 20.8154 18.168 21.6741C17.8559 22.1118 17.2733 22.2531 17.0056 22.7412L17.3455 22.695C18.4815 21.9426 19.4704 21.0209 20.397 20.0266C20.501 19.9147 20.5869 19.7804 20.7589 19.7678C21.3027 19.5567 21.6119 19.1329 21.8006 18.6014Z" fill="#6E8A83"/>
<path d="M23.3597 16.8001C23.4374 16.4882 23.7994 16.4001 23.9506 16.0588C23.7675 16.119 23.6483 16.1581 23.5291 16.1973C23.1934 16.4015 22.7758 16.4882 22.5746 16.8826C22.4359 17.1287 22.2071 17.2994 22.0407 17.5217L22.038 17.5231C22.1281 17.635 22.3056 17.6742 22.3112 17.8546C22.6718 17.5161 22.9297 17.07 23.3597 16.8001Z" fill="#6B8074"/>
<path d="M15.9736 21.7887C15.7766 21.8586 15.5672 21.9062 15.4243 22.081C15.742 22.2419 15.8668 22.0307 15.9736 21.7887Z" fill="#63756A"/>
<path d="M16.7546 21.4726C16.5562 21.4824 16.3843 21.5314 16.3191 21.751C16.4994 21.7146 16.6519 21.6349 16.7546 21.4726Z" fill="#63756A"/>
<path d="M17.3454 22.695L17.0055 22.7412C16.7115 22.9216 16.4173 23.1034 16.1247 23.2838C15.8972 23.5565 15.5908 23.716 15.2759 23.8628C14.9763 24.0083 14.6433 24.109 14.4838 24.4488L14.5157 24.5215C15.556 24.0642 16.4951 23.4502 17.3454 22.695Z" fill="#ADC1BC"/>
<path d="M13.1883 25.1383L12.9707 25.3578C12.7057 25.7396 12.2549 25.8473 11.811 26.1354C12.2382 26.1984 12.5656 26.3102 12.517 26.776C12.4976 26.9606 12.6377 26.934 12.7487 26.9242C13.3742 26.8697 13.9998 26.7242 14.6185 26.9941C14.8071 27.0781 14.8875 26.8193 15.0733 26.8081C16.133 26.7438 17.1471 26.3606 18.2193 26.3438C18.806 26.3354 19.1263 25.969 19.1291 25.3718C19.1319 24.9956 19.598 24.6683 19.2471 24.2558L19.1416 24.2697C18.8212 25.2012 18.014 25.232 17.2372 25.3159C16.8766 25.3536 16.5881 25.5886 16.2067 25.625C15.5451 25.6865 14.882 25.7942 14.2217 25.8991C13.6933 25.9844 13.6475 25.9508 13.6391 25.3956C13.6364 25.2557 13.635 25.1229 13.4977 25.0403L13.1883 25.1383Z" fill="#ACB9AE"/>
<path d="M13.5254 25.0809C13.4727 25.9886 13.4741 25.9467 14.4519 25.9746C15.219 25.9956 15.9722 25.8404 16.6879 25.6767C17.3051 25.5355 17.9529 25.4446 18.5591 25.2348C19.0015 25.0823 19.1527 24.6796 19.247 24.2558L19.2248 24.025C18.9058 24.3271 18.4799 24.1887 18.1123 24.3006C17.1816 24.5845 16.2454 24.8474 15.3064 25.0907C15.1178 25.1397 14.9027 25.1789 14.6905 25.1061C14.4838 25.0348 14.1523 25.2726 14.0663 25.0348C13.9664 24.7523 14.4173 24.7495 14.5157 24.5215L14.4922 24.495C13.972 24.3593 13.7696 24.7565 13.5254 25.0809Z" fill="#B1C0B4"/>
<path d="M19.77 19.1664C20.1029 18.9581 20.3873 18.6965 20.6175 18.3749C20.7507 18.2714 20.8533 18.1441 20.9254 17.9917C21.5385 17.2588 21.9574 16.3903 22.5427 15.6393L22.655 15.5889L22.6523 15.5847C22.92 15.1344 22.8909 14.5218 23.3916 14.1988C23.7301 13.8883 24.0075 13.5386 24.1074 13.0757C23.9298 12.5736 23.5733 12.6729 23.2889 12.9009C22.8243 13.2743 22.3735 13.6687 21.9199 14.0533C21.6078 14.319 21.5357 14.7582 21.716 15.1274C21.9075 15.5176 21.7979 15.7623 21.5482 16.0574C21.1418 16.5344 20.6771 16.9763 20.63 17.6854C20.6092 17.9679 20.3248 18.1651 20.1085 18.3581C19.881 18.5623 19.6035 18.7259 19.5037 19.0448L19.5356 19.2126L19.77 19.1664Z" fill="#6D867B"/>
<path d="M14.5742 19.4755C14.3745 19.7189 13.9597 19.5762 13.8071 19.9063C14.1511 19.9496 14.4202 19.6392 14.8072 19.7538C15.4064 19.9301 15.9293 20.0867 15.9057 20.8839C15.9002 21.1132 16.4578 21.1342 16.6728 20.8979C16.8101 20.7482 16.8671 20.4601 17.132 20.5468C17.3512 20.6181 17.2151 20.902 17.3206 21.0531C18.168 20.7916 18.6494 20.0294 19.3457 19.5622C19.4262 19.4462 19.6356 19.4 19.5385 19.1902V19.1888C19.0835 18.9916 18.8686 19.4028 18.6133 19.607C17.5453 20.4587 17.5772 20.4461 16.5258 19.6643C15.9461 19.2336 15.2497 19.2909 14.5742 19.4755Z" fill="#6D867B"/>
<path d="M22.5441 15.6071L22.4901 15.3847L22.3305 15.4449C21.9865 16.2854 21.544 17.0672 20.9684 17.7693L20.9254 17.9917C21.3429 17.7105 21.4691 17.1315 21.9782 16.9441C22.1807 16.8602 22.1793 16.642 22.2778 16.4882C22.3319 16.1861 22.6454 15.9595 22.5441 15.6071Z" fill="#6B8074"/>
<path d="M22.1626 16.4574C22.1002 16.6197 22.0392 16.7819 21.9781 16.9441C21.999 17.1357 22.0198 17.3287 22.0406 17.5217C22.361 17.47 22.5053 17.2099 22.6745 16.9777C22.4359 16.8728 22.3305 16.6336 22.1626 16.4574Z" fill="#6D867B"/>
<path d="M19.5382 19.1902L19.3455 19.5622C19.5771 19.5286 19.6866 19.3622 19.7698 19.1664L19.5382 19.1902Z" fill="#6B8074"/>
<path d="M20.9253 17.9917C20.7783 18.0826 20.6757 18.2112 20.6174 18.3749C20.8352 18.3413 20.9378 18.214 20.9253 17.9917Z" fill="#6B8074"/>
<path d="M14.5741 19.4755C15.0887 19.4308 15.6185 19.5035 16.0943 19.5986C16.5465 19.6909 16.9681 20.1175 17.3149 20.4825C17.541 20.7216 17.5798 20.6321 17.7934 20.4979C18.4093 20.1049 18.7949 19.4014 19.5384 19.1888C19.6576 18.8616 19.9448 18.6839 20.1917 18.4742C20.5689 18.1553 20.831 17.8182 20.8754 17.27C20.924 16.6882 21.519 16.4029 21.8339 15.9554C22.0128 15.6994 22.1238 15.5554 21.9393 15.2631C21.6147 14.7428 21.7438 14.3176 22.2695 13.9638C22.6357 13.7163 22.938 13.3946 23.257 13.0925C23.4775 12.8827 23.78 12.6002 24.0241 13.1065C24.2516 13.1191 24.2974 12.9331 24.3792 12.7848L24.3154 12.6296C24.0741 12.4128 23.8078 12.4324 23.5068 12.4995C22.7675 12.6632 22.2612 13.0631 21.7979 13.6967C21.3055 14.3722 20.8408 15.0785 20.2846 15.7092L20.1528 15.8938C20.1861 16.3931 19.9809 16.8784 20.0045 17.3567C20.0475 18.1735 19.5897 18.7832 18.7686 18.7063C18.2526 18.6588 18.0556 18.8532 18.0043 19.3175C17.9891 19.4532 17.9696 19.5902 17.8836 19.6993C17.7311 19.8993 17.5979 19.9846 17.4051 19.6979C16.9765 19.0546 16.4008 18.5944 15.6282 18.428C15.3092 18.4644 15.2538 18.8462 14.9875 18.9357C14.7225 19.0266 14.4423 19.056 14.1704 18.9343C14.1871 19.2042 14.4714 19.2713 14.5741 19.4755Z" fill="#738A7D"/>
<path d="M13.5255 25.081C13.8542 24.8964 14.0955 24.5649 14.4922 24.495C14.753 24.2852 15.0152 24.074 15.276 23.8628C14.6282 24.0069 13.9568 24.0908 13.5851 24.7761C13.5074 24.9215 13.2175 24.895 13.1884 25.1383L13.5255 25.081Z" fill="#5B7372"/>
<path d="M26.1448 10.059C26.3292 9.65062 26.6414 9.30379 26.726 8.84646C26.812 8.6115 26.6677 8.52339 26.5095 8.62968C26.185 8.84785 25.7647 8.76953 25.4915 8.92337C24.963 9.22406 24.282 9.40308 24.049 10.0982L23.8797 10.4604C22.9157 11.1401 22.2194 12.1513 21.1527 12.7093C20.9724 12.8044 20.8226 12.975 20.6534 13.1023C19.6839 14.4113 18.2676 15.298 17.3383 16.6588C17.1594 16.9203 16.8737 17.2798 16.4242 17.249L16.2675 17.291C15.9332 16.6952 15.6073 17.3105 15.2799 17.2938L15.0732 17.5497C15.0593 17.828 15.2508 17.9133 15.4658 17.9776C16.4825 18.3021 17.1386 18.0728 17.7975 17.2448C18.5826 16.2588 19.3649 15.2672 20.3053 14.4211C20.4204 14.3176 20.548 14.2141 20.6034 14.0701C20.9738 13.1149 21.9074 12.9079 22.6689 12.4729L22.8478 12.3359C23.4553 12.4142 23.6813 12.0128 23.8617 11.5415L24.0115 11.3023C24.637 11.1289 24.7979 10.5849 25.0407 10.0772C25.2543 9.63244 25.4333 9.63805 25.7259 10.0185L25.9325 10.2115L26.1448 10.059Z" fill="#80988E"/>
<path d="M20.6536 13.1022C21.0295 13.0952 21.2528 12.7862 21.5136 12.6016C22.1918 12.1191 22.9783 11.7456 23.3875 10.9512L23.4997 10.8226C24.0462 10.7722 24.0685 10.2464 24.3237 9.92751C24.7246 9.42683 25.2045 9.03523 25.8953 9.03803C26.113 9.03803 26.3031 8.98908 26.4487 8.79328C26.5375 8.67021 26.6734 8.61986 26.7261 8.84643C26.98 8.60447 27.0785 8.2772 27.2047 7.96533C26.4904 8.45342 25.5762 8.53034 24.9035 9.13172C24.7231 9.29255 24.3682 9.22264 24.1018 9.33312C23.9077 9.41564 23.7745 9.52473 23.6913 9.70654C23.1226 10.9513 22.128 11.8016 21.0655 12.589C20.9448 12.7736 20.7104 12.8645 20.6536 13.1022Z" fill="#859E97"/>
<path d="M15.6282 18.4279C16.0873 18.7342 16.5423 19.0489 17.0112 19.3426C17.1554 19.4321 17.2441 19.5272 17.2691 19.6964C17.294 19.8796 17.2692 20.1048 17.566 20.0964C17.8087 20.0894 17.9585 19.958 18.0528 19.751L18.1513 19.4195C18.1721 18.986 18.1582 18.6671 18.8101 18.8909C19.0862 18.9874 19.6132 18.7636 19.8976 18.4139C20.1459 18.1091 20.5204 17.8322 20.1167 17.3776C20.0016 17.249 20.1057 17.1273 20.1778 17.0112C20.3401 16.7553 20.3969 16.4881 20.2666 16.1972L20.2472 15.9343C20.8991 15.656 20.8644 14.8658 21.3679 14.4546C21.8118 14.0938 22.1572 13.6015 22.4193 13.0673C22.5789 12.7414 22.9408 12.9218 23.1891 12.7847C23.5414 12.5903 23.9311 12.4519 24.3251 12.7176C24.2793 12.2603 24.0075 12.0701 23.5719 12.1904C23.1142 12.3176 22.6953 12.5624 22.2237 12.6477C21.7785 12.9959 21.3984 13.3875 21.0363 13.8421C20.6896 14.2756 20.501 14.9819 19.7977 15.1022C19.6618 15.1259 19.6077 15.2854 19.5495 15.407C19.2346 16.0602 18.727 16.6014 18.5245 17.3301C18.3899 17.8168 17.0417 18.4126 16.5132 18.3035C16.3676 18.2727 16.233 18.165 16.0763 18.2643C15.9265 18.3189 15.778 18.3734 15.6282 18.4279Z" fill="#778F85"/>
<path d="M16.0762 18.2644C16.7836 18.607 17.2884 18.5231 17.8863 17.9903C17.9945 17.8924 18.1526 17.8476 18.2941 17.7931C18.4814 17.7203 18.6714 17.6308 18.6991 17.4196C18.8018 16.6043 19.4605 16.0784 19.731 15.3526C19.7796 15.2197 19.8684 15.168 19.9877 15.1652C20.39 15.1568 20.5633 14.9246 20.6188 14.5512C20.6424 14.3918 20.7366 14.2799 20.9156 14.2365L21.1847 14.0519C21.2471 13.3652 21.9212 13.175 22.2388 12.7009C22.3706 12.589 22.6856 12.761 22.6745 12.4212C22.4553 12.403 22.2569 12.3387 22.0585 12.568C21.8796 12.7722 21.598 12.8925 21.3484 13.0254C20.9919 13.2114 20.6799 13.375 20.5647 13.8463C20.4566 14.2897 20.0293 14.6239 19.7061 14.8854C19.1027 15.3707 18.6949 15.9637 18.233 16.5553C17.9293 16.9469 17.6393 17.4057 17.1941 17.7035C16.649 18.0686 16.0512 17.9483 15.4658 17.9777L15.3744 18.221C15.6088 18.235 15.8529 18.0756 16.0762 18.2644Z" fill="#7C9688"/>
<path d="M21.8006 18.6014C21.4538 18.9916 21.1057 19.379 20.759 19.7678C20.6827 20.1426 20.9851 20.0014 21.0475 19.9258C21.5274 19.3538 22.2847 19.4112 22.8687 19.0825C23.2418 18.8713 23.7801 17.579 23.6275 17.1259C23.0061 17.6028 22.5302 18.2615 21.8006 18.6014Z" fill="#BACAC8"/>
<path d="M26.6332 10.252C26.4307 10.6562 26.0492 10.9751 26.0617 11.4799C26.3419 11.1149 26.6179 10.7443 26.6332 10.252Z" fill="#DCDDDD"/>
<path d="M22.6744 12.4212C22.5967 12.6198 22.3164 12.5037 22.2388 12.7009C22.6868 12.8533 22.985 12.4883 23.3526 12.3652C23.7771 12.224 24.146 12.1876 24.3249 12.7177L24.336 12.7163C24.5954 12.5722 24.6925 12.3009 24.8368 12.066C24.9894 11.5359 25.4734 11.2184 25.6815 10.7219C25.755 10.5471 25.8479 10.3821 25.9325 10.2115C25.8201 9.93036 25.7703 9.49541 25.4332 9.50799C25.0864 9.51918 24.9061 9.91637 24.7868 10.2422C24.6426 10.6366 24.5941 11.0366 24.0032 11.0618C23.7452 11.0716 23.7202 11.5331 23.5967 11.7849C23.4538 12.0827 23.3416 12.2897 22.9754 12.1387C22.6855 12.0198 22.6397 12.1806 22.6744 12.4212Z" fill="#7B9589"/>
<path d="M24.837 12.0659C24.5956 12.2254 24.5096 12.5064 24.3348 12.7162C24.2835 12.8883 24.1683 13.0085 24.0241 13.1064C23.8133 13.4575 23.6275 13.8309 23.3154 14.112C23.1406 14.3889 23.042 14.684 23.0767 15.0183L23.153 15.1749L23.3084 15.1679L23.4097 15.0379C23.3847 14.7721 23.5637 14.5833 23.7315 14.4588C24.3377 14.0099 24.2571 13.2547 24.5609 12.6757C24.6635 12.4785 24.8911 12.3358 24.837 12.0659Z" fill="#B1B7B3"/>
<path d="M22.1626 16.4574C22.1806 16.7833 22.1835 17.126 22.6745 16.9777C22.809 16.5497 23.2806 16.498 23.5289 16.1973C23.35 16.2574 23.1682 16.3134 22.9906 16.3777C22.8519 16.4281 22.7174 16.5567 22.5745 16.4001C22.4455 16.256 22.5011 16.1148 22.594 15.9791C22.6759 15.8575 22.6661 15.7246 22.655 15.5889L22.544 15.6071C22.5094 15.933 22.2819 16.1693 22.1626 16.4574Z" fill="#8B9C98"/>
<path d="M23.1766 15.0589C23.2223 14.7428 23.2695 14.4281 23.3153 14.112C22.7743 14.4561 22.673 15.0029 22.6522 15.5847L22.766 15.5721L22.8325 15.54C23.0017 15.4197 23.1044 15.2505 23.1766 15.0589Z" fill="#829791"/>
<path d="M23.3083 15.1679L23.1918 15.1791C23.0434 15.3022 22.8646 15.3931 22.7661 15.5721C22.9437 16.1399 23.1017 16.2113 23.6191 15.9539C23.5275 15.9274 23.3029 16.0057 23.3681 15.8742C23.5054 15.5987 23.2917 15.4015 23.3083 15.1679Z" fill="#BAC2BE"/>
<path d="M22.7661 15.5721C22.9284 15.463 23.1253 15.3931 23.1918 15.1791L23.1767 15.0588C23.0269 15.2211 22.7744 15.298 22.7661 15.5721Z" fill="#A6ADA9"/>
</svg>
