<svg width="512" height="512" viewBox="0 0 512 512" fill="none" xmlns="http://www.w3.org/2000/svg">
<g clip-path="url(#clip0_90_13)">
<path d="M255.25 72.75C256.311 72.749 256.311 72.749 257.394 72.748C307.873 72.8241 352.68 93.5894 388.687 128.375C403.088 143.114 414.365 160.358 423 179C423.534 180.128 424.067 181.256 424.617 182.418C433.983 203.114 439.374 226.295 440 249C440.04 250.137 440.08 251.274 440.121 252.445C441.034 302.164 422.256 349.016 388.047 384.883C355.745 418.146 310.416 439.328 263.75 440.168C209.001 440.547 162.436 422.026 123 384C88.9126 349.576 71.821 301.294 71.9648 253.363C72.5355 225.879 78.9759 199.65 90.9999 175C91.3116 174.352 91.6232 173.704 91.9443 173.037C112.333 131.137 150.347 98.6343 194 83C206.083 78.9686 218.399 75.8794 231 74C231.948 73.8586 231.948 73.8586 232.915 73.7144C240.33 72.7437 247.783 72.7564 255.25 72.75ZM151 118C150.168 118.628 149.337 119.256 148.48 119.902C128.876 135.216 113.594 154.072 102 176C101.408 177.069 100.817 178.137 100.207 179.238C79.2994 218.515 77.1838 266.667 89.8688 308.806C92.5579 317.16 96.1721 325.114 99.9999 333C100.324 333.668 100.647 334.336 100.981 335.024C105.744 344.706 111.455 353.434 118 362C118.696 362.922 119.392 363.843 120.109 364.793C148.038 400.334 188.871 422.475 233.312 429.25C278.888 434.259 324.511 423.056 361 395C361.907 394.317 362.815 393.634 363.75 392.93C401.605 363.299 422.744 321.155 429.402 274.16C429.709 271.435 429.883 268.74 430 266C430.041 265.047 430.041 265.047 430.082 264.076C431.276 231.378 423.3 200.7 408 172C407.469 170.986 406.938 169.971 406.391 168.926C402.921 162.631 398.834 156.904 394.5 151.188C393.966 150.482 393.432 149.776 392.882 149.049C389.237 144.339 385.29 140.125 381 136C376 131 376 131 374.547 129.371C363.385 117.329 348.506 108.446 334 101C333.087 100.525 333.087 100.525 332.155 100.041C275.036 70.6836 201.357 78.5935 151 118Z" fill="rgb(202 138 4)"/>
<path d="M9.68749 76.1875C12 77 12 77 13 78C13.1023 80.4801 13.1375 82.926 13.1211 85.4062C13.1168 86.5447 13.1168 86.5447 13.1124 87.7062C13.0495 95.5402 12.6642 103.35 12.2004 111.169C12.0609 113.526 11.9294 115.884 11.7988 118.242C11.3869 125.52 10.9209 132.766 9.99999 140C13.63 140 17.26 140 21 140C20.9921 138.294 20.9921 138.294 20.9841 136.554C20.9657 132.23 20.9544 127.906 20.9451 123.582C20.9401 121.73 20.9333 119.878 20.9246 118.026C20.8779 107.927 20.9615 97.8546 21.4414 87.7656C21.4804 86.9126 21.5194 86.0597 21.5595 85.1808C21.8747 79.2505 21.8747 79.2505 23 77C25.3125 76.125 25.3125 76.125 28 76C30.1504 77.5664 30.1504 77.5664 32 80C32.4082 83.082 32.4082 83.082 32.2812 86.8125C32.2641 87.5019 32.247 88.1913 32.2294 88.9016C32.1899 90.4337 32.1416 91.9655 32.0859 93.4971C31.9951 96.1412 31.9391 98.7844 31.8906 101.43C31.7818 107.287 31.6423 113.143 31.5 119C31.4516 121.047 31.4035 123.094 31.3555 125.141C31.2389 130.094 31.1201 135.047 31 140C34.3 140 37.6 140 41 140C40.9786 139.257 40.9572 138.514 40.9351 137.749C40.7369 130.746 40.5583 123.742 40.4016 116.738C40.3204 113.137 40.2316 109.537 40.1255 105.937C40.0233 102.461 39.9411 98.9864 39.8727 95.5104C39.8287 93.5403 39.7641 91.5707 39.6993 89.6011C39.6688 87.7997 39.6688 87.7997 39.6377 85.9619C39.611 84.9049 39.5844 83.8479 39.5569 82.7589C40.1155 79.2809 41.2175 78.0955 44 76C48.3 76.3 48.3 76.3 50 78C51.7599 90.8023 51.1128 103.99 51.0625 116.875C51.0575 119.124 51.0529 121.372 51.0488 123.621C51.0379 129.081 51.0207 134.54 51 140C54.63 140 58.26 140 62 140C61.9091 138.543 61.8182 137.086 61.7246 135.585C61.3857 130.137 61.0513 124.69 60.7183 119.242C60.574 116.892 60.4285 114.542 60.2817 112.192C60.0701 108.799 59.8628 105.405 59.6562 102.012C59.5906 100.975 59.525 99.9379 59.4574 98.8696C59.2799 95.9137 59.1341 92.9581 59 90C58.9104 88.4714 58.9104 88.4714 58.8191 86.912C58.7827 85.9302 58.7464 84.9484 58.709 83.9368C58.6685 83.059 58.628 82.1813 58.5863 81.2769C59 79 59 79 60.8502 77.1446C63 76 63 76 65.6875 76.75C68 78 68 78 69 79C69.219 81.1881 69.3726 83.3828 69.5 85.5781C69.5605 86.5892 69.5605 86.5892 69.6222 87.6207C69.753 89.8302 69.8768 92.04 70 94.25C70.0875 95.774 70.1752 97.298 70.2632 98.822C70.4771 102.556 70.6844 106.289 70.89 110.023C71.0383 112.689 71.1956 115.354 71.3516 118.02C71.6324 123.011 71.8376 128.003 72 133C72.034 133.941 72.068 134.881 72.103 135.851C72.8597 159.336 69.6566 183.687 59 205C59.825 205.392 60.65 205.784 61.5 206.188C64 208 64 208 64.5 210.5C64 213 64 213 63 214.812C59.8142 216.704 56.6654 216.07 53 216C53.0028 217.118 53.0055 218.236 53.0084 219.388C53.0749 246.579 53.1243 273.769 53.1554 300.96C53.1709 314.109 53.192 327.259 53.2263 340.408C53.2562 351.867 53.2756 363.327 53.2823 374.786C53.2862 380.855 53.2954 386.924 53.3172 392.993C53.3375 398.704 53.3438 404.415 53.3393 410.126C53.3401 412.223 53.3461 414.32 53.3576 416.417C53.3725 419.279 53.3689 422.14 53.3608 425.002C53.3695 425.833 53.3782 426.664 53.3872 427.52C53.344 433.098 52.3997 437.369 48.5 441.645C42.5287 446.294 37.4073 446.87 30 446C24.1418 443.924 21.5141 440.732 18.861 435.281C17.4201 431.464 17.4616 427.839 17.519 423.8C17.5156 422.907 17.5121 422.014 17.5086 421.094C17.5021 418.12 17.524 415.146 17.5459 412.172C17.547 410.033 17.5464 407.894 17.5441 405.755C17.543 399.96 17.5665 394.165 17.5944 388.37C17.6194 382.31 17.6218 376.249 17.6265 370.189C17.6389 358.718 17.6718 347.247 17.7119 335.776C17.7566 322.714 17.7786 309.653 17.7987 296.591C17.8405 269.727 17.9108 242.864 18 216C16.8966 216.035 15.7931 216.07 14.6562 216.105C11 216 11 216 8.49999 214.312C6.99999 212 6.99999 212 6.93749 209.375C7.99999 207 7.99999 207 10.5664 205.852C11.3695 205.571 12.1726 205.29 13 205C12.5411 203.814 12.0822 202.628 11.6094 201.406C7.66249 191.056 4.30415 180.838 1.99999 170C1.77441 169.02 1.54882 168.041 1.3164 167.031C-2.42828 147.817 0.0461166 127.04 1.06704 107.64C1.18888 105.299 1.30492 102.958 1.41512 100.616C1.57514 97.2872 1.76059 93.9603 1.95312 90.6328C1.99812 89.6203 2.04312 88.6078 2.08949 87.5646C2.52907 80.6642 2.52907 80.6642 4.89745 77.3237C6.99999 76 6.99999 76 9.68749 76.1875ZM9.99999 150C10.8461 160.475 10.8461 160.475 12.6875 170.688C12.8583 171.442 13.0291 172.196 13.2051 172.972C15.9315 184.472 20.2041 195.209 25 206C32.26 206 39.52 206 47 206C55.0993 188.372 62 169.661 62 150C44.84 150 27.68 150 9.99999 150ZM28 216C28 262.2 28 308.4 28 356C30.31 354.02 32.62 352.04 35 350C35.7925 349.374 36.5851 348.748 37.4017 348.103C41.6098 344.492 43.4957 341.851 43.962 336.255C43.9851 334.012 43.9643 331.768 43.9082 329.525C43.9099 327.68 43.9099 327.68 43.9117 325.798C43.9071 322.446 43.8672 319.097 43.8111 315.746C43.7609 312.236 43.7564 308.726 43.7469 305.216C43.7221 298.579 43.6566 291.942 43.5761 285.306C43.4865 277.746 43.4427 270.186 43.4026 262.626C43.3191 247.083 43.1769 231.542 43 216C38.05 216 33.1 216 28 216ZM32.9585 363.657C28.6611 368.155 27.1519 371.551 27.0178 377.78C27.1739 381.56 27.4962 385.249 28 389C28.7154 388.261 29.4309 387.523 30.168 386.762C33 384 33 384 35.6758 381.957C40.8709 377.77 40.8709 377.77 43.4517 371.782C43.8711 366.489 43.5171 361.275 43 356C39.7944 356 35.2847 361.489 32.9585 363.657ZM32.9695 395.965C26.859 402.546 26.7272 409.379 26.8125 418.062C26.8247 419.347 26.8368 420.632 26.8494 421.956C26.9735 429.222 26.9735 429.222 30.3828 435.336C33.6198 437.394 35.2348 437.721 39 437C41.3539 435.652 41.3539 435.652 43 433C43.5603 429.659 43.4647 426.363 43.3906 422.984C43.385 422.013 43.3793 421.042 43.3735 420.042C43.3511 416.944 43.3009 413.848 43.25 410.75C43.2299 408.648 43.2117 406.547 43.1953 404.445C43.1512 399.296 43.0822 394.148 43 389C39.6222 389 35.3932 393.776 32.9695 395.965Z" fill="rgb(202 138 4)"/>
<path d="M500 66C502.465 69.698 502.274 72.4876 502.241 76.7637C502.242 77.5626 502.244 78.3614 502.246 79.1845C502.249 81.8701 502.238 84.5554 502.227 87.241C502.227 89.1626 502.227 91.0842 502.228 93.0058C502.229 98.2307 502.217 103.455 502.203 108.68C502.19 114.138 502.189 119.595 502.187 125.052C502.181 135.39 502.164 145.728 502.144 156.066C502.122 167.833 502.111 179.601 502.101 191.369C502.08 215.579 502.045 239.79 502 264C503.279 263.959 504.558 263.917 505.875 263.875C508.055 263.805 508.055 263.805 510 264C512 266 512 266 512.313 269C512.209 269.99 512.106 270.98 512 272C508.356 274.429 506.288 274.162 502 274C502.003 274.808 502.006 275.616 502.008 276.448C502.075 296.112 502.124 315.775 502.155 335.439C502.171 344.949 502.192 354.458 502.226 363.967C502.256 372.256 502.276 380.545 502.282 388.834C502.286 393.222 502.295 397.611 502.317 401.999C502.338 406.132 502.344 410.264 502.339 414.397C502.34 415.911 502.346 417.426 502.358 418.94C502.373 421.014 502.369 423.086 502.361 425.16C502.364 426.319 502.366 427.477 502.369 428.671C501.638 435.261 498.992 439.738 494 444C489.279 446.892 484.366 446.491 479 446C473.705 444.235 471.243 441.355 468 437C466.586 434.171 466.877 431.812 466.88 428.647C466.879 427.988 466.878 427.329 466.877 426.65C466.876 424.431 466.881 422.212 466.887 419.994C466.887 418.407 466.887 416.821 466.886 415.234C466.886 410.918 466.892 406.602 466.899 402.287C466.905 397.78 466.905 393.273 466.907 388.766C466.91 380.227 466.918 371.688 466.928 363.149C466.939 353.43 466.945 343.711 466.95 333.991C466.96 313.994 466.978 293.997 467 274C465.721 274.024 464.443 274.049 463.125 274.074C459.25 274.148 459.25 274.148 457 272.812C455.656 270.376 455.649 268.74 456 266C458.762 263.238 461.207 263.421 465 263C464.613 262.175 464.227 261.35 463.828 260.5C459.793 251.551 456.888 242.645 455 233C454.849 232.238 454.698 231.477 454.543 230.692C445.919 184.905 452.602 129.54 476 89C476.536 88.0687 476.536 88.0687 477.082 87.1187C490.272 64.5894 490.272 64.5894 500 66ZM491 84C474.201 108.592 466.844 137.804 463 167C462.897 167.777 462.794 168.554 462.688 169.355C461.78 177.149 461.758 184.975 461.75 192.812C461.749 193.54 461.748 194.267 461.747 195.017C461.767 216.904 464.676 237.968 474 258C474.236 258.684 474.472 259.369 474.715 260.074C475.434 262.071 475.434 262.071 478 264C482.62 264 487.24 264 492 264C492 204.6 492 145.2 492 84C491.67 84 491.34 84 491 84ZM476 274C476 302.71 476 331.42 476 361C478.31 359.02 480.62 357.04 483 355C484.298 354.025 484.298 354.025 485.621 353.03C489.494 349.835 491.694 347.41 492.777 342.424C493.154 338.07 493.014 333.733 492.879 329.371C492.862 327.77 492.849 326.168 492.84 324.567C492.806 320.378 492.718 316.193 492.618 312.006C492.525 307.722 492.485 303.438 492.44 299.154C492.343 290.768 492.185 282.385 492 274C486.72 274 481.44 274 476 274ZM481.316 368.369C476.99 372.876 475.1 376.199 474.948 382.493C475.115 386.044 475.456 389.484 476 393C477.634 391.644 479.259 390.276 480.844 388.863C483 387 483 387 485.469 385.23C488.838 382.528 491.587 380.26 492.396 375.834C492.779 370.528 492.462 365.291 492 360C488.467 360 483.744 366.087 481.316 368.369ZM481.321 401.169C476.752 405.983 475.056 409.673 474.85 416.322C475.128 426.585 475.128 426.585 479.25 435.813C481.991 437.673 483.768 437.517 487 437C489.697 435.009 491.684 433.424 492.435 430.041C492.579 427.672 492.562 425.353 492.488 422.98C492.481 422.122 492.474 421.263 492.467 420.379C492.439 417.647 492.376 414.918 492.313 412.188C492.287 410.331 492.265 408.475 492.244 406.619C492.189 402.079 492.103 397.54 492 393C488.428 393 483.769 398.877 481.321 401.169Z" fill="rgb(202 138 4)"/>
<path d="M255.687 136.687C256.68 136.69 256.68 136.69 257.694 136.693C267.838 136.74 277.216 137.259 287 140C288.79 140.476 288.79 140.476 290.617 140.961C306.093 145.574 320.676 153.596 333 164C333.993 164.83 334.985 165.66 336.008 166.516C359.548 186.806 373.52 216.151 376 247C377.741 277.593 369.681 309.15 349.195 332.562C348.109 333.769 348.109 333.769 347 335C346.317 335.825 345.634 336.65 344.93 337.5C326.649 359.086 297.971 372.996 270 376C235.169 377.715 205.054 370.416 178 348C177.228 347.37 176.456 346.739 175.66 346.09C151.38 325.631 138.683 295.051 136 264C133.565 231.893 145.273 200.901 165.848 176.59C180.619 159.678 200.019 147.743 221.5 141.312C222.176 141.11 222.852 140.907 223.548 140.698C234.278 137.629 244.532 136.639 255.687 136.687ZM224 151C223.321 151.209 222.642 151.418 221.942 151.633C194.826 160.201 172.06 179.795 158.783 204.85C144.997 231.877 142.134 261.632 151.187 290.688C161.716 319.908 182.206 343.211 210.25 356.75C235.795 368.584 266.646 369.902 293.062 360.312C321.305 349.344 344.377 328.968 356.884 301.024C368.221 274.006 369.809 243.401 358.825 215.93C349.945 195.147 335.474 175.904 316 164C314.966 163.345 313.932 162.69 312.867 162.016C304.049 156.59 294.91 152.939 285 150C283.868 149.658 282.736 149.317 281.57 148.965C263.191 144.402 242.013 145.282 224 151Z" fill="rgb(202 138 4)"/>
<path d="M321 101C321.66 101.66 322.32 102.32 323 103C322.799 110.454 320.55 116.552 317.688 123.375C317.296 124.359 316.905 125.342 316.502 126.355C315.919 127.769 315.919 127.769 315.324 129.211C314.975 130.06 314.625 130.908 314.264 131.783C312.82 134.315 311.506 135.532 309 137C304.59 136.59 304.59 136.59 303 135C302.665 129.913 303.338 126.329 305.336 121.664C306.067 119.945 306.067 119.945 306.813 118.191C307.328 117.014 307.844 115.838 308.375 114.625C308.883 113.425 309.391 112.225 309.914 110.988C314.425 100.507 314.425 100.507 321 101Z" fill="rgb(202 138 4)"/>
<path d="M103 189C109.923 189.161 116.033 192.258 122.312 194.938C123.957 195.621 123.957 195.621 125.635 196.318C133.729 199.729 133.729 199.729 136 202C136.312 205 136.312 205 136 208C133 210 133 210 130.173 209.763C127.029 209.007 124.217 208.029 121.234 206.785C119.653 206.127 119.653 206.127 118.039 205.455C116.954 204.996 115.868 204.536 114.75 204.062C113.649 203.607 112.548 203.151 111.414 202.682C103.261 199.261 103.261 199.261 101 197C100.75 194 100.75 194 101 191C101.66 190.34 102.32 189.68 103 189Z" fill="rgb(202 138 4)"/>
<path d="M134 303C136 305 136 305 136.438 307.938C136.293 308.948 136.149 309.959 136 311C130.837 314.634 124.787 316.805 119 319.25C117.92 319.722 116.84 320.194 115.727 320.68C114.682 321.121 113.638 321.561 112.562 322.016C111.615 322.421 110.668 322.826 109.691 323.243C106.647 324.099 104.985 323.982 102 323C101.34 322.34 100.68 321.68 100 321C100.023 318.063 100.023 318.063 101 315C103.414 313.313 103.414 313.313 106.625 312C107.793 311.513 108.961 311.025 110.164 310.523C111.098 310.154 111.098 310.154 112.052 309.776C114.056 308.978 116.04 308.138 118.023 307.289C129.617 302.421 129.617 302.421 134 303Z" fill="rgb(202 138 4)"/>
<path d="M411 190C411.625 192.812 411.625 192.812 412 196C408.806 200.79 403.372 201.959 398.161 203.981C396.199 204.746 394.247 205.534 392.295 206.324C391.045 206.817 389.794 207.307 388.543 207.797C387.409 208.244 386.275 208.691 385.106 209.151C381.882 210.032 380.158 209.963 377 209C376.67 206.69 376.34 204.38 376 202C381.401 198.634 387.09 196.231 392.938 193.75C394.009 193.278 395.081 192.806 396.186 192.32C397.747 191.659 397.747 191.659 399.34 190.984C400.282 190.579 401.224 190.174 402.195 189.757C405.482 188.87 407.716 189.226 411 190Z" fill="rgb(202 138 4)"/>
<path d="M308.437 376.125C311.882 377.301 312.305 378.838 314 382C315.683 385.595 317.175 389.268 318.687 392.938C319.311 394.402 319.311 394.402 319.947 395.896C323.781 405.182 323.781 405.182 323 410C321 412 321 412 318.562 412.313C315.445 411.932 314.958 411.387 313 409C310.995 405.028 309.408 400.877 307.75 396.75C307.278 395.63 306.806 394.51 306.32 393.355C302.063 382.811 302.063 382.811 304 377C306 376 306 376 308.437 376.125Z" fill="rgb(202 138 4)"/>
<path d="M202 376C207.568 376.568 207.568 376.568 209 378C208.729 385.774 206.289 391.897 203.125 398.938C202.678 399.977 202.23 401.017 201.77 402.088C198.396 409.736 198.396 409.736 195 412C190.459 411.459 190.459 411.459 189 410C189.263 402.204 191.74 396.108 194.938 389.062C195.393 388.023 195.849 386.983 196.318 385.912C199.702 378.298 199.702 378.298 202 376Z" fill="rgb(202 138 4)"/>
<path d="M194.125 100.875C195.074 100.916 196.022 100.957 197 101C200.248 107.091 203.107 113.341 205.812 119.688C206.126 120.4 206.44 121.112 206.764 121.845C208.663 126.382 209.431 129.993 209 135C208 136 208 136 204.437 136.062C203.303 136.042 202.169 136.021 201 136C197.594 129.752 194.806 123.295 192.187 116.688C191.874 115.911 191.56 115.135 191.236 114.334C188.377 106.997 188.377 106.997 189 103C191 101 191 101 194.125 100.875Z" fill="rgb(202 138 4)"/>
<path d="M386 304C390.194 305.508 394.28 307.243 398.375 309C399.48 309.464 400.584 309.928 401.723 310.406C409.842 313.842 409.842 313.842 411 315C411.041 317.333 411.042 319.667 411 322C408.006 323.57 406.544 324.128 403.201 323.341C402.205 322.924 401.21 322.507 400.184 322.078C398.543 321.405 398.543 321.405 396.869 320.719C395.171 319.992 395.171 319.992 393.438 319.25C392.301 318.781 391.165 318.312 389.994 317.828C386.984 316.578 383.983 315.315 381 314C380.242 313.68 379.484 313.36 378.703 313.03C377 312 377 312 376.063 309.063C376 306 376 306 377 304.063C380.085 302.423 382.744 303.177 386 304Z" fill="rgb(202 138 4)"/>
<path d="M256 386.75C259 387 259 387 261 389C261.2 391.486 261.28 393.858 261.266 396.344C261.268 397.069 261.27 397.794 261.271 398.54C261.273 400.074 261.269 401.607 261.261 403.14C261.25 405.491 261.261 407.841 261.273 410.191C261.272 411.68 261.27 413.168 261.266 414.656C261.27 415.361 261.274 416.067 261.278 416.793C261.23 421.77 261.23 421.77 259 424C256 424.25 256 424.25 253 424C250.54 421.54 250.755 420.152 250.722 416.793C250.726 416.088 250.73 415.383 250.734 414.656C250.733 413.931 250.731 413.206 250.729 412.46C250.727 410.926 250.731 409.393 250.739 407.86C250.75 405.509 250.739 403.159 250.727 400.809C250.728 399.32 250.731 397.832 250.734 396.344C250.73 395.639 250.726 394.933 250.722 394.207C250.79 387.184 250.79 387.184 256 386.75Z" fill="rgb(202 138 4)"/>
<path d="M403.472 250.684C405.494 250.687 407.514 250.664 409.535 250.639C411.451 250.638 411.451 250.638 413.406 250.637C414.575 250.634 415.743 250.631 416.947 250.628C420.27 251.033 421.67 251.632 424 254C424.375 256.563 424.375 256.563 424 259C421.516 261.484 420.034 261.256 416.641 261.304C415.914 261.303 415.187 261.302 414.437 261.301C413.69 261.305 412.943 261.309 412.174 261.314C410.593 261.32 409.013 261.32 407.433 261.316C405.009 261.313 402.587 261.336 400.164 261.361C398.63 261.364 397.096 261.364 395.562 261.363C394.835 261.372 394.108 261.382 393.359 261.391C391.316 261.372 391.316 261.372 388 261C386 258 386 258 386.125 255.438C387 253 387 253 388.643 251.866C393.355 250.135 398.508 250.668 403.472 250.684Z" fill="rgb(202 138 4)"/>
<path d="M106.938 250.687C108.213 250.671 109.489 250.655 110.803 250.639C112.032 250.638 113.261 250.637 114.527 250.637C116.21 250.632 116.21 250.632 117.926 250.628C121.366 251.044 123.267 251.892 126 254C126.438 256.562 126.438 256.562 126 259C123.516 261.484 122.034 261.256 118.641 261.304C117.914 261.303 117.187 261.302 116.438 261.301C115.69 261.305 114.943 261.309 114.174 261.314C112.593 261.32 111.013 261.32 109.433 261.316C107.009 261.313 104.587 261.336 102.164 261.361C100.63 261.364 99.0964 261.364 97.5626 261.363C96.8355 261.372 96.1084 261.382 95.3592 261.391C93.3165 261.372 93.3165 261.372 90.0001 261C88.0001 258 88.0001 258 88.1251 255.437C89.0001 253 89.0001 253 90.6585 251.866C95.7639 249.977 101.561 250.674 106.938 250.687Z" fill="rgb(202 138 4)"/>
<path d="M256 88.75C259 89 259 89 261 91C261.199 93.4857 261.28 95.8575 261.266 98.3438C261.268 99.0686 261.269 99.7935 261.271 100.54C261.273 102.074 261.269 103.607 261.261 105.14C261.25 107.491 261.261 109.841 261.273 112.191C261.272 113.68 261.27 115.168 261.266 116.656C261.27 117.361 261.274 118.067 261.278 118.793C261.23 123.77 261.23 123.77 259 126C256 126.312 256 126.312 253 126C250.504 122.256 250.742 120.249 250.734 115.777C250.732 115.076 250.731 114.375 250.729 113.652C250.727 112.172 250.731 110.692 250.739 109.212C250.75 106.942 250.739 104.674 250.727 102.404C250.728 100.966 250.73 99.528 250.734 98.0898C250.737 96.7788 250.739 95.4677 250.741 94.1169C251.09 89.9209 251.79 89.1009 256 88.75Z" fill="rgb(202 138 4)"/>
<path d="M355 348C358.399 350.612 361.376 353.633 364.404 356.663C365.871 358.121 367.367 359.545 368.867 360.969C369.795 361.889 370.723 362.81 371.68 363.758C372.533 364.595 373.386 365.431 374.265 366.293C376 369 376 369 375.77 372.828C375.516 373.875 375.262 374.921 375 376C370.531 377.281 370.531 377.281 368.289 376.094C366.18 374.074 364.082 372.048 362 370C360.706 368.811 359.41 367.624 358.113 366.437C356.72 365.127 355.328 363.814 353.937 362.5C353.245 361.872 352.553 361.243 351.84 360.596C349.987 358.801 348.397 357.169 347 355C346.941 351.094 346.941 351.094 348 348C350.789 346.605 352.04 347.077 355 348Z" fill="rgb(202 138 4)"/>
<path d="M164 348C164.772 351.172 164.772 351.172 165 355C163.249 357.707 163.249 357.707 160.645 360.242C159.246 361.623 159.246 361.623 157.818 363.031C157.325 363.498 156.832 363.965 156.323 364.445C154.815 365.872 153.339 367.327 151.865 368.789C143.736 376.689 143.736 376.689 140 377C137.75 375.875 137.75 375.875 136 374C135.608 371.698 135.608 371.698 136 369C137.896 366.521 137.896 366.521 140.524 363.953C141.462 363.026 142.4 362.099 143.367 361.145C144.37 360.18 145.372 359.215 146.375 358.25C147.371 357.271 148.366 356.29 149.359 355.309C158.219 346.631 158.219 346.631 164 348Z" fill="rgb(202 138 4)"/>
<path d="M374 137C376 139 376 139 376.413 141.292C375.599 146.635 370.653 150.156 366.93 153.832C365.38 155.37 363.864 156.939 362.348 158.512C361.367 159.497 360.384 160.48 359.398 161.461C358.508 162.356 357.618 163.251 356.701 164.173C354 166 354 166 350.725 165.846C348 165 348 165 347 164C346.538 160.243 346.628 158.529 348.833 155.391C349.674 154.543 350.516 153.694 351.383 152.82C352.303 151.892 353.224 150.964 354.172 150.008C354.657 149.535 355.143 149.062 355.643 148.575C357.121 147.129 358.565 145.653 360.008 144.172C361.4 142.791 361.4 142.791 362.82 141.383C363.669 140.541 364.517 139.7 365.391 138.833C368.549 136.615 370.218 136.461 374 137Z" fill="rgb(202 138 4)"/>
<path d="M140.801 136.601C144.927 137.116 146.249 138.476 149.18 141.383C150.108 142.303 151.036 143.224 151.992 144.172C152.465 144.657 152.938 145.143 153.425 145.643C154.871 147.121 156.347 148.565 157.828 150.008C159.209 151.4 159.209 151.4 160.617 152.82C161.88 154.093 161.88 154.093 163.167 155.391C165.39 158.555 165.624 160.212 165 164C162 166 162 166 159.63 165.907C154.617 164.178 151.309 159.934 147.651 156.227C146.19 154.753 144.707 153.304 143.221 151.855C142.296 150.929 141.371 150.002 140.418 149.047C139.57 148.2 138.722 147.352 137.848 146.479C136 144 136 144 135.599 141.31C136.213 137.775 137.307 137.099 140.801 136.601Z" fill="rgb(202 138 4)"/>
</g>
<defs>
<clipPath id="clip0_90_13">
<rect width="512" height="512" fill="white"/>
</clipPath>
</defs>
</svg>
