<svg width="512" height="512" viewBox="0 0 512 512" fill="none" xmlns="http://www.w3.org/2000/svg">
<g clip-path="url(#clip0_90_35)">
<path d="M208 141C208.653 141.247 209.305 141.495 209.978 141.749C240.329 153.539 263.838 175.986 280 204C280 204.66 280 205.32 280 206C280.825 205.645 281.649 205.29 282.499 204.925C302.477 196.331 322.483 187.805 342.529 179.37C351.49 175.599 360.445 171.817 369.38 167.983C373.491 166.22 377.605 164.464 381.719 162.708C383.677 161.87 385.633 161.029 387.587 160.184C390.309 159.009 393.034 157.845 395.762 156.684C396.551 156.339 397.341 155.994 398.155 155.638C403.435 153.408 409.206 151.039 415 151C417.292 152.464 417.292 152.464 419 154C419.185 156.962 419.203 158.339 418 161C415.73 162.859 415.73 162.859 412.875 164.75C405.637 169.597 401.839 175.521 398.562 183.5C395.876 200.217 403.761 214.532 410.125 229.562C410.927 231.467 411.73 233.372 412.531 235.277C414.194 239.227 415.858 243.177 417.524 247.125C420.996 255.358 424.442 263.601 427.889 271.844C429.758 276.313 431.629 280.781 433.5 285.25C434.25 287.042 435 288.833 435.75 290.625C436.121 291.512 436.492 292.399 436.875 293.312C440.25 301.375 440.25 301.375 441.375 304.062C442.125 305.855 442.876 307.648 443.627 309.441C445.492 313.899 447.358 318.356 449.224 322.813C452.707 331.137 456.192 339.459 459.682 347.779C461.313 351.668 462.943 355.556 464.574 359.445C465.344 361.281 466.114 363.117 466.885 364.953C470.427 373.389 473.963 381.827 477.402 390.305C477.864 391.439 478.325 392.573 478.8 393.742C487.168 416.471 485.185 441.985 475.316 463.848C465.819 483.547 448.88 499.218 428.312 506.801C408.622 513.646 386.899 514.991 367 508C365.393 507.439 365.393 507.439 363.754 506.867C338.743 497.245 323.127 478.036 312.437 454.284C305.309 438.136 298.605 421.798 291.809 405.508C287.091 394.201 282.332 382.911 277.562 371.625C276.768 369.745 275.974 367.866 275.18 365.986C272.787 360.324 270.394 354.662 268 349C264.812 341.459 261.624 333.917 258.437 326.375C258.046 325.449 257.655 324.524 257.252 323.57C251.711 310.455 246.202 297.326 240.713 284.189C238.493 278.879 236.267 273.57 234.042 268.262C232.119 263.677 230.204 259.089 228.297 254.498C226.977 251.329 225.644 248.165 224.312 245C223.868 243.922 223.423 242.843 222.965 241.732C212.277 216.493 192.624 197.155 167.308 186.856C139.705 176.612 112.768 178.616 85.9999 190C84.4625 190.706 82.9286 191.419 81.3983 192.141C69.9238 197.487 58.369 201.04 46.1249 204.125C45.3292 204.329 44.5336 204.533 43.7138 204.744C41.4196 205.327 39.1215 205.89 36.8202 206.445C36.1355 206.619 35.4508 206.792 34.7454 206.971C29.1869 208.261 24.5374 208.038 19.2499 205.875C16.0783 203.232 15.1643 200.946 13.9999 197C13.8089 192.974 14.4152 189.844 16.7499 186.473C19.0183 183.98 21.1003 182.366 23.9374 180.562C24.988 179.886 26.0386 179.209 27.121 178.512C27.7228 178.125 28.3247 177.739 28.9447 177.341C31.3293 175.785 33.6822 174.186 36.0351 172.582C36.9343 171.972 37.8335 171.362 38.7599 170.734C40.5384 169.527 42.3138 168.316 44.0856 167.1C88.6467 137.064 156.544 121.431 208 141ZM67.5624 166.437C66.8682 166.763 66.1741 167.088 65.4589 167.424C61.7146 169.181 61.7146 169.181 57.9999 171C58.4758 177.028 61.1971 181.767 63.9999 187C66.6254 186.022 69.2503 185.043 71.8749 184.062C72.9945 183.646 72.9945 183.646 74.1366 183.221C78.1271 181.749 78.1271 181.749 81.9999 180C81.4948 173.77 78.6739 168.545 75.9999 163C73.2678 163 70.062 165.258 67.5624 166.437ZM85.9999 159C87.748 164.467 89.6578 169.758 91.9999 175C94.0312 174.594 94.0312 174.594 96.0624 174.187C96.9931 174.008 97.9238 173.829 98.8827 173.645C100.952 173.217 103.011 172.735 105.055 172.199C122.2 168.022 142.028 168.046 159 173C160.234 173.352 161.467 173.704 162.738 174.066C187.339 181.482 209.337 197.052 223 219C223.502 219.786 224.005 220.572 224.523 221.383C230.375 230.926 234.482 241.117 238.75 251.437C239.583 253.434 240.417 255.43 241.252 257.426C242.982 261.563 244.708 265.703 246.432 269.843C250.031 278.483 253.679 287.103 257.325 295.723C259.299 300.388 261.268 305.056 263.238 309.723C266.038 316.354 268.839 322.986 271.639 329.617C279.111 347.307 286.581 364.997 294.03 382.696C294.994 384.986 295.959 387.277 296.924 389.567C300.181 397.295 303.431 405.025 306.665 412.763C308.359 416.812 310.057 420.86 311.756 424.908C312.57 426.85 313.383 428.794 314.193 430.738C318.013 439.904 321.876 449.024 326.293 457.922C326.759 458.865 326.759 458.865 327.235 459.827C337.159 479.374 354.041 492.214 374.551 499.035C393.139 504.235 412.723 502.746 430 494C430.983 493.508 431.967 493.015 432.98 492.508C450.957 482.787 464.25 466.619 470.254 447.066C480.05 412.132 462.425 376.85 447 346C442.697 346.659 438.959 348.184 435.012 349.941C433.652 350.531 432.292 351.12 430.932 351.709C428.809 352.633 426.689 353.562 424.573 354.501C422.517 355.411 420.453 356.302 418.387 357.191C417.766 357.473 417.144 357.754 416.504 358.044C411.749 360.068 408.064 360.251 403 360C402.875 356.812 402.875 356.812 404 353C411.501 347.714 421.42 344.954 429.938 341.727C431.747 341.039 433.547 340.33 435.348 339.621C436.41 339.213 437.472 338.805 438.567 338.385C441.088 337.242 441.088 337.242 441.964 335.145C442.01 332.391 441.314 330.586 440.234 328.051C439.641 326.656 439.641 326.656 439.035 325.232C438.611 324.269 438.187 323.305 437.75 322.312C437.341 321.337 436.933 320.362 436.512 319.357C434.916 315.597 434.916 315.597 433 312C428.884 310.628 426.514 312.253 422.769 313.965C421.312 314.606 419.854 315.248 418.396 315.889C416.108 316.909 413.822 317.933 411.538 318.964C409.329 319.956 407.112 320.93 404.894 321.902C404.223 322.212 403.552 322.521 402.861 322.84C398.028 324.946 394.267 325.291 389 325C388.67 323.02 388.34 321.04 388 319C391.681 315.832 395.822 314.237 400.266 312.426C401.059 312.097 401.852 311.768 402.67 311.43C405.194 310.385 407.722 309.349 410.25 308.312C411.966 307.604 413.682 306.895 415.398 306.186C419.596 304.451 423.797 302.724 428 301C427.768 300.42 427.536 299.841 427.297 299.243C424.198 291.496 421.099 283.748 418 276C413.498 276.666 409.59 278.352 405.469 280.195C404.004 280.835 402.539 281.474 401.074 282.113C398.781 283.12 396.489 284.13 394.202 285.149C391.983 286.135 389.758 287.104 387.531 288.07C386.851 288.379 386.17 288.687 385.47 289.004C381.6 290.669 379.039 291.44 375 290C374 289 374 289 373.625 286.625C373.749 285.759 373.872 284.892 374 284C377.886 281.226 382.278 279.519 386.672 277.715C388.155 277.096 389.638 276.477 391.121 275.857C393.446 274.892 395.773 273.928 398.1 272.968C400.356 272.035 402.608 271.094 404.859 270.152C405.911 269.723 405.911 269.723 406.983 269.284C410.668 267.939 410.668 267.939 413 265C412.399 262.918 412.399 262.918 411.357 260.573C410.972 259.654 410.588 258.735 410.192 257.788C409.552 256.29 409.552 256.29 408.898 254.762C408.465 253.73 408.031 252.698 407.585 251.635C406.189 248.316 404.782 245.002 403.375 241.687C401.546 237.359 399.722 233.03 397.898 228.699C397.243 227.143 397.243 227.143 396.574 225.555C388.833 207.127 383.507 192.807 391.101 173.148C391.398 172.439 391.694 171.73 392 171C386.129 172.874 380.435 174.975 374.777 177.414C374.011 177.741 373.245 178.067 372.456 178.404C369.948 179.474 367.443 180.55 364.937 181.625C363.159 182.385 361.381 183.145 359.603 183.904C355.908 185.481 352.215 187.06 348.521 188.641C343.252 190.894 337.979 193.136 332.703 195.375C331.87 195.728 331.037 196.082 330.179 196.446C328.51 197.154 326.841 197.862 325.172 198.571C306.095 206.667 287.043 214.822 268 223C269.364 225.728 270.649 225.715 273.5 226.687C284.89 231.113 291.305 238.939 296.359 249.836C297.166 251.678 297.962 253.525 298.75 255.375C299.207 256.43 299.664 257.486 300.135 258.573C305.865 271.881 311.421 285.264 316.999 298.636C322.131 310.939 327.307 323.223 332.5 335.5C337.277 346.796 342.047 358.095 346.777 369.41C347.167 370.342 347.557 371.274 347.958 372.234C349.869 376.806 351.777 381.378 353.683 385.952C356.992 393.885 360.327 401.802 363.793 409.668C364.082 410.327 364.371 410.987 364.669 411.667C365.981 414.658 367.303 417.644 368.65 420.619C371.006 425.97 372.763 430.123 372 436C371 437 371 437 367.937 437.062C366.968 437.042 365.999 437.021 365 437C358.39 422.312 352.087 407.511 345.937 392.625C345.399 391.322 345.399 391.322 344.85 389.994C343.364 386.395 341.878 382.797 340.392 379.199C336.331 369.371 332.233 359.558 328.125 349.75C327.756 348.868 327.387 347.987 327.006 347.079C320.299 331.062 313.556 315.061 306.783 299.072C303.193 290.594 299.621 282.111 296.125 273.594C295.532 272.156 294.94 270.719 294.347 269.282C293.281 266.7 292.228 264.113 291.182 261.522C286.435 250.012 281.067 240.151 269.437 234.687C259.546 230.668 249.389 231.913 239 233C237 230 237 230 237.042 227.487C238 225 238 225 240.297 223.47C241.295 223.055 242.292 222.639 243.32 222.211C244.413 221.744 245.506 221.278 246.633 220.797C248.361 220.093 248.361 220.093 250.125 219.375C251.254 218.898 252.383 218.421 253.547 217.93C256.692 216.604 259.845 215.301 263 214C265.337 213.009 267.669 212.007 270 211C266.785 193.677 245.28 174.952 231.312 165.187C219.112 156.979 205.318 150.424 191 147C189.85 146.704 188.7 146.407 187.516 146.102C154.516 138.879 116.374 144.788 85.9999 159ZM46.9999 178C39.7399 182.95 32.4799 187.9 24.9999 193C25.3299 194.32 25.6599 195.64 25.9999 197C32.344 196.355 38.3328 195.038 44.4999 193.437C45.8766 193.087 45.8766 193.087 47.2812 192.729C49.5219 192.157 51.7614 191.58 53.9999 191C53.2165 189.018 52.4229 187.039 51.6249 185.062C51.184 183.96 50.7432 182.858 50.289 181.723C49.2895 178.888 49.2895 178.888 46.9999 178Z" fill="rgb(202 138 4)"/>
<path d="M213 2.00004C215.549 4.54905 215.259 6.18381 215.278 9.66239C215.269 10.4957 215.259 11.329 215.25 12.1875C215.245 13.073 215.239 13.9585 215.234 14.8709C215.103 24.9425 214.612 35.0032 214.125 45.0625C214.086 45.9071 214.047 46.7516 214.006 47.6217C212.751 74.226 212.751 74.226 208.875 79.5625C204.033 83.6673 199.695 85.3742 193.312 84.875C188.146 84.0316 185.231 82.4019 181.75 78.4375C179.163 73.3564 178.036 68.3099 179.664 62.7188C181.961 57.7132 185.022 54.4891 190 52C191.874 51.9297 193.75 51.9157 195.625 51.9375C197.129 51.9511 197.129 51.9511 198.664 51.9649C199.435 51.9765 200.206 51.9881 201 52C202.165 48.1918 202.318 44.3402 202.535 40.3907C202.578 39.6638 202.621 38.937 202.665 38.1882C202.801 35.8757 202.932 33.5629 203.062 31.25C203.154 29.6784 203.246 28.1068 203.338 26.5352C203.563 22.6904 203.782 18.8453 204 15C202.95 15.303 201.9 15.6059 200.819 15.918C196.932 17.0388 193.044 18.1562 189.156 19.2725C187.472 19.7566 185.788 20.2416 184.104 20.7276C181.687 21.425 179.27 22.1191 176.851 22.8125C176.096 23.0313 175.341 23.25 174.563 23.4754C169.228 25 169.228 25 167 25C167.01 26.0594 167.02 27.1188 167.031 28.2102C167.102 39.182 166.808 50.1058 166.255 61.0633C166.123 63.7235 166.005 66.3841 165.887 69.045C165.803 70.7631 165.718 72.4812 165.633 74.1993C165.583 75.3728 165.583 75.3728 165.531 76.57C165.153 83.6121 164.171 89.8292 159 95C153.941 98.4931 148.954 98.8304 143 98C138.797 96.6602 136.316 94.397 133.562 90.9375C131.198 86.1891 131.228 81.1638 132 76C134.154 71.6125 136.776 68.4794 141 66C145.89 64.9823 150.172 64.6983 155 66C155.025 65.2816 155.05 64.5632 155.076 63.823C155.927 39.6366 155.927 39.6366 156.5 28C156.535 27.2249 156.571 26.4498 156.607 25.6512C156.768 22.5513 157.013 19.9616 158 17C166.338 12.5871 176.682 10.6209 185.736 7.99857C188.327 7.24584 190.914 6.48057 193.502 5.71488C195.164 5.23104 196.826 4.74794 198.488 4.26566C199.254 4.0376 200.02 3.80953 200.809 3.57456C204.955 2.38851 208.642 1.55197 213 2.00004ZM190.687 64.1875C188.757 66.8377 188.757 66.8377 189.062 69.6875C189.88 72.3262 189.88 72.3262 193 74C195.831 74.3539 197.368 74.3921 199.812 72.875C201.57 70.1 201.468 68.2107 201 65C199.346 63.0097 199.346 63.0097 197 62C192.954 61.5419 192.954 61.5419 190.687 64.1875ZM143.062 77.0625C141.333 80.2157 142.141 82.6251 143 86C145.748 88.2768 145.748 88.2768 148.5 87.8125C151.254 86.9175 152.469 86.4669 154 84C153.777 80.3527 153.616 78.6163 151 76C147.902 75.6705 145.827 75.5467 143.062 77.0625Z" fill="rgb(202 138 4)"/>
<path d="M423.468 2.12272C426.017 4.67173 425.727 6.30649 425.746 9.78507C425.737 10.6184 425.728 11.4517 425.718 12.3102C425.713 13.1957 425.708 14.0812 425.702 14.9936C425.572 25.0651 425.081 35.1259 424.593 45.1852C424.554 46.0297 424.515 46.8743 424.475 47.7444C423.22 74.3487 423.22 74.3487 419.343 79.6852C414.502 83.7899 410.163 85.4968 403.781 84.9977C398.614 84.1543 395.699 82.5246 392.218 78.5602C389.632 73.4791 388.505 68.4326 390.133 62.8415C392.43 57.8359 395.49 54.6118 400.468 52.1227C402.342 52.0524 404.218 52.0384 406.093 52.0602C407.598 52.0738 407.598 52.0738 409.133 52.0876C409.903 52.0992 410.674 52.1108 411.468 52.1227C412.634 48.3145 412.786 44.4629 413.004 40.5133C413.047 39.7865 413.09 39.0597 413.134 38.3109C413.27 35.9984 413.4 33.6856 413.531 31.3727C413.622 29.8011 413.714 28.2295 413.806 26.6579C414.031 22.813 414.251 18.968 414.468 15.1227C413.419 15.4256 412.369 15.7286 411.287 16.0407C407.401 17.1615 403.513 18.2789 399.625 19.3952C397.94 19.8793 396.257 20.3643 394.573 20.8503C392.156 21.5477 389.738 22.2418 387.32 22.9352C386.565 23.154 385.809 23.3727 385.031 23.5981C379.696 25.1227 379.696 25.1227 377.468 25.1227C377.479 26.1821 377.489 27.2415 377.499 28.3329C377.571 39.3047 377.276 50.2285 376.724 61.1859C376.592 63.8462 376.473 66.5068 376.355 69.1676C376.271 70.8858 376.187 72.6039 376.101 74.3219C376.051 75.4955 376.051 75.4955 376 76.6927C375.621 83.7347 374.639 89.9518 369.468 95.1227C364.409 98.6158 359.422 98.953 353.468 98.1227C349.265 96.7829 346.784 94.5197 344.031 91.0602C341.667 86.3118 341.696 81.2865 342.468 76.1227C344.622 71.7352 347.244 68.602 351.468 66.1227C356.358 65.105 360.641 64.821 365.468 66.1227C365.493 65.4043 365.519 64.6859 365.544 63.9457C366.395 39.7592 366.395 39.7592 366.968 28.1227C367.004 27.3476 367.039 26.5725 367.076 25.7738C367.236 22.674 367.481 20.0843 368.468 17.1227C376.807 12.7098 387.151 10.7436 396.204 8.12125C398.795 7.36852 401.383 6.60325 403.97 5.83756C405.632 5.35372 407.294 4.87062 408.957 4.38834C409.722 4.16028 410.488 3.93221 411.277 3.69724C415.424 2.51119 419.11 1.67465 423.468 2.12272ZM401.156 64.3102C399.225 66.9604 399.225 66.9604 399.531 69.8102C400.348 72.4489 400.348 72.4489 403.468 74.1227C406.299 74.4766 407.837 74.5148 410.281 72.9977C412.038 70.2227 411.937 68.3334 411.468 65.1227C409.815 63.1324 409.815 63.1324 407.468 62.1227C403.422 61.6646 403.422 61.6646 401.156 64.3102ZM353.531 77.1852C351.802 80.3384 352.609 82.7478 353.468 86.1227C356.217 88.3994 356.217 88.3994 358.968 87.9352C361.722 87.0402 362.937 86.5896 364.468 84.1227C364.245 80.4754 364.085 78.739 361.468 76.1227C358.371 75.7932 356.295 75.6694 353.531 77.1852Z" fill="rgb(202 138 4)"/>
<path d="M428.25 465.187C431 466 431 466 432 467C432.688 470.062 432.688 470.062 432 474C423.478 483.551 410.692 488.421 398.188 489.254C386.239 489.706 373.35 488.432 363.262 481.363C362 480 362 480 361.375 476.812C362 474 362 474 364 472C368.015 471.412 370.679 472.181 374.25 473.875C385.881 479.378 397.976 479.211 410 475C414.686 472.677 418.836 470.032 422.75 466.562C425 465 425 465 428.25 465.187Z" fill="rgb(202 138 4)"/>
<path d="M330 403C332.141 405.84 333.288 409.022 334.551 412.328C334.936 413.269 335.321 414.21 335.717 415.18C336.942 418.193 338.128 421.221 339.313 424.25C340.128 426.276 340.947 428.301 341.768 430.324C343.594 434.84 345.397 439.364 347.17 443.901C347.84 445.594 348.544 447.274 349.259 448.948C350.237 451.657 349.879 453.291 349 456C347 458 347 458 344.563 458.312C341.487 457.937 340.954 457.316 339 455C338.052 453.206 338.052 453.206 337.238 451.19C336.928 450.432 336.618 449.674 336.298 448.893C335.973 448.078 335.648 447.262 335.313 446.422C334.969 445.577 334.625 444.732 334.271 443.862C333.173 441.161 332.087 438.456 331 435.75C329.911 433.06 328.82 430.37 327.729 427.681C327.052 426.009 326.376 424.336 325.702 422.662C325.392 421.892 325.082 421.121 324.762 420.327C324.467 419.594 324.173 418.861 323.869 418.106C323.04 416.097 322.154 414.122 321.258 412.142C319.817 408.542 319.863 406.675 321 403C324.401 401.3 326.426 401.881 330 403Z" fill="rgb(202 138 4)"/>
<path d="M259.562 136.562C267.113 136.821 272.441 141.096 277.5 146.375C284.626 154.739 291.684 165.132 294 176C293.051 178.238 293.051 178.238 292 180C289.69 180 287.38 180 285 180C284.455 178.984 283.909 177.968 283.348 176.922C274.624 159.617 274.624 159.617 260 148C259.031 147.588 258.061 147.175 257.062 146.75C256.382 146.502 255.701 146.255 255 146C254.375 142.625 254.375 142.625 254 139C256 137 256 137 259.562 136.562Z" fill="rgb(202 138 4)"/>
<path d="M348 116C350 118 350 118 350.375 120.25C349.875 123.919 348.137 126.022 346 129C344.92 132.239 344.915 134.508 344.973 137.91C344.985 139.064 344.997 140.219 345.01 141.408C345.045 143.848 345.084 146.288 345.127 148.728C345.138 149.882 345.149 151.035 345.16 152.223C345.177 153.282 345.194 154.342 345.211 155.434C345 158 345 158 343 160C340 160.25 340 160.25 337 160C332.408 155.408 332.829 147.207 332.688 141.062C332.857 131.336 334.649 123.491 341 116C343.706 114.647 345.133 115.212 348 116Z" fill="rgb(202 138 4)"/>
<path d="M300.563 121.938C301.697 121.958 302.831 121.979 304 122C307.864 129.427 311.224 136.996 314.375 144.75C314.838 145.847 315.301 146.944 315.777 148.074C316.209 149.138 316.641 150.201 317.086 151.297C317.478 152.249 317.871 153.201 318.275 154.183C319.126 157.488 318.829 159.712 318 163C317 164 317 164 314.125 164.25C311 164 311 164 309.503 162.927C307.36 160.179 306.136 157.119 304.828 153.918C304.542 153.226 304.255 152.534 303.96 151.822C303.357 150.36 302.759 148.896 302.165 147.431C301.255 145.199 300.322 142.978 299.387 140.756C298.803 139.331 298.221 137.906 297.641 136.48C297.361 135.821 297.08 135.161 296.792 134.482C295.114 130.261 294.771 127.385 296 123C297 122 297 122 300.563 121.938Z" fill="rgb(202 138 4)"/>
<path d="M454.438 430.812C458 431 458 431 460 433C460.7 443.822 454.824 453.201 448 461C447.34 461.66 446.68 462.32 446 463C442.375 462.625 442.375 462.625 439 462C438.108 458.557 437.647 456.711 439.258 453.465C439.874 452.631 440.49 451.797 441.125 450.938C444.716 445.716 446.939 440.51 449.055 434.555C450.357 431.035 450.357 431.035 454.438 430.812Z" fill="rgb(202 138 4)"/>
<path d="M293.875 53.9375C297.325 55.1105 297.662 55.4588 299.313 58.5C301.157 62.7751 302.291 67.3188 302 72C300 74 300 74 297.063 74.375C294 74 294 74 292.313 72.5C289.131 66.439 287.157 61.9474 289 55C291 54 291 54 293.875 53.9375Z" fill="rgb(202 138 4)"/>
<path d="M314 31C316 33 316 33 316.312 35.4375C315.934 38.5384 315.359 39.0434 313 41C310.695 42.2032 310.695 42.2032 308.125 43.25C307.282 43.6058 306.439 43.9616 305.57 44.3282C302.608 45.1025 300.901 44.9243 298 44C296 42 296 42 295.688 39.5625C296.066 36.4617 296.641 35.9567 299 34C301.305 32.7969 301.305 32.7969 303.875 31.75C305.14 31.2164 305.14 31.2164 306.43 30.6719C309.392 29.8976 311.099 30.0758 314 31Z" fill="rgb(202 138 4)"/>
<path d="M488.063 101.625C489.162 101.608 489.162 101.608 490.283 101.59C492.41 101.602 492.41 101.602 496 102C498 105 498 105 497.75 107.562C497 110 497 110 495 112C492.485 112.388 490.092 112.648 487.563 112.812C486.541 112.908 486.541 112.908 485.498 113.006C480.516 113.352 480.516 113.352 478.051 111.668C476.551 109.288 476.586 107.757 477 105C479.565 100.892 483.724 101.556 488.063 101.625Z" fill="rgb(202 138 4)"/>
<path d="M263.855 101.609C267.826 102.103 268.791 103.214 271.312 106.25C271.989 107.039 272.666 107.828 273.363 108.641C274.927 110.894 275.74 112.289 276 115C274.562 117.75 274.562 117.75 273 120C268.979 120.082 266.991 119.911 263.977 117.141C261.099 113.641 259.177 111.083 258.438 106.562C259.243 102.892 260.135 102.118 263.855 101.609Z" fill="rgb(202 138 4)"/>
<path d="M276 46C278 48 278 48 278.312 50.9375C277.958 54.4084 277.587 54.8669 275 57C270.038 59.621 265.547 60.3467 260 60C258.812 57.25 258.812 57.25 258 54C259.971 50.449 262.145 49.1785 265.875 47.75C267.14 47.2473 267.14 47.2473 268.43 46.7344C271.13 45.9629 273.209 45.7161 276 46Z" fill="rgb(202 138 4)"/>
<path d="M451.375 103.75C454 104 454 104 455.875 105.188C457.407 107.655 457.428 109.145 457 112C455.98 113.633 455.98 113.633 454 115C451.218 115.298 448.712 115.419 445.938 115.375C445.205 115.387 444.472 115.398 443.717 115.41C441.59 115.398 441.59 115.398 438 115C436 112 436 112 436.25 109.438C437 107 437 107 439 105C443.048 104.142 447.255 104.055 451.375 103.75Z" fill="rgb(202 138 4)"/>
<path d="M276.875 16.75C280 17 280 17 281.551 18.1797C283.362 20.4551 284.288 22.6544 285.312 25.375C285.68 26.3109 286.047 27.2467 286.426 28.2109C287.108 31.5237 286.524 33.0377 285 36C281.687 36.3125 281.687 36.3125 278 36C276.25 33.9375 276.25 33.9375 275 31C274.422 29.8656 273.845 28.7313 273.25 27.5625C271.91 23.7439 271.902 21.8439 273 18C274 17 274 17 276.875 16.75Z" fill="rgb(202 138 4)"/>
<path d="M468 118.75C471 119 471 119 473 121C474.452 125.648 474.685 131.189 474 136C472.202 138.345 471.432 138.914 468.5 139.5C466 139 466 139 464.363 136.887C462.748 133.467 462.632 131.079 462.687 127.312C462.691 126.174 462.695 125.036 462.699 123.863C463.123 119.826 463.965 119.086 468 118.75Z" fill="rgb(202 138 4)"/>
<path d="M468 78C469.637 79.0508 469.637 79.0508 471 81C471.271 83.6168 471.374 85.9552 471.312 88.5625C471.316 89.2476 471.319 89.9328 471.322 90.6387C471.267 95.7327 471.267 95.7327 469 98C466 98.25 466 98.25 463 98C460.194 95.1937 460.432 92.3348 460.187 88.5625C460.092 87.5406 460.092 87.5406 459.994 86.4981C459.648 81.5156 459.648 81.5156 461.332 79.0508C463.712 77.5514 465.243 77.5865 468 78Z" fill="rgb(202 138 4)"/>
<path d="M403.562 91.25C407 92 407 92 409 94C409.55 100.052 409.55 100.052 407.875 102.938C405.065 104.53 403.172 104.453 400 104C397.562 102.438 397.562 102.438 396 100C396.062 96.375 396.062 96.375 397 93C400 91 400 91 403.562 91.25Z" fill="rgb(202 138 4)"/>
<path d="M376 133C377.938 134.125 377.938 134.125 379 136C379.425 140.078 379.313 141.531 377 145C373.831 145.896 371.823 146.289 368.688 145.188C367 144 367 144 366 142C365.556 136.783 365.556 136.783 367.063 134.125C370.107 132.357 372.563 132.632 376 133Z" fill="rgb(202 138 4)"/>
<path d="M285 298C286.875 299.125 286.875 299.125 288 301C287.938 304.562 287.938 304.562 287 308C285.25 309.5 285.25 309.5 283 310C279.65 309.681 278.408 309.408 276 307C275.625 303.562 275.625 303.562 276 300C278.819 296.659 280.989 296.56 285 298Z" fill="rgb(202 138 4)"/>
<path d="M267.563 261.062C271 262 271 262 272.5 263.75C273.117 266.527 272.854 268.296 272 271C270 273 270 273 266.563 273.375C263 273 263 273 261 271.312C259.722 268.357 259.919 267.01 261 264C262.896 260.84 263.803 260.997 267.563 261.062Z" fill="rgb(202 138 4)"/>
<path d="M315 370C316.875 371.125 316.875 371.125 318 373C318.394 376.149 318.529 378.119 316.875 380.875C314.119 382.529 312.149 382.394 309 382C307.125 380.875 307.125 380.875 306 379C305.606 375.851 305.472 373.881 307.125 371.125C309.881 369.471 311.851 369.606 315 370Z" fill="rgb(202 138 4)"/>
<path d="M300 334C301.875 335.125 301.875 335.125 303 337C303.438 340 303.438 340 303 343C301.375 344.938 301.375 344.938 299 346C295.327 345.78 293.63 345.63 291 343C290.67 339.897 290.495 337.842 292.125 335.125C294.881 333.471 296.851 333.606 300 334Z" fill="rgb(202 138 4)"/>
</g>
<defs>
<clipPath id="clip0_90_35">
<rect width="512" height="512" fill="white"/>
</clipPath>
</defs>
</svg>
