<svg width="439" height="229" viewBox="0 0 439 229" fill="none" xmlns="http://www.w3.org/2000/svg">
<path d="M60.0574 0.0327304C61.4357 0.0292692 62.8141 0.0245015 64.1924 0.0185487C67.9609 0.00607291 71.7293 0.0121933 75.4978 0.0215073C79.5695 0.0283117 83.6411 0.0178097 87.7128 0.00956756C95.6819 -0.00375759 103.651 -0.000897368 111.62 0.00780548C118.099 0.0145869 124.577 0.0154968 131.056 0.012234C131.979 0.0117743 132.902 0.0113146 133.852 0.010841C135.727 0.0098818 137.602 0.00890916 139.477 0.00792323C157.05 -0.000627217 174.623 0.00919781 192.196 0.0253243C207.265 0.038725 222.333 0.0364008 237.402 0.0225681C254.912 0.0065023 272.421 0.000199073 289.931 0.00940484C291.799 0.0103605 293.667 0.0113036 295.535 0.012234C296.455 0.0126969 297.374 0.0131597 298.321 0.0136365C304.789 0.0162236 311.257 0.0118615 317.725 0.00479537C325.611 -0.00363097 333.497 -0.00131574 341.384 0.0146376C345.405 0.0225054 349.427 0.0256375 353.448 0.0156902C357.134 0.00671156 360.819 0.0117277 364.505 0.0276228C366.461 0.0325297 368.416 0.0228024 370.372 0.0124511C378.208 0.0644999 385.277 0.871105 392.362 4.41368C392.405 6.41323 392.403 8.4141 392.362 10.4137C392.032 10.7437 391.702 11.0737 391.362 11.4137C384.483 10.737 384.483 10.737 381.584 9.90045C378.912 9.31492 376.455 9.28173 373.719 9.27387C372.562 9.26818 371.405 9.26249 370.213 9.25663C368.941 9.25545 367.669 9.25427 366.358 9.25305C364.994 9.24832 363.63 9.24317 362.265 9.23763C358.512 9.22373 354.759 9.21615 351.006 9.20966C347.788 9.20329 344.569 9.19322 341.351 9.1831C330.747 9.14978 320.144 9.12826 309.54 9.1099C306.779 9.1051 304.017 9.10012 301.255 9.0951C284.101 9.06412 266.947 9.03744 249.793 9.02068C245.82 9.01673 241.847 9.01272 237.874 9.00865C236.887 9.00764 235.899 9.00664 234.882 9.0056C218.892 8.9886 202.902 8.94749 186.912 8.89663C170.491 8.84482 154.069 8.81573 137.648 8.80848C128.43 8.80382 119.212 8.78911 109.994 8.74874C102.142 8.71438 94.2902 8.70052 86.4381 8.71316C82.4344 8.71897 78.4313 8.7152 74.4277 8.68499C70.7557 8.6575 67.0847 8.65822 63.4126 8.6805C61.4691 8.68521 59.5256 8.66056 57.5823 8.63453C49.0581 8.72545 42.4592 10.5673 35.3625 15.4137C32.44 18.4822 30.2529 21.6328 28.3625 25.4137C29.1002 25.4129 29.8379 25.4122 30.598 25.4114C74.2793 25.3667 117.961 25.3323 161.642 25.3116C166.882 25.309 172.122 25.3065 177.361 25.3038C178.405 25.3033 179.448 25.3028 180.523 25.3022C197.435 25.2935 214.346 25.2777 231.258 25.2594C248.599 25.2407 265.941 25.2296 283.282 25.2255C293.99 25.2228 304.699 25.2141 315.407 25.1978C322.741 25.1873 330.075 25.1841 337.409 25.1867C341.646 25.188 345.883 25.1859 350.12 25.1753C353.994 25.1656 357.867 25.165 361.741 25.1719C363.147 25.1727 364.554 25.1701 365.96 25.1639C367.862 25.156 369.764 25.1614 371.666 25.1676C372.725 25.1668 373.785 25.1661 374.876 25.1653C377.362 25.4137 377.362 25.4137 379.362 27.4137C378.807 31.9692 378.807 31.9692 377.362 33.4137C375.491 33.5113 373.616 33.5374 371.742 33.5367C369.9 33.5397 369.9 33.5397 368.02 33.5428C366.64 33.5399 365.259 33.537 363.879 33.5339C362.426 33.5344 360.973 33.5352 359.521 33.5365C355.509 33.5388 351.498 33.5347 347.487 33.5297C343.169 33.5254 338.851 33.5269 334.532 33.5276C327.044 33.5282 319.556 33.525 312.068 33.5194C301.241 33.5113 290.414 33.5087 279.588 33.5074C262.024 33.5052 244.46 33.4986 226.896 33.4891C209.83 33.4799 192.764 33.4729 175.698 33.4686C174.647 33.4683 173.596 33.4681 172.513 33.4678C167.24 33.4665 161.967 33.4652 156.693 33.464C112.916 33.4536 69.1395 33.4352 25.3625 33.4137C25.3625 70.0437 25.3625 106.674 25.3625 144.414C28.6625 144.414 31.9625 144.414 35.3625 144.414C39.2179 146.41 40.9605 147.811 43.3625 151.414C44.5579 155.646 44.4792 159.864 44.425 164.226C44.4205 164.919 44.416 165.612 44.4113 166.326C44.3996 168.022 44.3817 169.718 44.3625 171.414C45.3525 171.414 46.3425 171.414 47.3625 171.414C47.6306 170.825 47.8987 170.235 48.175 169.629C52.4613 161.634 60.3093 157.59 68.5461 154.629C77.323 152.197 87.1907 153.06 95.3039 157.183C100.111 160.056 104.264 162.788 107.431 167.475C109.592 170.067 111.001 170.861 114.363 171.174C115.972 171.21 117.583 171.212 119.193 171.189C120.082 171.2 120.972 171.211 121.888 171.222C124.87 171.25 127.849 171.236 130.831 171.222C132.968 171.233 135.105 171.247 137.242 171.263C143.048 171.299 148.853 171.297 154.659 171.285C159.505 171.279 164.351 171.291 169.197 171.304C180.63 171.332 192.062 171.329 203.495 171.306C215.29 171.283 227.085 171.311 238.881 171.365C249.006 171.409 259.132 171.422 269.258 171.41C275.306 171.404 281.354 171.409 287.402 171.443C293.091 171.474 298.778 171.466 304.467 171.428C306.554 171.421 308.641 171.427 310.727 171.448C321.372 171.988 321.372 171.988 331.104 168.637C332.866 166.636 334.094 164.744 335.362 162.414C337.804 160.39 337.804 160.39 339.925 159.039C340.628 158.577 341.33 158.116 342.054 157.64C351.507 152.618 362.452 152.391 372.577 155.339C379.933 158.176 386.431 163.261 391.362 169.414C391.362 170.074 391.362 170.734 391.362 171.414C392.352 171.414 393.342 171.414 394.362 171.414C394.328 170.34 394.293 169.266 394.257 168.16C394.229 166.724 394.202 165.287 394.175 163.851C394.137 162.794 394.137 162.794 394.099 161.716C394.027 156.523 394.931 153.023 397.362 148.414C401.057 144.9 403.787 144.185 408.737 144.164C410.264 144.246 411.79 144.329 413.362 144.414C413.362 138.804 413.362 133.194 413.362 127.414C410.591 127.472 407.82 127.53 404.964 127.589C402.25 127.629 399.536 127.659 396.822 127.688C394.95 127.713 393.078 127.747 391.207 127.791C370.617 128.258 370.617 128.258 363.362 122.414C361.109 120.062 361.109 120.062 359.8 117.789C359.345 117.033 358.89 116.278 358.421 115.5C356.76 112.227 356.231 109.595 356.185 105.977C356.173 105.082 356.16 104.188 356.147 103.266C356.135 101.817 356.136 101.817 356.124 100.339C356.116 99.3417 356.108 98.3439 356.1 97.3158C356.086 95.2017 356.075 93.0876 356.067 90.9735C356.05 87.7559 356.006 84.5393 355.962 81.3219C355.952 79.2653 355.943 77.2086 355.937 75.152C355.919 74.1965 355.902 73.241 355.884 72.2565C355.906 65.154 357.419 59.8252 362.109 54.3902C362.667 53.9442 363.225 53.4982 363.8 53.0387C364.356 52.5772 364.911 52.1157 365.484 51.6402C371.095 47.9773 376.169 48.1691 382.675 48.2887C383.606 48.2977 384.538 48.3067 385.497 48.316C387.786 48.3395 390.074 48.3723 392.362 48.4137C392.355 47.2934 392.355 47.2934 392.347 46.1505C392.326 42.7799 392.313 39.4093 392.3 36.0387C392.292 34.8631 392.283 33.6874 392.275 32.4762C392.27 30.794 392.27 30.794 392.265 29.0777C392.257 27.5224 392.257 27.5224 392.249 25.9357C392.362 23.4137 392.362 23.4137 393.362 21.4137C397.96 19.8813 402.548 20.2293 407.362 20.2262C408.373 20.2139 409.384 20.2017 410.425 20.1891C411.394 20.1871 412.364 20.1852 413.362 20.1832C414.249 20.1791 415.136 20.175 416.05 20.1708C418.362 20.4137 418.362 20.4137 421.362 22.4137C421.732 24.9868 421.732 24.9868 421.723 28.3108C421.729 30.1955 421.729 30.1955 421.736 32.1183C421.725 33.5183 421.714 34.9184 421.703 36.3185C421.702 37.7867 421.703 39.255 421.704 40.7232C421.705 44.7169 421.688 48.7103 421.667 52.7039C421.648 56.8746 421.646 61.0453 421.643 65.216C421.633 73.1173 421.609 81.0185 421.579 88.9197C421.545 97.9135 421.529 106.907 421.513 115.901C421.482 134.405 421.429 152.91 421.362 171.414C421.972 171.531 422.582 171.649 423.21 171.77C424.417 172.017 424.417 172.017 425.648 172.269C426.443 172.428 427.238 172.587 428.058 172.75C432.519 174.034 435.314 176.697 437.737 180.664C438.961 186.046 439.33 191.178 436.8 196.226C434.376 199.762 431.296 201.789 427.362 203.414C423.63 203.868 423.63 203.868 419.679 203.804C418.979 203.799 418.278 203.793 417.557 203.787C415.345 203.765 413.136 203.715 410.925 203.664C409.415 203.644 407.905 203.625 406.396 203.609C402.717 203.565 399.04 203.496 395.362 203.414C395.059 204.36 394.755 205.306 394.441 206.281C391.755 214.081 385.303 220.792 378.058 224.636C368.113 229.185 357.024 230.338 346.487 226.851C335.648 222.245 329.485 214.753 324.362 204.414C322.935 204.409 322.935 204.409 321.479 204.404C298.354 204.323 275.228 204.23 252.103 204.126C240.92 204.076 229.737 204.03 218.554 203.992C208.81 203.959 199.066 203.919 189.322 203.871C184.16 203.846 178.997 203.824 173.835 203.81C168.981 203.798 164.127 203.776 159.273 203.746C157.487 203.737 155.701 203.732 153.915 203.729C151.486 203.726 149.056 203.711 146.626 203.692C145.912 203.694 145.198 203.696 144.463 203.698C139.591 203.642 139.591 203.642 137.362 201.414C137.918 196.858 137.918 196.858 139.362 195.414C141.728 195.316 144.064 195.284 146.43 195.293C147.178 195.293 147.926 195.292 148.697 195.291C151.223 195.289 153.749 195.295 156.275 195.3C158.078 195.3 159.881 195.3 161.684 195.3C166.595 195.299 171.506 195.305 176.417 195.312C181.543 195.319 186.669 195.319 191.796 195.32C201.51 195.323 211.225 195.332 220.939 195.342C231.996 195.353 243.053 195.358 254.109 195.363C276.86 195.374 299.611 195.391 322.362 195.414C322.339 194.845 322.316 194.277 322.292 193.691C322.274 192.919 322.256 192.147 322.237 191.351C322.203 190.22 322.203 190.22 322.167 189.066C322.362 186.414 322.362 186.414 324.362 179.414C255.062 179.414 185.762 179.414 114.362 179.414C115.352 182.879 115.352 182.879 116.362 186.414C116.558 189.066 116.558 189.066 116.487 191.351C116.469 192.123 116.451 192.895 116.433 193.691C116.41 194.26 116.386 194.828 116.362 195.414C119.002 195.414 121.642 195.414 124.362 195.414C125.487 197.726 125.487 197.726 126.362 200.414C125.702 201.404 125.042 202.394 124.362 203.414C122.155 203.609 122.155 203.609 119.55 203.539C116.84 203.633 116.84 203.633 114.362 204.414C112.582 206.484 111.619 208.525 110.484 211.004C106.996 218.5 100.688 222.939 93.3625 226.414C83.3555 229.819 72.5727 229.811 62.7922 225.675C54.1216 221.173 47.1686 214.506 43.3625 205.414C43.3625 204.754 43.3625 204.094 43.3625 203.414C42.4298 203.435 41.497 203.456 40.5361 203.477C37.049 203.546 33.5626 203.596 30.0751 203.633C28.5708 203.653 27.0665 203.681 25.5624 203.715C23.3901 203.764 21.2188 203.787 19.0461 203.804C17.7421 203.825 16.4381 203.846 15.0947 203.868C10.1999 203.272 6.28496 201.697 3.00211 197.798C-0.0786164 193.303 -0.430636 188.714 0.36248 183.414C2.04741 178.714 4.09252 176.013 8.36248 173.414C9.91001 172.995 11.4721 172.628 13.0422 172.304C13.8515 172.134 14.6609 171.965 15.4948 171.79C16.1111 171.666 16.7275 171.542 17.3625 171.414C17.3588 170.692 17.3551 169.97 17.3513 169.227C17.2628 151.631 17.1967 134.036 17.1552 116.44C17.1346 107.931 17.1066 99.4217 17.0607 90.9125C17.0207 83.4921 16.995 76.0718 16.9861 68.6513C16.9809 64.7256 16.9688 60.8002 16.9396 56.8745C16.9122 53.1719 16.9041 49.4696 16.91 45.7669C16.9084 43.7758 16.887 41.7848 16.8648 39.7938C16.9195 27.7582 19.6398 19.2511 28.0695 10.5738C37.7573 1.44718 46.9285 -0.0366403 60.0574 0.0327304ZM400.362 28.4137C400.362 35.0137 400.362 41.6137 400.362 48.4137C404.652 48.4137 408.942 48.4137 413.362 48.4137C413.362 41.8137 413.362 35.2137 413.362 28.4137C409.072 28.4137 404.782 28.4137 400.362 28.4137ZM366.021 63.0524C363.802 67.5491 363.786 71.2455 363.831 76.1949C363.827 77.1266 363.824 78.0584 363.82 79.0183C363.817 80.9816 363.824 82.945 363.841 84.9083C363.862 87.9044 363.841 90.8981 363.816 93.8941C363.818 95.8069 363.823 97.7197 363.831 99.6324C363.823 100.523 363.815 101.414 363.807 102.332C363.889 107.818 364.521 111.197 368.362 115.414C373.753 119.388 377.776 119.976 384.359 119.804C385.099 119.8 385.838 119.796 386.601 119.792C389.334 119.771 392.067 119.716 394.8 119.664C400.926 119.581 407.051 119.499 413.362 119.414C413.362 98.6237 413.362 77.8337 413.362 56.4137C407.051 56.3312 400.74 56.2487 394.237 56.1637C392.256 56.1273 390.275 56.0908 388.233 56.0533C386.649 56.0416 385.064 56.0314 383.48 56.0231C382.668 56.0026 381.857 55.9821 381.021 55.961C374.217 55.9569 370.614 57.8771 366.021 63.0524ZM25.3625 152.414C25.3625 158.684 25.3625 164.954 25.3625 171.414C28.9925 171.414 32.6225 171.414 36.3625 171.414C36.4439 169.185 36.5019 166.956 36.55 164.726C36.5848 163.485 36.6196 162.243 36.6554 160.964C36.3353 157.085 36.0895 155.216 33.3625 152.414C30.7225 152.414 28.0825 152.414 25.3625 152.414ZM403.374 153.929C401.981 157.35 402.041 160.539 402.175 164.164C402.189 164.861 402.202 165.558 402.216 166.277C402.251 167.99 402.305 169.702 402.362 171.414C405.992 171.414 409.622 171.414 413.362 171.414C413.362 165.144 413.362 158.874 413.362 152.414C406.006 151.605 406.006 151.605 403.374 153.929ZM56.3625 171.414C50.0965 179.35 48.3424 187.406 49.3625 197.414C51.4876 205.545 56.8965 211.726 63.425 216.789C70.53 220.719 77.3737 221.426 85.3625 220.414C95.0276 217.269 101.291 211.839 106.237 203.101C109.338 192.939 108.642 184.609 103.675 175.226C97.6365 167.882 91.1982 162.99 81.6125 161.539C71.5981 160.84 63.3735 164.332 56.3625 171.414ZM337.737 171.976C333.066 177.528 330.804 183.82 329.925 190.976C331.118 200.352 334.006 208.163 341.577 214.171C349.795 219.832 356.361 221.353 366.362 220.414C374.492 218.347 380.69 212.859 385.737 206.351C389.883 198.857 390.763 191.022 388.675 182.66C385.533 174.086 380.79 168.571 372.667 164.414C359.76 158.813 347.411 161.955 337.737 171.976ZM8.36248 184.414C7.77805 187.286 7.77805 187.286 8.36248 190.414C10.923 193.646 12.3871 195.237 16.5004 195.981C17.6473 195.955 18.7941 195.929 19.9758 195.902C21.8465 195.878 21.8465 195.878 23.7551 195.853C25.6954 195.79 25.6954 195.79 27.675 195.726C29.6443 195.692 29.6443 195.692 31.6535 195.658C34.8903 195.599 38.1265 195.509 41.3625 195.414C42.0225 190.134 42.6825 184.854 43.3625 179.414C38.7996 179.333 34.2382 179.273 29.675 179.226C28.3814 179.201 27.0878 179.176 25.7551 179.15C24.5079 179.14 23.2607 179.131 21.9758 179.121C20.8289 179.105 19.682 179.089 18.5004 179.073C14.0435 179.557 11.4865 181.29 8.36248 184.414ZM395.362 179.414C396.022 184.694 396.682 189.974 397.362 195.414C401.926 195.549 406.485 195.648 411.05 195.726C412.344 195.768 413.637 195.81 414.97 195.853C416.217 195.869 417.464 195.885 418.749 195.902C419.896 195.928 421.043 195.954 422.225 195.981C426.335 195.238 427.794 193.635 430.362 190.414C431.113 187.371 431.113 187.371 430.362 184.414C428.13 181.566 426.813 180.564 423.362 179.414C421.225 179.33 419.084 179.306 416.945 179.316C415.691 179.319 414.437 179.322 413.146 179.326C411.18 179.338 411.18 179.338 409.175 179.351C407.84 179.356 406.504 179.361 405.169 179.365C401.9 179.377 398.631 179.395 395.362 179.414Z" fill="rgb(202 138 4)"/>
<path d="M66.6008 48.2843C67.7186 48.2811 68.8365 48.278 69.9882 48.2747C71.8132 48.2778 71.8132 48.2778 73.675 48.2809C74.9142 48.2799 76.1534 48.279 77.4301 48.278C80.0564 48.2773 82.6825 48.2786 85.3088 48.2833C88.6818 48.289 92.0547 48.2857 95.4277 48.2797C98.6351 48.2753 101.843 48.2784 105.05 48.2809C106.267 48.2788 107.483 48.2768 108.737 48.2747C110.414 48.2795 110.414 48.2795 112.124 48.2843C113.114 48.2851 114.103 48.2859 115.123 48.2867C117.362 48.4137 117.362 48.4137 118.362 49.4137C118.472 51.1212 118.512 52.8333 118.524 54.5443C118.533 55.6389 118.543 56.7335 118.553 57.8613C118.557 59.0529 118.561 60.2445 118.566 61.4723C118.571 62.6869 118.577 63.9015 118.583 65.153C118.592 67.7279 118.599 70.3028 118.603 72.8778C118.612 76.8307 118.643 80.7831 118.675 84.736C118.682 87.2314 118.687 89.7268 118.691 92.2223C118.703 93.4119 118.715 94.6015 118.728 95.8271C118.725 96.9249 118.722 98.0226 118.719 99.1537C118.724 100.608 118.724 100.608 118.73 102.092C118.609 102.858 118.487 103.624 118.362 104.414C115.077 106.604 114.107 106.666 110.296 106.672C108.749 106.682 108.749 106.682 107.171 106.692C106.059 106.688 104.946 106.683 103.8 106.679C102.086 106.682 102.086 106.682 100.337 106.685C97.9193 106.686 95.5017 106.683 93.0842 106.674C89.3773 106.664 85.6709 106.674 81.9641 106.687C79.6177 106.686 77.2713 106.683 74.925 106.679C73.8124 106.683 72.6999 106.687 71.5536 106.692C70.0069 106.682 70.0069 106.682 68.4289 106.672C67.5208 106.671 66.6128 106.669 65.6772 106.668C63.3625 106.414 63.3625 106.414 60.3625 104.414C59.995 102.092 59.995 102.092 60.006 99.1537C60.003 98.0559 60 96.9581 59.9969 95.8271C60.0093 94.6375 60.0216 93.4479 60.0344 92.2223C60.0362 91.0067 60.0381 89.7911 60.04 88.5387C60.0468 85.9655 60.0607 83.3923 60.0812 80.8192C60.1124 76.8643 60.1222 72.9097 60.1281 68.9547C60.1373 66.4606 60.1477 63.9664 60.1594 61.4723C60.1636 60.2807 60.1679 59.089 60.1722 57.8613C60.1818 56.7667 60.1915 55.6721 60.2014 54.5443C60.2082 53.5755 60.215 52.6067 60.222 51.6085C60.4929 47.376 62.9153 48.2873 66.6008 48.2843ZM68.3625 56.4137C68.3625 70.2737 68.3625 84.1337 68.3625 98.4137C82.2225 98.4137 96.0825 98.4137 110.362 98.4137C110.362 84.5537 110.362 70.6937 110.362 56.4137C96.5025 56.4137 82.6425 56.4137 68.3625 56.4137Z" fill="rgb(202 138 4)"/>
<path d="M133.609 48.2935C134.601 48.2957 135.594 48.2979 136.617 48.3002C137.738 48.3003 138.859 48.3003 140.014 48.3004C141.844 48.3082 141.844 48.3082 143.71 48.3161C145.572 48.3182 145.572 48.3182 147.472 48.3203C150.779 48.325 154.085 48.334 157.391 48.345C160.762 48.3553 164.134 48.3598 167.505 48.3649C174.124 48.3759 180.743 48.3927 187.362 48.4137C188.616 50.9205 188.503 52.6531 188.524 55.4584C188.533 56.5097 188.543 57.5609 188.553 58.644C188.557 59.7836 188.561 60.9232 188.566 62.0973C188.571 63.2638 188.577 64.4302 188.583 65.632C188.592 68.1026 188.599 70.5732 188.603 73.0438C188.612 76.8321 188.643 80.6198 188.675 84.4079C188.682 86.8043 188.687 89.2008 188.691 91.5973C188.703 92.7349 188.715 93.8724 188.728 95.0444C188.725 96.0989 188.722 97.1533 188.719 98.2396C188.724 99.6329 188.724 99.6329 188.73 101.054C188.362 103.414 188.362 103.414 187.157 105.214C184.758 106.818 183.173 106.788 180.296 106.786C178.749 106.795 178.749 106.795 177.171 106.805C175.503 106.791 175.503 106.791 173.8 106.777C172.657 106.777 171.514 106.778 170.337 106.779C167.919 106.776 165.502 106.766 163.084 106.75C159.377 106.726 155.671 106.729 151.964 106.736C149.618 106.73 147.271 106.723 144.925 106.714C143.812 106.715 142.7 106.716 141.554 106.717C140.522 106.708 139.491 106.698 138.429 106.688C137.067 106.681 137.067 106.681 135.677 106.674C133.362 106.414 133.362 106.414 130.362 104.414C129.995 102.092 129.995 102.092 130.006 99.1537C130.003 98.0559 130 96.9582 129.997 95.8271C130.009 94.6376 130.022 93.448 130.034 92.2223C130.036 91.0067 130.038 89.7911 130.04 88.5387C130.047 85.9655 130.061 83.3923 130.081 80.8192C130.112 76.8643 130.122 72.9098 130.128 68.9547C130.137 66.4606 130.148 63.9664 130.159 61.4723C130.164 60.2807 130.168 59.0891 130.172 57.8613C130.182 56.7667 130.191 55.6721 130.201 54.5443C130.208 53.5755 130.215 52.6067 130.222 51.6085C130.414 48.6113 130.606 48.4542 133.609 48.2935ZM138.362 56.4137C138.362 70.2737 138.362 84.1337 138.362 98.4137C152.222 98.4137 166.082 98.4137 180.362 98.4137C180.362 84.5537 180.362 70.6937 180.362 56.4137C166.502 56.4137 152.642 56.4137 138.362 56.4137Z" fill="rgb(202 138 4)"/>
<path d="M273.684 48.1664C274.654 48.1679 275.624 48.1693 276.623 48.1708C277.72 48.1677 278.818 48.1646 279.949 48.1614C281.139 48.1686 282.328 48.1758 283.554 48.1832C285.377 48.1839 285.377 48.1839 287.237 48.1846C289.811 48.1876 292.384 48.1955 294.957 48.2079C298.912 48.2261 302.867 48.2284 306.821 48.2281C309.316 48.233 311.81 48.2389 314.304 48.2457C315.496 48.2468 316.687 48.2479 317.915 48.2491C319.557 48.2587 319.557 48.2587 321.232 48.2684C322.201 48.2722 323.17 48.276 324.168 48.28C326.363 48.4137 326.363 48.4137 327.363 49.4137C327.472 51.1212 327.512 52.8333 327.524 54.5443C327.533 55.6389 327.543 56.7335 327.553 57.8613C327.557 59.0529 327.561 60.2445 327.566 61.4723C327.571 62.6869 327.577 63.9015 327.583 65.153C327.592 67.7279 327.599 70.3028 327.603 72.8778C327.612 76.8307 327.643 80.7831 327.675 84.7359C327.682 87.2314 327.687 89.7268 327.691 92.2223C327.703 93.4119 327.715 94.6015 327.728 95.8271C327.725 96.9249 327.722 98.0226 327.719 99.1537C327.724 100.608 327.724 100.608 327.73 102.092C327.609 102.858 327.487 103.624 327.363 104.414C324.082 106.6 323.102 106.669 319.296 106.688C317.749 106.703 317.749 106.703 316.171 106.717C314.503 106.716 314.503 106.716 312.8 106.714C311.657 106.719 310.514 106.723 309.337 106.727C306.919 106.733 304.502 106.734 302.084 106.729C298.377 106.726 294.671 106.75 290.964 106.775C288.618 106.777 286.271 106.778 283.925 106.777C282.812 106.786 281.7 106.795 280.554 106.805C279.522 106.799 278.491 106.792 277.429 106.786C276.521 106.787 275.613 106.787 274.677 106.788C272.363 106.414 272.363 106.414 270.569 105.214C268.942 102.786 268.988 101.154 268.99 98.2396C268.984 97.1852 268.978 96.1308 268.971 95.0444C268.981 93.9069 268.99 92.7693 268.999 91.5973C268.999 90.4299 268.998 89.2625 268.998 88.0597C269 85.5908 269.01 83.122 269.026 80.6532C269.05 76.8628 269.047 73.0732 269.04 69.2828C269.046 66.8876 269.053 64.4925 269.062 62.0973C269.061 60.9577 269.06 59.8181 269.059 58.644C269.068 57.5927 269.078 56.5415 269.088 55.4584C269.092 54.5303 269.097 53.6023 269.102 52.6461C269.478 49.4267 270.477 48.508 273.684 48.1664ZM277.363 56.4137C277.363 70.2737 277.363 84.1337 277.363 98.4137C291.223 98.4137 305.083 98.4137 319.363 98.4137C319.363 84.5537 319.363 70.6937 319.363 56.4137C305.503 56.4137 291.643 56.4137 277.363 56.4137Z" fill="rgb(202 138 4)"/>
<path d="M206.493 48.2526C207.588 48.243 208.682 48.2333 209.81 48.2234C211.002 48.2192 212.193 48.2149 213.421 48.2106C214.636 48.2049 215.85 48.1992 217.102 48.1933C219.677 48.1838 222.252 48.1773 224.827 48.1735C228.78 48.1637 232.732 48.1327 236.685 48.1012C239.18 48.0947 241.676 48.0894 244.171 48.0856C245.361 48.0732 246.55 48.0609 247.776 48.0482C249.423 48.0527 249.423 48.0527 251.102 48.0573C252.072 48.0536 253.042 48.05 254.041 48.0462C254.807 48.1675 255.573 48.2887 256.362 48.4137C258.542 51.6828 258.611 52.6055 258.605 56.3883C258.61 57.905 258.61 57.905 258.615 59.4524C258.608 60.5431 258.6 61.6337 258.593 62.7574C258.592 63.8781 258.592 64.9987 258.592 66.1533C258.589 68.5238 258.581 70.8943 258.568 73.2648C258.55 76.8991 258.548 80.5332 258.548 84.1676C258.543 86.4684 258.537 88.7692 258.53 91.0699C258.529 92.1606 258.528 93.2513 258.527 94.375C258.521 95.3861 258.514 96.3973 258.508 97.4391C258.502 98.7745 258.502 98.7745 258.496 100.137C258.362 102.414 258.362 102.414 257.362 105.414C254.409 106.398 252.468 106.546 249.388 106.559C247.871 106.569 247.871 106.569 246.324 106.578C244.688 106.58 244.688 106.58 243.019 106.582C241.898 106.585 240.777 106.588 239.623 106.592C237.252 106.597 234.882 106.599 232.511 106.599C228.877 106.601 225.243 106.619 221.609 106.638C219.308 106.641 217.007 106.643 214.706 106.644C213.616 106.651 212.525 106.659 211.401 106.666C209.884 106.661 209.884 106.661 208.337 106.657C207.447 106.658 206.556 106.659 205.639 106.661C203.362 106.414 203.362 106.414 200.362 104.414C199.995 102.092 199.995 102.092 200.006 99.1537C200.003 98.0559 200 96.9582 199.997 95.8271C200.009 94.6375 200.022 93.4479 200.034 92.2223C200.036 91.0067 200.038 89.7911 200.04 88.5387C200.047 85.9655 200.061 83.3923 200.081 80.8192C200.112 76.8643 200.122 72.9098 200.128 68.9547C200.137 66.4606 200.148 63.9664 200.159 61.4723C200.164 60.2807 200.168 59.089 200.172 57.8613C200.182 56.7667 200.191 55.6721 200.201 54.5443C200.208 53.5755 200.215 52.6067 200.222 51.6085C200.49 47.4184 202.831 48.2784 206.493 48.2526ZM208.362 56.4137C208.362 70.2737 208.362 84.1337 208.362 98.4137C222.222 98.4137 236.082 98.4137 250.362 98.4137C250.362 84.5537 250.362 70.6937 250.362 56.4137C236.502 56.4137 222.642 56.4137 208.362 56.4137Z" fill="rgb(202 138 4)"/>
<path d="M171.632 138.287C172.775 138.284 173.918 138.281 175.095 138.278C176.36 138.28 177.625 138.282 178.929 138.284C180.265 138.283 181.602 138.281 182.939 138.279C186.579 138.274 190.22 138.276 193.86 138.279C197.663 138.282 201.466 138.28 205.269 138.278C211.657 138.276 218.045 138.279 224.433 138.283C231.826 138.289 239.219 138.287 246.612 138.282C252.95 138.277 259.288 138.276 265.626 138.279C269.416 138.281 273.205 138.281 276.995 138.277C280.558 138.275 284.121 138.277 287.684 138.282C289.621 138.284 291.557 138.281 293.494 138.278C294.64 138.281 295.785 138.284 296.966 138.287C297.965 138.287 298.965 138.287 299.995 138.288C302.362 138.414 302.362 138.414 304.362 139.414C304.405 141.413 304.403 143.414 304.362 145.414C302.647 147.129 300.397 146.544 298.055 146.547C296.903 146.552 295.752 146.556 294.566 146.56C293.292 146.56 292.017 146.559 290.704 146.559C289.358 146.562 288.011 146.565 286.665 146.569C282.997 146.578 279.33 146.58 275.663 146.581C272.606 146.582 269.549 146.586 266.492 146.589C259.283 146.597 252.073 146.6 244.864 146.599C237.417 146.598 229.969 146.609 222.522 146.625C216.137 146.638 209.752 146.643 203.367 146.643C199.55 146.642 195.733 146.645 191.915 146.656C188.326 146.665 184.737 146.666 181.147 146.658C179.196 146.657 177.245 146.665 175.294 146.674C173.563 146.667 173.563 146.667 171.797 146.661C170.79 146.662 169.783 146.662 168.745 146.663C166.362 146.414 166.362 146.414 164.362 144.414C165.074 138.577 165.955 138.289 171.632 138.287Z" fill="rgb(202 138 4)"/>
<path d="M365.362 176.414C369.367 178.416 372.021 180.594 374.362 184.414C376.045 189.462 375.925 193.735 373.8 198.601C371.514 202.733 368.862 204.963 364.362 206.414C359.041 207.309 354.908 206.306 350.362 203.414C346.975 200.484 345.559 198.469 345.124 193.925C344.966 187.903 345.074 184.05 349.362 179.414C353.862 175.323 359.616 175.646 365.362 176.414ZM353.362 187.414C352.789 191.356 352.796 193.507 354.925 196.914C357.391 198.725 357.391 198.725 360.925 198.414C364.325 197.677 364.325 197.677 366.362 195.726C367.739 192.542 367.343 190.704 366.362 187.414C365.299 185.433 365.299 185.433 363.362 184.414C359.099 183.869 356.211 184.017 353.362 187.414Z" fill="rgb(202 138 4)"/>
<path d="M84.3624 176.414C88.7936 178.55 91.5915 180.789 93.3624 185.414C93.8935 190.304 94.0342 194.752 92.1749 199.351C88.1323 203.951 84.8154 206.164 78.6749 206.789C73.6483 206.705 70.0418 204.772 66.3624 201.414C63.5689 196.7 62.7691 192.853 63.3624 187.414C67.1471 177.255 74.4418 175.405 84.3624 176.414ZM72.9249 186.539C71.1137 189.326 71.1137 189.326 71.3624 192.539C72.5141 195.85 73.2473 196.856 76.3624 198.414C79.6575 198.99 80.8906 198.732 83.6749 196.851C85.9947 193.5 85.9425 191.402 85.3624 187.414C83.1707 184.8 81.7159 184.473 78.3624 183.914C75.2129 184.169 75.2129 184.169 72.9249 186.539Z" fill="rgb(202 138 4)"/>
<path d="M263.499 157.284C264.377 157.281 265.254 157.278 266.159 157.275C267.113 157.277 268.067 157.279 269.05 157.281C270.023 157.28 270.996 157.279 271.998 157.278C274.059 157.277 276.12 157.279 278.182 157.283C281.349 157.289 284.516 157.283 287.683 157.277C289.68 157.278 291.678 157.279 293.675 157.281C294.629 157.279 295.583 157.277 296.566 157.275C297.883 157.28 297.883 157.28 299.226 157.284C300.002 157.285 300.779 157.286 301.578 157.287C303.362 157.414 303.362 157.414 304.362 158.414C304.55 160.851 304.55 160.851 304.362 163.414C301.974 165.802 301.47 165.666 298.22 165.673C297.366 165.679 296.511 165.685 295.631 165.692C294.707 165.688 293.783 165.684 292.831 165.679C291.884 165.681 290.937 165.683 289.962 165.685C287.958 165.687 285.954 165.683 283.95 165.674C280.875 165.664 277.801 165.674 274.726 165.687C272.782 165.686 270.838 165.683 268.894 165.679C267.508 165.685 267.508 165.685 266.094 165.692C265.239 165.685 264.385 165.679 263.505 165.673C262.752 165.671 261.998 165.669 261.222 165.668C259.362 165.414 259.362 165.414 257.362 163.414C257.985 158.306 258.433 157.29 263.499 157.284Z" fill="rgb(202 138 4)"/>
</svg>
